<svg xmlns="http://www.w3.org/2000/svg" width="896" height="1152" viewBox="0 0 896 1152">
<g>
<path d="M 475.50 904.12 C472.75,904.77 462.40,905.40 452.50,905.53 C435.65,905.76 429.17,905.24 411.00,902.18 C407.42,901.58 400.45,900.80 395.50,900.44 C390.55,900.09 384.02,898.98 381.00,897.97 C377.98,896.97 373.61,895.85 371.31,895.49 C369.00,895.14 365.42,893.98 363.35,892.92 C361.19,891.82 357.54,891.00 354.82,891.00 C350.02,891.00 346.40,889.82 337.75,885.42 C335.14,884.09 332.11,883.00 331.03,883.00 C329.94,883.00 327.13,882.14 324.78,881.08 C317.62,877.88 303.59,871.10 302.00,870.09 C301.17,869.56 299.15,868.48 297.50,867.70 C294.57,866.31 283.51,859.91 273.50,853.81 C252.39,840.97 217.84,809.49 199.63,786.52 C191.53,776.30 175.00,752.73 175.00,751.40 C175.00,751.07 174.16,749.61 173.13,748.15 C169.91,743.60 161.00,725.93 161.00,724.11 C161.00,723.16 160.34,721.51 159.53,720.44 C158.72,719.37 158.05,717.52 158.03,716.33 C158.01,715.13 156.88,712.82 155.50,711.18 C154.12,709.55 153.00,707.32 153.00,706.24 C153.00,705.16 152.07,703.09 150.94,701.65 C149.81,700.21 148.62,697.34 148.30,695.27 C147.98,693.19 147.08,690.22 146.29,688.67 C145.50,687.11 144.42,683.11 143.89,679.78 C143.35,676.46 142.26,672.47 141.46,670.92 C140.66,669.37 140.00,667.23 140.00,666.18 C140.00,665.12 138.92,660.94 137.60,656.88 C136.28,652.82 134.87,645.90 134.47,641.50 C134.07,637.10 133.36,632.49 132.90,631.26 C130.34,624.45 128.90,565.63 130.94,551.50 C131.42,548.20 132.55,540.10 133.47,533.50 C134.38,526.90 135.97,518.58 137.00,515.00 C138.03,511.42 139.16,506.29 139.52,503.58 C139.88,500.88 140.78,497.73 141.53,496.58 C142.28,495.44 143.34,491.69 143.89,488.25 C144.44,484.81 145.59,481.00 146.44,479.78 C147.30,478.55 148.01,476.19 148.03,474.53 C148.05,472.86 149.17,469.70 150.53,467.50 C151.88,465.30 152.99,462.78 152.99,461.90 C153.00,461.02 153.90,459.27 155.00,458.00 C156.10,456.73 157.01,454.98 157.03,454.10 C157.05,453.22 158.17,450.25 159.52,447.50 C160.87,444.75 161.99,441.74 161.99,440.81 C162.00,439.88 162.46,438.84 163.02,438.49 C163.57,438.15 164.71,436.43 165.55,434.68 C168.33,428.86 170.24,425.52 171.94,423.50 C172.86,422.40 174.17,420.38 174.85,419.00 C176.63,415.38 178.48,412.47 186.00,401.49 C186.82,400.28 188.38,397.99 189.45,396.40 C190.53,394.80 191.99,392.83 192.70,392.00 C193.42,391.17 196.13,387.80 198.73,384.50 C206.97,374.05 209.00,371.85 225.30,355.69 C240.62,340.50 251.90,330.62 256.83,328.06 C258.11,327.39 259.91,326.22 260.83,325.46 C261.75,324.69 266.24,321.30 270.82,317.91 C280.13,311.03 285.28,307.96 300.69,300.14 C304.09,298.42 307.14,296.59 307.45,296.08 C307.77,295.57 309.48,294.84 311.26,294.45 C313.04,294.07 315.65,292.94 317.06,291.94 C318.47,290.95 320.94,289.81 322.56,289.42 C324.18,289.03 326.62,287.94 328.00,287.00 C329.38,286.06 332.20,285.03 334.27,284.71 C338.11,284.11 348.01,280.54 355.78,276.97 C358.13,275.89 361.55,275.00 363.37,275.00 C365.19,275.00 369.23,274.12 372.35,273.05 C375.46,271.98 381.72,270.41 386.25,269.57 C390.79,268.73 396.75,267.61 399.50,267.08 C403.55,266.31 438.26,263.66 444.00,263.69 C444.83,263.69 456.97,264.27 470.98,264.98 C488.37,265.85 497.10,266.67 498.48,267.57 C499.59,268.29 504.55,269.41 509.50,270.05 C514.45,270.70 519.23,271.61 520.12,272.08 C521.01,272.55 525.28,273.66 529.62,274.55 C533.95,275.44 538.17,276.77 539.00,277.50 C539.83,278.23 542.30,279.13 544.50,279.50 C549.66,280.36 554.73,281.81 558.50,283.49 C566.89,287.24 573.88,290.00 574.99,290.00 C575.67,290.00 577.86,290.85 579.86,291.88 C581.86,292.91 584.62,294.25 586.00,294.86 C587.38,295.46 593.00,298.45 598.50,301.49 C604.00,304.53 609.62,307.56 611.00,308.22 C612.38,308.89 614.89,310.46 616.59,311.72 C618.30,312.97 620.00,314.00 620.39,314.00 C621.08,314.00 633.02,322.56 636.03,325.21 C636.87,325.95 639.78,328.12 642.49,330.03 C649.85,335.22 651.50,336.62 662.96,347.50 C677.22,361.03 680.74,364.77 690.73,377.00 C695.45,382.77 699.83,387.95 700.47,388.50 C702.16,389.97 711.00,402.85 711.00,403.84 C711.00,404.31 711.89,405.49 712.97,406.48 C714.06,407.46 715.24,409.22 715.59,410.38 C715.95,411.55 716.93,413.29 717.78,414.26 C719.54,416.26 721.42,419.38 723.02,422.98 C723.63,424.34 724.52,425.70 725.00,426.00 C726.12,426.69 735.49,444.71 736.44,448.00 C737.23,450.73 741.06,459.36 744.09,465.20 C745.14,467.23 746.00,469.50 746.00,470.24 C746.00,470.97 746.87,473.29 747.94,475.37 C749.00,477.46 750.37,481.49 750.97,484.32 C751.58,487.15 752.74,491.40 753.54,493.77 C754.34,496.13 755.00,499.42 755.00,501.07 C755.00,502.73 755.91,505.85 757.01,508.02 C758.16,510.27 759.40,515.53 759.90,520.23 C760.38,524.78 761.27,529.74 761.86,531.25 C762.46,532.77 763.18,537.49 763.46,541.75 C764.60,559.14 765.03,565.02 765.95,575.88 C766.68,584.48 766.56,590.95 765.46,602.38 C764.66,610.70 764.00,621.00 764.00,625.28 C764.00,630.19 763.31,635.18 762.12,638.78 C761.09,641.93 759.98,646.92 759.65,649.88 C759.33,652.84 758.15,657.02 757.03,659.16 C755.82,661.48 755.00,664.98 755.00,667.80 C755.00,670.49 754.20,674.03 753.14,676.01 C752.12,677.93 750.95,681.73 750.55,684.46 C750.15,687.19 748.96,690.51 747.91,691.85 C746.86,693.18 746.00,695.50 746.00,697.00 C746.00,698.50 745.07,700.91 743.94,702.35 C742.81,703.79 741.63,706.53 741.32,708.44 C741.01,710.35 739.91,712.68 738.88,713.61 C737.84,714.55 737.00,716.34 737.00,717.60 C737.00,718.86 735.88,722.01 734.50,724.60 C733.12,727.18 732.00,729.84 732.00,730.49 C732.00,731.15 731.10,732.50 730.00,733.50 C728.90,734.50 728.00,736.06 728.00,736.97 C728.00,737.88 727.21,739.50 726.24,740.56 C725.28,741.63 723.92,743.62 723.22,745.00 C722.53,746.38 720.86,749.30 719.52,751.50 C718.18,753.70 716.57,756.74 715.94,758.25 C715.32,759.76 714.38,761.00 713.87,761.00 C713.36,761.00 712.66,761.79 712.33,762.75 C711.53,765.06 698.44,782.64 691.39,790.87 C677.61,806.95 670.85,814.15 665.13,818.81 C661.49,821.79 655.80,826.94 652.50,830.26 C647.39,835.39 643.18,838.52 629.59,847.27 C628.54,847.95 626.29,849.62 624.59,851.00 C619.30,855.28 615.46,857.77 608.36,861.54 C604.59,863.54 601.05,865.55 600.49,866.01 C599.94,866.46 598.14,867.17 596.49,867.58 C594.85,867.99 592.91,869.15 592.19,870.16 C591.47,871.17 589.86,872.00 588.60,872.00 C587.34,872.00 585.00,873.14 583.41,874.53 C581.81,875.92 579.38,877.30 578.00,877.60 C576.62,877.90 573.86,879.02 571.86,880.08 C569.86,881.13 567.61,882.00 566.85,882.00 C566.09,882.00 563.82,882.89 561.79,883.97 C559.77,885.06 555.95,886.47 553.31,887.12 C550.66,887.76 547.98,888.69 547.35,889.18 C546.72,889.68 543.35,890.54 539.86,891.10 C536.38,891.66 532.81,892.77 531.93,893.56 C531.05,894.36 527.73,895.49 524.54,896.08 C521.34,896.67 517.56,897.60 516.12,898.15 C514.68,898.71 506.08,900.01 497.00,901.06 C487.92,902.10 478.25,903.48 475.50,904.12 ZM 418.48 869.56 C427.22,870.91 461.00,871.46 461.00,870.25 C461.00,869.84 466.52,869.49 473.25,869.48 C480.14,869.47 487.03,868.93 489.00,868.25 C490.92,867.59 496.70,866.58 501.84,866.00 C506.97,865.43 512.37,864.35 513.84,863.60 C515.30,862.85 518.53,861.90 521.00,861.50 C526.28,860.63 533.00,858.12 533.00,857.00 C533.00,856.58 535.01,855.92 537.48,855.56 C539.94,855.19 542.19,854.49 542.49,854.02 C542.78,853.54 545.38,852.37 548.26,851.41 C568.35,844.75 604.49,824.61 621.00,810.88 C640.48,794.69 647.25,788.51 655.41,779.48 C679.06,753.28 695.37,728.06 709.05,696.50 C711.44,691.00 713.75,686.35 714.20,686.17 C714.64,685.98 715.00,685.25 715.00,684.54 C715.00,683.83 715.62,682.73 716.38,682.10 C717.13,681.48 718.04,679.12 718.40,676.88 C718.76,674.63 719.72,671.51 720.53,669.94 C721.34,668.38 721.99,665.39 721.99,663.30 C721.98,661.21 723.13,654.55 724.55,648.50 C730.60,622.57 731.38,614.69 731.24,581.00 C731.08,542.61 730.70,536.32 728.28,531.50 C727.17,529.30 725.03,522.33 723.51,516.00 C719.79,500.50 717.34,492.20 713.31,481.50 C709.07,470.23 697.87,447.38 692.82,439.68 C690.72,436.48 689.00,433.73 689.00,433.57 C689.00,433.27 682.29,423.34 676.07,414.42 C653.41,381.96 610.85,346.26 571.74,326.92 C553.02,317.66 527.01,308.26 514.00,306.05 C510.98,305.54 505.80,304.43 502.50,303.58 C499.20,302.73 495.26,302.02 493.75,302.02 C492.24,302.01 491.00,301.61 491.00,301.12 C491.00,299.62 464.64,297.14 447.76,297.06 C434.90,296.99 407.70,299.72 407.17,301.12 C406.98,301.60 405.26,302.00 403.34,302.00 C398.00,302.00 359.33,311.70 355.01,314.13 C353.64,314.90 348.67,316.88 339.00,320.52 C328.49,324.48 296.45,342.51 283.28,351.89 C260.41,368.17 228.29,401.19 212.85,424.32 C199.59,444.16 185.51,472.32 178.99,492.00 C176.15,500.57 171.27,519.63 169.51,529.00 C163.09,563.23 163.71,616.56 170.88,646.50 C174.29,660.76 180.22,680.70 182.93,687.03 C197.71,721.58 214.35,748.46 236.20,773.03 C240.82,778.24 245.71,783.79 247.05,785.37 C249.47,788.20 265.30,802.13 274.01,809.09 C280.08,813.94 303.85,829.78 312.50,834.73 C321.49,839.87 332.09,844.85 343.82,849.43 C348.95,851.43 353.90,853.50 354.82,854.03 C355.74,854.55 359.20,855.64 362.50,856.45 C376.73,859.93 381.56,861.46 382.56,862.79 C383.72,864.33 391.78,866.16 392.48,865.04 C393.07,864.08 406.03,865.83 408.48,867.20 C409.58,867.81 414.08,868.87 418.48,869.56 ZM 442.74 721.79 C439.61,724.71 434.56,725.40 429.60,723.57 C423.74,721.41 422.64,719.81 422.21,712.76 C421.73,704.91 422.24,703.64 430.56,692.00 C456.71,655.39 486.14,627.73 523.64,604.50 C529.34,600.97 530.31,598.45 526.51,597.00 C524.80,596.35 481.37,596.00 402.92,596.00 L 281.97 596.00 L 278.33 592.66 C275.16,589.76 274.64,588.63 274.30,583.91 C273.87,577.85 275.11,574.72 279.14,571.74 C281.72,569.82 284.33,569.77 402.85,569.64 C516.30,569.51 524.04,569.39 525.66,567.77 C528.30,565.13 526.44,560.98 521.50,558.46 C516.33,555.83 501.23,545.90 498.00,543.01 C496.62,541.78 493.92,539.59 492.00,538.14 C490.08,536.70 488.27,535.26 488.00,534.95 C487.73,534.64 486.53,533.72 485.35,532.92 C475.40,526.14 446.93,497.33 440.08,487.13 C438.75,485.13 436.15,481.65 434.33,479.40 C432.50,477.14 431.00,474.97 431.00,474.58 C431.00,474.18 429.11,471.62 426.81,468.89 C423.16,464.56 422.57,463.18 422.20,458.12 C421.48,448.10 425.98,443.00 435.55,443.00 C439.52,443.00 440.66,443.49 443.35,446.32 C445.08,448.15 447.62,451.56 449.00,453.90 C450.38,456.24 452.18,458.91 453.01,459.83 C453.84,460.75 457.08,464.88 460.20,469.00 C470.42,482.51 478.31,491.19 491.16,503.08 C502.37,513.45 519.07,527.00 520.62,527.00 C520.93,527.00 523.89,529.06 527.20,531.57 C535.53,537.91 564.69,553.17 578.50,558.42 C582.35,559.89 587.30,561.92 589.50,562.95 C591.70,563.97 595.01,565.12 596.85,565.50 C598.70,565.89 601.06,567.06 602.10,568.10 C603.53,569.53 605.44,570.00 609.80,570.00 C615.06,570.00 615.91,570.31 618.80,573.30 C621.63,576.22 622.00,577.24 622.00,582.26 C622.00,587.13 621.58,588.41 619.01,591.34 C616.44,594.26 615.23,594.82 610.57,595.20 C607.58,595.45 603.19,596.57 600.81,597.69 C598.44,598.81 594.03,600.89 591.00,602.32 C583.20,606.00 569.86,611.00 567.83,611.00 C566.89,611.00 565.82,611.49 565.45,612.08 C565.08,612.68 562.92,614.02 560.64,615.05 C558.36,616.09 554.70,618.01 552.50,619.31 C550.30,620.61 546.47,622.81 544.00,624.20 C533.44,630.13 531.26,631.52 526.82,635.16 C524.25,637.27 521.88,639.00 521.56,639.00 C521.25,639.00 515.99,642.89 509.88,647.64 C488.40,664.34 465.37,689.32 449.35,713.29 C447.07,716.71 444.10,720.53 442.74,721.79 Z" fill="rgb(63,63,63)"/>
<path d="M 475.50 904.12 C478.25,903.48 487.92,902.10 497.00,901.06 C506.08,900.01 514.68,898.71 516.12,898.15 C517.56,897.60 521.34,896.67 524.54,896.08 C527.73,895.49 531.05,894.36 531.93,893.56 C532.81,892.77 536.38,891.66 539.86,891.10 C543.35,890.54 546.72,889.68 547.35,889.18 C547.98,888.69 550.66,887.76 553.31,887.12 C555.95,886.47 559.77,885.06 561.79,883.97 C563.82,882.89 566.09,882.00 566.85,882.00 C567.61,882.00 569.86,881.13 571.86,880.08 C573.86,879.02 576.62,877.90 578.00,877.60 C579.38,877.30 581.81,875.92 583.41,874.53 C585.00,873.14 587.34,872.00 588.60,872.00 C589.86,872.00 591.47,871.17 592.19,870.16 C592.91,869.15 594.85,867.99 596.49,867.58 C598.14,867.17 599.94,866.46 600.49,866.01 C601.05,865.55 604.59,863.54 608.36,861.54 C615.46,857.77 619.30,855.28 624.59,851.00 C626.29,849.62 628.54,847.95 629.59,847.27 C643.18,838.52 647.39,835.39 652.50,830.26 C655.80,826.94 661.49,821.79 665.13,818.81 C670.85,814.15 677.61,806.95 691.39,790.87 C698.44,782.64 711.53,765.06 712.33,762.75 C712.66,761.79 713.36,761.00 713.87,761.00 C714.38,761.00 715.32,759.76 715.94,758.25 C716.57,756.74 718.18,753.70 719.52,751.50 C720.86,749.30 722.53,746.38 723.22,745.00 C723.92,743.62 725.28,741.63 726.24,740.56 C727.21,739.50 728.00,737.88 728.00,736.97 C728.00,736.06 728.90,734.50 730.00,733.50 C731.10,732.50 732.00,731.15 732.00,730.49 C732.00,729.84 733.12,727.18 734.50,724.60 C735.88,722.01 737.00,718.86 737.00,717.60 C737.00,716.34 737.84,714.55 738.88,713.61 C739.91,712.68 741.01,710.35 741.32,708.44 C741.63,706.53 742.81,703.79 743.94,702.35 C745.07,700.91 746.00,698.50 746.00,697.00 C746.00,695.50 746.86,693.18 747.91,691.85 C748.96,690.51 750.15,687.19 750.55,684.46 C750.95,681.73 752.12,677.93 753.14,676.01 C754.20,674.03 755.00,670.49 755.00,667.80 C755.00,664.98 755.82,661.48 757.03,659.16 C758.15,657.02 759.33,652.84 759.65,649.88 C759.98,646.92 761.09,641.93 762.12,638.78 C763.31,635.18 764.00,630.19 764.00,625.28 C764.00,621.00 764.66,610.70 765.46,602.38 C766.56,590.95 766.68,584.48 765.95,575.88 C765.03,565.02 764.60,559.14 763.46,541.75 C763.18,537.49 762.46,532.77 761.86,531.25 C761.27,529.74 760.38,524.78 759.90,520.23 C759.40,515.53 758.16,510.27 757.01,508.02 C755.91,505.85 755.00,502.73 755.00,501.07 C755.00,499.42 754.34,496.13 753.54,493.77 C752.74,491.40 751.58,487.15 750.97,484.32 C750.37,481.49 749.00,477.46 747.94,475.37 C746.87,473.29 746.00,470.97 746.00,470.24 C746.00,469.50 745.14,467.23 744.09,465.20 C741.06,459.36 737.23,450.73 736.44,448.00 C735.49,444.71 726.12,426.69 725.00,426.00 C724.52,425.70 723.63,424.34 723.02,422.98 C721.42,419.38 719.54,416.26 717.78,414.26 C716.93,413.29 715.95,411.55 715.59,410.38 C715.24,409.22 714.06,407.46 712.97,406.48 C711.89,405.49 711.00,404.31 711.00,403.84 C711.00,402.85 702.16,389.97 700.47,388.50 C699.83,387.95 695.45,382.77 690.73,377.00 C680.74,364.77 677.22,361.03 662.96,347.50 C651.50,336.62 649.85,335.22 642.49,330.03 C639.78,328.12 636.87,325.95 636.03,325.21 C633.02,322.56 621.08,314.00 620.39,314.00 C620.00,314.00 618.30,312.97 616.59,311.72 C614.89,310.46 612.38,308.89 611.00,308.22 C609.62,307.56 604.00,304.53 598.50,301.49 C593.00,298.45 587.38,295.46 586.00,294.86 C584.62,294.25 581.86,292.91 579.86,291.88 C577.86,290.85 575.67,290.00 574.99,290.00 C573.88,290.00 566.89,287.24 558.50,283.49 C554.73,281.81 549.66,280.36 544.50,279.50 C542.30,279.13 539.83,278.23 539.00,277.50 C538.17,276.77 533.95,275.44 529.62,274.55 C525.28,273.66 521.01,272.55 520.12,272.08 C519.23,271.61 514.45,270.70 509.50,270.05 C504.55,269.41 499.59,268.29 498.48,267.57 C497.10,266.67 488.37,265.85 470.98,264.98 C456.97,264.27 444.83,263.69 444.00,263.69 C438.26,263.66 403.55,266.31 399.50,267.08 C396.75,267.61 390.79,268.73 386.25,269.57 C381.72,270.41 375.46,271.98 372.35,273.05 C369.23,274.12 365.19,275.00 363.37,275.00 C361.55,275.00 358.13,275.89 355.78,276.97 C348.01,280.54 338.11,284.11 334.27,284.71 C332.20,285.03 329.38,286.06 328.00,287.00 C326.62,287.94 324.18,289.03 322.56,289.42 C320.94,289.81 318.47,290.95 317.06,291.94 C315.65,292.94 313.04,294.07 311.26,294.45 C309.48,294.84 307.77,295.57 307.45,296.08 C307.14,296.59 304.09,298.42 300.69,300.14 C285.28,307.96 280.13,311.03 270.82,317.91 C266.24,321.30 261.75,324.69 260.83,325.46 C259.91,326.22 258.11,327.39 256.83,328.06 C251.90,330.62 240.62,340.50 225.30,355.69 C209.00,371.85 206.97,374.05 198.73,384.50 C196.13,387.80 193.42,391.17 192.70,392.00 C191.99,392.83 190.53,394.80 189.45,396.40 C188.38,397.99 186.82,400.28 186.00,401.49 C178.48,412.47 176.63,415.38 174.85,419.00 C174.17,420.38 172.86,422.40 171.94,423.50 C170.24,425.52 168.33,428.86 165.55,434.68 C164.71,436.43 163.57,438.15 163.02,438.49 C162.46,438.84 162.00,439.88 161.99,440.81 C161.99,441.74 160.87,444.75 159.52,447.50 C158.17,450.25 157.05,453.22 157.03,454.10 C157.01,454.98 156.10,456.73 155.00,458.00 C153.90,459.27 153.00,461.02 152.99,461.90 C152.99,462.78 151.88,465.30 150.53,467.50 C149.17,469.70 148.05,472.86 148.03,474.53 C148.01,476.19 147.30,478.55 146.44,479.78 C145.59,481.00 144.44,484.81 143.89,488.25 C143.34,491.69 142.28,495.44 141.53,496.58 C140.78,497.73 139.88,500.88 139.52,503.58 C139.16,506.29 138.03,511.42 137.00,515.00 C135.97,518.58 134.38,526.90 133.47,533.50 C132.55,540.10 131.42,548.20 130.94,551.50 C128.90,565.63 130.34,624.45 132.90,631.26 C133.36,632.49 134.07,637.10 134.47,641.50 C134.87,645.90 136.28,652.82 137.60,656.88 C138.92,660.94 140.00,665.12 140.00,666.18 C140.00,667.23 140.66,669.37 141.46,670.92 C142.26,672.47 143.35,676.46 143.89,679.78 C144.42,683.11 145.50,687.11 146.29,688.67 C147.08,690.22 147.98,693.19 148.30,695.27 C148.62,697.34 149.81,700.21 150.94,701.65 C152.07,703.09 153.00,705.16 153.00,706.24 C153.00,707.32 154.12,709.55 155.50,711.18 C156.88,712.82 158.01,715.13 158.03,716.33 C158.05,717.52 158.72,719.37 159.53,720.44 C160.34,721.51 161.00,723.16 161.00,724.11 C161.00,725.15 163.92,731.39 167.02,737.38 C166.13,735.79 165.24,734.21 164.55,733.00 C161.84,728.24 153.47,711.23 150.53,704.50 C148.72,700.37 144.41,687.40 141.05,676.00 C135.05,655.62 131.44,636.78 130.03,618.48 C129.48,611.34 128.56,600.56 127.99,594.52 C127.27,586.86 127.28,579.91 128.03,571.52 C128.61,564.91 129.49,554.75 129.98,548.95 C131.00,536.78 133.30,522.76 136.05,512.00 C137.11,507.88 138.26,503.15 138.61,501.50 C140.67,491.85 146.90,472.09 150.05,465.26 C151.12,462.93 152.00,460.56 152.00,460.00 C152.00,459.43 152.44,458.19 152.97,457.24 C153.50,456.28 157.04,449.20 160.82,441.50 C183.03,396.36 217.81,354.58 257.54,325.32 C274.00,313.20 280.38,309.14 297.50,299.89 C317.12,289.28 345.27,277.94 363.00,273.51 C394.66,265.60 420.66,262.00 446.08,262.00 C460.38,262.00 499.14,265.34 503.32,266.93 C504.70,267.46 510.48,268.81 516.16,269.94 C528.40,272.38 539.79,275.30 542.53,276.70 C543.61,277.26 546.73,278.26 549.44,278.92 C560.25,281.56 584.82,292.29 604.29,302.87 C623.30,313.20 650.34,333.46 667.88,350.50 C705.59,387.13 732.67,428.55 748.96,474.50 C757.70,499.17 762.95,523.03 765.69,550.50 C772.70,620.97 759.02,685.86 724.47,746.08 C710.62,770.20 693.51,792.67 674.59,811.57 C651.24,834.90 640.60,843.17 606.50,864.53 C601.94,867.38 582.96,877.06 579.00,878.56 C577.08,879.28 572.12,881.29 568.00,883.02 C547.71,891.54 519.25,899.80 504.50,901.44 C501.20,901.81 494.90,902.78 490.50,903.60 C485.31,904.56 472.22,905.17 457.92,905.41 C465.93,905.17 473.25,904.65 475.50,904.12 ZM 422.36 459.88 C422.77,463.58 423.62,465.11 426.81,468.89 C429.11,471.62 431.00,474.18 431.00,474.58 C431.00,474.97 432.50,477.14 434.33,479.40 C436.15,481.65 438.75,485.13 440.08,487.13 C446.93,497.33 475.40,526.14 485.35,532.92 C486.53,533.72 487.73,534.64 488.00,534.95 C488.27,535.26 490.08,536.70 492.00,538.14 C493.92,539.59 496.62,541.78 498.00,543.01 C501.23,545.90 516.33,555.83 521.50,558.46 C526.44,560.98 528.30,565.13 525.66,567.77 C524.04,569.39 516.30,569.51 402.85,569.64 C284.33,569.77 281.72,569.82 279.14,571.74 C275.11,574.72 273.87,577.85 274.30,583.91 C274.49,586.52 274.73,588.03 275.45,589.35 C271.83,583.76 272.42,577.11 277.44,572.09 L 281.03 568.50 L 402.27 567.98 C468.94,567.70 523.61,567.36 523.75,567.23 C523.89,567.10 524.00,565.95 524.00,564.67 C524.00,562.34 520.30,558.00 518.32,558.00 C517.73,558.00 513.04,555.02 507.88,551.37 C479.09,531.01 454.42,507.74 437.23,484.71 C423.36,466.15 422.83,465.58 422.36,459.88 ZM 418.48 869.56 C414.08,868.87 409.58,867.81 408.48,867.20 C406.03,865.83 393.07,864.08 392.48,865.04 C391.78,866.16 383.72,864.33 382.56,862.79 C382.10,862.18 380.84,861.53 378.23,860.67 C390.49,863.90 401.33,865.69 421.00,867.99 C425.12,868.47 440.42,868.69 455.00,868.49 C477.93,868.16 483.32,867.77 495.00,865.61 C507.41,863.32 523.05,859.69 533.01,856.94 C533.00,856.96 533.00,856.98 533.00,857.00 C533.00,858.12 526.28,860.63 521.00,861.50 C518.53,861.90 515.30,862.85 513.84,863.60 C512.37,864.35 506.97,865.43 501.84,866.00 C496.70,866.58 490.92,867.59 489.00,868.25 C487.03,868.93 480.14,869.47 473.25,869.48 C466.52,869.49 461.00,869.84 461.00,870.25 C461.00,871.46 427.22,870.91 418.48,869.56 ZM 501.69 303.37 C498.30,302.81 493.73,302.26 489.50,301.95 C448.02,298.90 445.99,298.83 431.73,300.01 C423.90,300.66 412.55,301.56 406.50,302.01 C402.88,302.28 398.30,302.86 394.19,303.54 C398.61,302.60 402.01,302.00 403.34,302.00 C405.26,302.00 406.98,301.60 407.17,301.12 C407.70,299.72 434.90,296.99 447.76,297.06 C464.64,297.14 491.00,299.62 491.00,301.12 C491.00,301.61 492.24,302.01 493.75,302.02 C495.14,302.02 498.58,302.62 501.69,303.37 ZM 441.16 905.53 C424.24,905.47 409.26,904.89 407.43,903.76 C406.86,903.41 402.37,902.61 397.45,901.98 C383.46,900.20 362.27,894.86 348.40,890.07 C350.69,890.75 352.63,891.00 354.82,891.00 C357.54,891.00 361.19,891.82 363.35,892.92 C365.42,893.98 369.00,895.14 371.31,895.49 C373.61,895.85 377.98,896.97 381.00,897.97 C384.02,898.98 390.55,900.09 395.50,900.44 C400.45,900.80 407.42,901.58 411.00,902.18 C424.49,904.45 431.53,905.32 441.16,905.53 ZM 619.01 572.66 C621.61,575.63 622.00,576.84 622.00,582.00 C621.99,577.21 621.58,576.17 618.80,573.30 C615.91,570.31 615.06,570.00 609.80,570.00 C605.44,570.00 603.53,569.53 602.10,568.10 C601.06,567.06 598.70,565.89 596.85,565.50 C595.01,565.12 591.70,563.97 589.50,562.95 C587.30,561.92 582.35,559.89 578.50,558.42 C576.67,557.73 574.58,556.86 572.30,555.86 C577.15,557.98 581.15,559.50 583.50,560.04 C585.70,560.53 592.22,562.54 598.00,564.49 C603.78,566.45 610.19,568.32 612.26,568.65 C614.82,569.07 616.97,570.35 619.01,572.66 ZM 708.93 696.78 C715.41,681.29 720.66,664.69 725.19,645.73 C724.98,646.63 724.77,647.55 724.55,648.50 C723.13,654.55 721.98,661.21 721.99,663.30 C721.99,665.39 721.34,668.38 720.53,669.94 C719.72,671.51 718.76,674.63 718.40,676.88 C718.04,679.12 717.13,681.48 716.38,682.10 C715.62,682.73 715.00,683.83 715.00,684.54 C715.00,685.25 714.64,685.98 714.20,686.17 C713.75,686.35 711.44,691.00 709.05,696.50 ZM 731.13 563.83 C730.83,556.64 730.32,550.54 729.57,546.50 C728.65,541.55 727.43,534.58 726.85,531.00 C726.47,528.64 725.63,524.71 724.56,520.13 C725.91,525.11 727.41,529.77 728.28,531.50 C730.28,535.49 730.89,540.48 731.13,563.83 ZM 579.56 607.16 C583.52,605.62 587.74,603.86 591.00,602.32 C594.03,600.89 598.44,598.81 600.81,597.69 C603.19,596.57 607.58,595.45 610.57,595.20 C612.83,595.02 614.27,594.79 615.46,594.28 C614.19,595.03 612.78,595.63 611.26,596.04 C608.64,596.76 598.11,600.42 587.87,604.18 C584.95,605.24 582.13,606.26 579.56,607.16 ZM 680.79 747.72 C673.32,758.47 664.96,768.89 655.41,779.48 C662.48,771.64 673.66,757.58 680.79,747.72 ZM 729.22 625.58 C730.22,617.52 730.90,606.62 731.22,595.34 C731.09,608.16 730.59,616.60 729.22,625.58 ZM 224.27 813.38 C240.98,829.74 259.98,845.58 273.48,853.80 C260.20,845.71 240.67,829.71 224.92,814.02 C224.70,813.81 224.49,813.59 224.27,813.38 ZM 544.96 315.40 C532.22,310.71 520.34,307.10 515.00,306.38 C512.96,306.11 509.85,305.43 507.43,304.74 C509.82,305.27 512.26,305.76 514.00,306.05 C521.37,307.30 532.92,310.87 544.96,315.40 ZM 628.74 364.64 C612.29,351.03 594.21,338.75 576.38,329.28 C594.03,338.52 612.18,350.90 628.74,364.64 ZM 345.28 888.95 C340.96,887.35 337.63,885.85 335.87,884.62 C335.74,884.53 335.60,884.44 335.46,884.35 C336.22,884.67 337.00,885.04 337.75,885.42 C340.79,886.96 343.21,888.11 345.28,888.95 ZM 376.45 307.75 C366.07,310.54 357.03,313.19 355.24,314.01 C357.65,312.82 366.76,310.22 376.45,307.75 ZM 715.30 486.96 C712.92,480.48 709.81,473.03 706.51,465.81 C709.28,471.72 711.76,477.38 713.31,481.50 C714.02,483.38 714.67,485.18 715.30,486.96 ZM 183.39 764.36 C187.51,770.27 192.44,777.10 196.44,782.39 C191.96,776.66 187.70,770.77 183.39,764.36 ZM 369.52 858.21 C367.49,857.68 365.16,857.10 362.50,856.45 C361.03,856.09 359.52,855.67 358.23,855.28 C358.48,855.34 358.74,855.39 359.00,855.44 C360.92,855.81 365.42,856.98 369.00,858.05 ZM 538.13 855.45 C540.21,854.80 541.71,854.25 542.41,853.85 C542.69,853.69 543.13,853.49 543.67,853.25 C543.02,853.57 542.60,853.84 542.49,854.02 C542.22,854.45 540.33,855.06 538.13,855.45 ZM 172.03 746.46 C172.44,747.13 172.81,747.71 173.13,748.15 C174.16,749.61 175.00,751.07 175.00,751.40 C175.00,751.45 175.03,751.54 175.07,751.66 C174.02,749.94 173.07,748.31 172.03,746.46 ZM 548.35 851.39 C548.71,851.26 549.06,851.13 549.41,851.01 C555.51,848.88 562.80,845.71 570.46,841.94 C562.27,845.98 554.55,849.32 548.35,851.39 ZM 423.42 449.26 C425.32,445.07 429.34,443.00 435.55,443.00 C429.40,443.00 425.35,445.10 423.42,449.26 ZM 276.90 591.28 C277.31,591.71 277.78,592.16 278.33,592.66 L 279.92 594.12 L 279.08 593.42 C278.28,592.74 277.55,592.02 276.90,591.28 ZM 349.47 851.69 C347.76,850.99 345.81,850.21 343.82,849.43 C337.23,846.85 330.98,844.15 325.19,841.36 C331.02,844.17 337.30,846.88 344.00,849.49 C345.96,850.26 347.85,851.02 349.47,851.69 Z" fill="rgb(82,82,82)"/>
<path d="M 481.50 905.98 C472.48,906.85 436.70,907.06 421.50,906.33 C418.20,906.17 408.98,905.09 401.00,903.92 C357.56,897.57 318.29,883.32 280.50,860.17 C255.75,845.01 241.50,833.77 221.49,813.61 C192.64,784.55 171.96,754.93 155.62,719.31 C145.72,697.71 143.09,690.06 136.50,663.50 C130.52,639.46 131.50,645.36 127.42,608.50 C125.53,591.35 125.82,573.45 128.40,549.00 C132.59,509.25 144.21,469.59 161.28,436.83 C186.10,389.19 219.91,350.12 262.50,319.87 C290.26,300.16 316.91,286.80 349.00,276.54 C366.07,271.07 368.94,270.27 381.00,267.60 C414.69,260.14 451.93,258.74 489.92,263.51 C501.81,265.00 506.43,265.94 529.90,271.66 C580.00,283.85 630.48,312.19 669.40,349.98 C717.63,396.80 748.59,452.24 762.40,516.50 C766.45,535.36 770.33,575.69 769.62,591.50 C766.99,649.75 753.20,698.71 726.07,746.20 C705.03,783.01 674.87,817.64 642.50,842.14 C594.67,878.33 539.03,900.40 481.50,905.98 ZM 441.16 905.53 C444.50,905.60 448.16,905.59 452.50,905.53 C454.31,905.51 456.13,905.47 457.92,905.41 C472.22,905.17 485.31,904.56 490.50,903.60 C494.90,902.78 501.20,901.81 504.50,901.44 C519.25,899.80 547.71,891.54 568.00,883.02 C572.12,881.29 577.08,879.28 579.00,878.56 C582.96,877.06 601.94,867.38 606.50,864.53 C640.60,843.17 651.24,834.90 674.59,811.57 C693.51,792.67 710.62,770.20 724.47,746.08 C759.02,685.86 772.70,620.97 765.69,550.50 C762.95,523.03 757.70,499.17 748.96,474.50 C732.67,428.55 705.59,387.13 667.88,350.50 C650.34,333.46 623.30,313.20 604.29,302.87 C584.82,292.29 560.25,281.56 549.44,278.92 C546.73,278.26 543.61,277.26 542.53,276.70 C539.79,275.30 528.40,272.38 516.16,269.94 C510.48,268.81 504.70,267.46 503.32,266.93 C499.14,265.34 460.38,262.00 446.08,262.00 C420.66,262.00 394.66,265.60 363.00,273.51 C345.27,277.94 317.12,289.28 297.50,299.89 C280.38,309.14 274.00,313.20 257.54,325.32 C217.81,354.58 183.03,396.36 160.82,441.50 C157.04,449.20 153.50,456.28 152.97,457.24 C152.44,458.19 152.00,459.43 152.00,460.00 C152.00,460.56 151.12,462.93 150.05,465.26 C146.90,472.09 140.67,491.85 138.61,501.50 C138.26,503.15 137.11,507.88 136.05,512.00 C133.30,522.76 131.00,536.78 129.98,548.95 C129.49,554.75 128.61,564.91 128.03,571.52 C127.28,579.91 127.27,586.86 127.99,594.52 C128.56,600.56 129.48,611.34 130.03,618.48 C131.44,636.78 135.05,655.62 141.05,676.00 C144.41,687.40 148.72,700.37 150.53,704.50 C153.47,711.23 161.84,728.24 164.55,733.00 C165.24,734.21 166.13,735.79 167.02,737.38 C168.80,740.83 170.65,744.20 172.03,746.46 C173.07,748.31 174.02,749.94 175.07,751.66 C175.62,752.96 179.06,758.15 183.39,764.36 C187.70,770.77 191.96,776.66 196.44,782.39 C197.59,783.91 198.67,785.31 199.63,786.52 C206.19,794.79 214.87,804.17 224.27,813.38 C224.49,813.59 224.70,813.81 224.92,814.02 C240.54,829.58 259.88,845.45 273.15,853.60 C273.26,853.67 273.37,853.74 273.48,853.80 L 273.50 853.81 L 273.50 853.81 C283.51,859.91 294.57,866.31 297.50,867.70 C299.15,868.48 301.17,869.56 302.00,870.09 C303.59,871.10 317.62,877.88 324.78,881.08 C327.13,882.14 329.94,883.00 331.03,883.00 C331.80,883.00 333.56,883.55 335.46,884.35 C335.60,884.44 335.74,884.53 335.87,884.62 C337.63,885.85 340.96,887.35 345.28,888.95 C346.41,889.41 347.44,889.78 348.40,890.07 C362.27,894.86 383.46,900.20 397.45,901.98 C402.37,902.61 406.86,903.41 407.43,903.76 C409.26,904.89 424.24,905.47 441.16,905.53 ZM 442.94 723.39 C436.41,728.89 423.71,725.72 420.54,717.81 C417.34,709.82 419.13,703.97 428.90,690.50 C455.53,653.75 485.70,625.18 520.25,604.00 C523.39,602.08 525.82,600.05 525.64,599.50 C525.44,598.84 483.51,598.31 403.92,597.96 C316.30,597.57 281.77,597.10 279.87,596.28 C275.81,594.52 272.92,589.67 272.29,583.53 C271.59,576.70 272.97,573.23 277.67,570.02 C281.22,567.59 281.86,567.52 307.90,566.72 C322.53,566.27 366.23,566.10 405.00,566.35 C481.16,566.82 521.11,566.17 521.69,564.44 C522.17,562.99 519.62,560.69 512.00,555.70 C479.74,534.55 450.26,506.12 428.34,475.00 C422.06,466.10 419.00,459.68 419.00,455.44 C419.00,448.60 426.11,441.32 433.78,440.32 C438.90,439.64 443.16,442.73 449.21,451.50 C463.21,471.81 479.13,490.24 495.00,504.52 C502.69,511.45 524.71,527.89 534.22,533.81 C554.99,546.74 589.43,561.53 613.68,567.93 C621.35,569.96 625.78,579.08 623.07,587.28 C621.32,592.59 618.06,594.87 606.34,599.01 C600.38,601.11 591.45,604.26 586.50,606.00 C575.90,609.72 546.95,623.72 539.17,628.89 C536.18,630.87 532.10,633.58 530.12,634.91 C507.35,650.09 479.85,674.96 467.00,692.00 C465.62,693.83 462.30,698.06 459.61,701.41 C456.92,704.76 452.76,710.49 450.38,714.14 C447.99,717.80 444.65,721.96 442.94,723.39 ZM 442.74 721.79 C444.10,720.53 447.07,716.71 449.35,713.29 C465.37,689.32 488.40,664.34 509.88,647.64 C515.99,642.89 521.25,639.00 521.56,639.00 C521.88,639.00 524.25,637.27 526.82,635.16 C531.26,631.52 533.44,630.13 544.00,624.20 C546.47,622.81 550.30,620.61 552.50,619.31 C554.70,618.01 558.36,616.09 560.64,615.05 C562.92,614.02 565.08,612.68 565.45,612.08 C565.82,611.49 566.89,611.00 567.83,611.00 C569.01,611.00 574.03,609.30 579.56,607.16 L 579.56 607.16 C582.13,606.26 584.95,605.24 587.87,604.18 C598.11,600.42 608.64,596.76 611.26,596.04 C612.78,595.63 614.19,595.03 615.46,594.28 C616.72,593.73 617.68,592.85 619.01,591.34 C621.58,588.41 622.00,587.13 622.00,582.26 C622.00,582.17 622.00,582.09 622.00,582.00 C622.00,576.84 621.61,575.63 619.01,572.66 C616.97,570.35 614.82,569.07 612.26,568.65 C610.19,568.32 603.78,566.45 598.00,564.49 C592.22,562.54 585.70,560.53 583.50,560.04 C581.15,559.50 577.15,557.98 572.30,555.86 C557.34,549.29 534.43,537.07 527.20,531.57 C523.89,529.06 520.93,527.00 520.62,527.00 C519.07,527.00 502.37,513.45 491.16,503.08 C478.31,491.19 470.42,482.51 460.20,469.00 C457.08,464.88 453.84,460.75 453.01,459.83 C452.18,458.91 450.38,456.24 449.00,453.90 C447.62,451.56 445.08,448.15 443.35,446.32 C440.66,443.49 439.52,443.00 435.55,443.00 C429.40,443.00 425.35,445.10 423.42,449.26 C422.35,451.58 421.94,454.54 422.20,458.12 C422.25,458.76 422.30,459.34 422.36,459.88 C422.83,465.58 423.36,466.15 437.23,484.71 C454.42,507.74 479.09,531.01 507.88,551.37 C513.04,555.02 517.73,558.00 518.32,558.00 C520.30,558.00 524.00,562.34 524.00,564.67 C524.00,565.95 523.89,567.10 523.75,567.23 C523.61,567.36 468.94,567.70 402.27,567.98 L 281.03 568.50 L 277.44 572.09 C272.42,577.11 271.83,583.76 275.45,589.35 C275.80,590.00 276.27,590.61 276.90,591.28 C277.55,592.02 278.28,592.74 279.08,593.42 L 279.92 594.12 L 281.97 596.00 L 402.92 596.00 C481.37,596.00 524.80,596.35 526.51,597.00 C530.31,598.45 529.34,600.97 523.64,604.50 C486.14,627.73 456.71,655.39 430.56,692.00 C422.24,703.64 421.73,704.91 422.21,712.76 C422.64,719.81 423.74,721.41 429.60,723.57 C434.56,725.40 439.61,724.71 442.74,721.79 Z" fill="rgb(147,147,147)"/>
<path d="M 0.00 576.00 L 0.00 0.00 L 448.00 0.00 L 896.00 0.00 L 896.00 576.00 L 896.00 1152.00 L 448.00 1152.00 L 0.00 1152.00 L 0.00 576.00 ZM 481.50 905.98 C539.03,900.40 594.67,878.33 642.50,842.14 C674.87,817.64 705.03,783.01 726.07,746.20 C753.20,698.71 766.99,649.75 769.62,591.50 C770.33,575.69 766.45,535.36 762.40,516.50 C748.59,452.24 717.63,396.80 669.40,349.98 C630.48,312.19 580.00,283.85 529.90,271.66 C506.43,265.94 501.81,265.00 489.92,263.51 C451.93,258.74 414.69,260.14 381.00,267.60 C368.94,270.27 366.07,271.07 349.00,276.54 C316.91,286.80 290.26,300.16 262.50,319.87 C219.91,350.12 186.10,389.19 161.28,436.83 C144.21,469.59 132.59,509.25 128.40,549.00 C125.82,573.45 125.53,591.35 127.42,608.50 C131.50,645.36 130.52,639.46 136.50,663.50 C143.09,690.06 145.72,697.71 155.62,719.31 C171.96,754.93 192.64,784.55 221.49,813.61 C241.50,833.77 255.75,845.01 280.50,860.17 C318.29,883.32 357.56,897.57 401.00,903.92 C408.98,905.09 418.20,906.17 421.50,906.33 C436.70,907.06 472.48,906.85 481.50,905.98 ZM 421.00 867.99 C396.60,865.14 385.78,863.07 369.00,858.05 C365.42,856.98 360.92,855.81 359.00,855.44 C357.08,855.07 355.05,854.41 354.50,853.98 C353.95,853.55 349.23,851.53 344.00,849.49 C332.13,844.87 321.55,839.91 312.50,834.73 C303.85,829.78 280.08,813.94 274.01,809.09 C265.30,802.13 249.47,788.20 247.05,785.37 C245.71,783.79 240.82,778.24 236.20,773.03 C214.35,748.46 197.71,721.58 182.93,687.03 C180.22,680.70 174.29,660.76 170.88,646.50 C163.71,616.56 163.09,563.23 169.51,529.00 C171.27,519.63 176.15,500.57 178.99,492.00 C185.51,472.32 199.59,444.16 212.85,424.32 C228.29,401.19 260.41,368.17 283.28,351.89 C296.45,342.51 328.49,324.48 339.00,320.52 C348.75,316.85 353.65,314.89 355.06,314.10 C356.68,313.19 372.42,308.70 387.00,304.98 C391.67,303.79 400.45,302.46 406.50,302.01 C412.55,301.56 423.90,300.66 431.73,300.01 C445.99,298.83 448.02,298.90 489.50,301.95 C496.10,302.43 503.52,303.49 506.00,304.31 C508.48,305.12 512.53,306.05 515.00,306.38 C521.66,307.27 538.50,312.68 554.50,319.06 C598.77,336.72 649.75,376.71 676.07,414.42 C682.29,423.34 689.00,433.27 689.00,433.57 C689.00,433.73 690.72,436.48 692.82,439.68 C700.84,451.90 713.92,480.79 718.32,496.00 C721.61,507.37 725.84,524.73 726.85,531.00 C727.43,534.58 728.65,541.55 729.57,546.50 C732.67,563.24 731.75,615.45 728.04,633.00 C718.62,677.64 706.12,709.24 685.10,741.50 C679.25,750.48 664.17,769.77 655.41,779.48 C647.25,788.51 640.48,794.69 621.00,810.88 C604.76,824.38 570.19,843.76 549.41,851.01 C546.61,851.98 543.46,853.26 542.41,853.85 C538.70,855.93 513.33,862.23 495.00,865.61 C483.32,867.77 477.93,868.16 455.00,868.49 C440.42,868.69 425.12,868.47 421.00,867.99 ZM 442.94 723.39 C444.65,721.96 447.99,717.80 450.38,714.14 C452.76,710.49 456.92,704.76 459.61,701.41 C462.30,698.06 465.62,693.83 467.00,692.00 C479.85,674.96 507.35,650.09 530.12,634.91 C532.10,633.58 536.18,630.87 539.17,628.89 C546.95,623.72 575.90,609.72 586.50,606.00 C591.45,604.26 600.38,601.11 606.34,599.01 C618.06,594.87 621.32,592.59 623.07,587.28 C625.78,579.08 621.35,569.96 613.68,567.93 C589.43,561.53 554.99,546.74 534.22,533.81 C524.71,527.89 502.69,511.45 495.00,504.52 C479.13,490.24 463.21,471.81 449.21,451.50 C443.16,442.73 438.90,439.64 433.78,440.32 C426.11,441.32 419.00,448.60 419.00,455.44 C419.00,459.68 422.06,466.10 428.34,475.00 C450.26,506.12 479.74,534.55 512.00,555.70 C519.62,560.69 522.17,562.99 521.69,564.44 C521.11,566.17 481.16,566.82 405.00,566.35 C366.23,566.10 322.53,566.27 307.90,566.72 C281.86,567.52 281.22,567.59 277.67,570.02 C272.97,573.23 271.59,576.70 272.29,583.53 C272.92,589.67 275.81,594.52 279.87,596.28 C281.77,597.10 316.30,597.57 403.92,597.96 C483.51,598.31 525.44,598.84 525.64,599.50 C525.82,600.05 523.39,602.08 520.25,604.00 C485.70,625.18 455.53,653.75 428.90,690.50 C419.13,703.97 417.34,709.82 420.54,717.81 C423.71,725.72 436.41,728.89 442.94,723.39 Z" fill="rgb(254,254,254)"/>
</g>
</svg>