<svg xmlns="http://www.w3.org/2000/svg" width="992" height="1056" viewBox="0 0 992 1056">
<g>
<path d="M 938.54 1019.26 C937.54,1021.87 936.40,1024.00 936.00,1024.00 C935.60,1024.00 934.46,1021.87 933.46,1019.26 C932.40,1016.49 929.54,1012.41 926.57,1009.43 C923.59,1006.46 919.51,1003.60 916.74,1002.54 C914.13,1001.54 912.00,1000.40 912.00,1000.00 C912.00,999.60 914.13,998.46 916.74,997.46 C922.92,995.10 931.10,986.92 933.46,980.74 C934.46,978.13 935.60,976.00 936.00,976.00 C936.40,976.00 937.54,978.13 938.54,980.74 C939.60,983.51 942.46,987.59 945.43,990.57 C948.41,993.54 952.49,996.40 955.26,997.46 C957.87,998.46 960.00,999.60 960.00,1000.00 C960.00,1000.40 957.87,1001.54 955.26,1002.54 C949.08,1004.90 940.90,1013.08 938.54,1019.26 ZM 659.00 216.00 C659.00,216.55 658.66,216.94 658.25,216.86 C657.84,216.79 656.38,216.55 655.00,216.33 C653.62,216.11 648.04,214.99 642.60,213.84 C633.68,211.97 630.64,211.82 612.10,212.39 C600.77,212.73 589.36,213.28 586.75,213.61 C583.75,213.98 582.00,213.82 582.00,213.16 C582.00,209.68 628.04,209.43 646.17,212.82 C652.59,214.02 658.10,215.00 658.42,215.00 C658.74,215.00 659.00,215.45 659.00,216.00 ZM 657.50 156.56 C662.81,157.69 663.04,157.83 659.50,157.79 C657.30,157.76 651.67,157.09 647.00,156.32 C637.45,154.73 596.12,154.04 581.50,155.23 C574.84,155.77 573.41,155.70 576.00,154.96 C577.92,154.40 590.06,153.67 602.97,153.32 C626.77,152.69 644.22,153.72 657.50,156.56 ZM 355.00 899.07 C355.00,900.47 351.49,900.08 341.00,897.51 C335.77,896.22 329.81,894.89 327.75,894.54 C325.69,894.19 324.00,893.48 324.00,892.95 C324.00,891.56 326.16,891.77 334.27,893.92 C338.25,894.97 343.75,896.14 346.50,896.50 C353.14,897.39 355.00,897.95 355.00,899.07 ZM 200.81 334.63 C198.01,336.57 195.42,337.42 191.70,337.61 C186.14,337.90 179.12,336.75 176.26,335.08 C174.67,334.16 174.71,334.06 176.68,334.03 C177.89,334.01 180.12,334.47 181.64,335.05 C183.16,335.63 186.97,336.12 190.10,336.13 C196.99,336.17 202.93,332.78 205.51,327.33 C206.42,325.41 207.45,324.12 207.79,324.46 C209.00,325.66 204.68,331.95 200.81,334.63 ZM 332.16 932.94 C334.28,933.78 334.17,933.87 331.00,933.87 C329.08,933.87 326.60,933.47 325.50,932.99 C324.40,932.52 321.37,931.85 318.77,931.50 C316.17,931.16 313.75,930.40 313.38,929.81 C312.94,929.09 313.68,928.93 315.61,929.32 C317.20,929.64 321.05,930.37 324.16,930.95 C327.28,931.53 330.88,932.42 332.16,932.94 ZM 163.00 292.12 C163.00,293.03 160.81,293.11 157.75,292.31 C155.75,291.79 155.36,289.99 157.25,290.01 C159.70,290.04 163.00,291.25 163.00,292.12 ZM 178.00 296.12 C178.00,297.02 177.18,297.05 173.25,296.29 C170.90,295.84 170.08,293.99 172.25,294.01 C174.70,294.04 178.00,295.25 178.00,296.12 ZM 155.00 290.11 C155.00,290.60 154.21,290.99 153.25,290.98 C151.07,290.97 148.35,289.32 149.16,288.51 C150.01,287.66 155.00,289.03 155.00,290.11 Z" fill="rgb(241,125,74)"/>
<path d="M 0.00 0.00 L 992.00 0.00 L 992.00 1056.00 L 0.00 1056.00 ZM 373.26 938.93 C391.66,940.10 400.25,940.10 415.05,938.95 C449.52,936.27 483.05,928.65 512.50,916.83 C526.16,911.34 547.32,901.14 554.29,896.68 C557.45,894.66 560.22,893.00 560.45,893.00 C560.67,893.00 565.03,890.23 570.14,886.86 C582.00,879.00 594.24,869.61 605.00,860.13 C616.61,849.89 669.51,797.43 673.10,792.60 C675.45,789.44 675.99,787.73 675.93,783.60 C675.89,780.79 675.54,777.70 675.16,776.73 C674.43,774.88 605.39,704.97 598.66,699.26 C595.38,696.48 594.05,696.01 589.66,696.04 C586.82,696.05 583.54,696.62 582.36,697.29 C581.19,697.95 568.36,710.15 553.86,724.40 C515.00,762.58 500.82,773.96 477.50,785.69 C455.81,796.60 436.69,802.54 415.00,805.13 C403.15,806.55 373.29,805.65 364.24,803.61 C353.20,801.12 346.89,799.34 342.70,797.56 L 338.91 795.94 L 340.98 793.03 C342.12,791.43 345.72,787.70 349.00,784.74 C358.61,776.04 363.95,768.05 368.96,754.86 C371.61,747.90 372.66,731.14 371.09,721.09 C369.75,712.48 363.39,698.55 356.91,690.00 C342.69,671.24 317.04,661.87 291.00,665.92 C277.44,668.03 262.86,676.46 250.79,689.16 C247.17,692.97 244.44,695.04 243.32,694.82 C240.98,694.37 238.83,688.33 235.34,672.45 C232.66,660.22 232.50,658.17 232.50,635.50 C232.50,609.55 233.02,605.49 239.07,584.00 C242.39,572.22 243.22,570.10 250.60,554.33 C258.52,537.42 269.30,521.76 282.74,507.69 C286.00,504.29 300.22,490.03 314.36,476.01 C342.51,448.07 343.19,447.13 340.93,438.75 C339.94,435.04 334.84,429.54 300.65,395.25 C279.12,373.66 260.08,355.32 258.35,354.50 C251.34,351.17 245.18,353.51 237.02,362.58 C235.11,364.71 222.06,378.18 208.02,392.51 C182.46,418.60 167.76,435.18 158.14,448.75 C155.31,452.74 153.00,456.14 153.00,456.31 C153.00,456.47 150.06,461.09 146.47,466.56 C138.86,478.13 124.93,505.90 119.15,521.00 C112.71,537.84 107.48,555.94 104.56,571.50 C95.44,620.06 97.02,675.01 108.86,720.68 C113.90,740.12 126.31,771.33 136.43,790.00 C138.37,793.58 139.95,797.40 139.95,798.50 C139.95,799.68 135.52,805.08 129.11,811.71 C113.06,828.33 107.98,839.81 108.02,859.46 C108.04,872.55 109.96,881.19 114.97,890.83 C122.52,905.35 133.47,916.23 147.72,923.38 C158.44,928.76 161.57,929.42 176.50,929.37 C188.89,929.34 191.36,929.04 198.00,926.75 C209.57,922.76 214.63,919.44 226.09,908.29 C231.91,902.63 237.39,898.00 238.26,898.00 C239.14,898.00 245.85,901.12 253.18,904.92 C260.50,908.73 271.23,913.75 277.00,916.08 C289.21,921.00 312.63,929.00 314.84,929.00 C315.67,929.00 317.74,929.42 319.43,929.93 C319.85,930.05 320.29,930.18 320.74,930.31 C318.62,929.91 316.64,929.53 315.61,929.32 C313.68,928.93 312.94,929.09 313.38,929.81 C313.75,930.40 316.17,931.16 318.77,931.50 C321.37,931.85 324.40,932.52 325.50,932.99 C326.60,933.47 329.08,933.87 331.00,933.87 C333.84,933.87 334.22,933.80 332.75,933.18 C345.58,935.83 361.73,938.19 373.26,938.93 ZM 750.40 701.03 C753.25,702.18 755.84,702.17 760.05,701.00 C762.85,700.23 770.06,693.37 794.15,668.59 C825.83,636.00 836.30,624.08 849.44,605.62 C874.11,570.95 895.08,523.98 902.63,486.50 C903.40,482.65 904.51,478.66 905.09,477.64 C908.22,472.16 909.88,399.22 907.34,379.50 C905.73,367.03 902.20,347.59 900.35,341.00 C891.54,309.62 885.69,294.11 873.42,269.63 L 866.97 256.75 L 877.79 245.59 C889.23,233.78 893.57,226.76 897.63,213.50 C900.16,205.24 900.15,184.07 897.62,175.50 C889.60,148.40 867.09,128.86 840.28,125.72 C815.87,122.86 797.16,130.47 777.15,151.40 C774.20,154.48 771.20,157.00 770.47,157.00 C769.75,157.00 762.48,153.65 754.33,149.56 C718.37,131.53 687.71,122.40 646.50,117.45 C608.16,112.84 576.56,114.93 533.00,124.96 C525.27,126.74 500.30,135.16 490.00,139.46 C479.60,143.80 456.73,155.50 448.34,160.77 C422.35,177.09 407.07,190.25 364.11,233.32 L 332.73 264.78 L 332.25 269.73 C331.93,273.09 332.28,275.60 333.35,277.58 C334.21,279.19 352.39,298.12 373.75,319.67 C407.18,353.38 413.09,358.93 416.23,359.51 C423.68,360.91 425.81,359.32 451.45,333.27 C489.29,294.81 507.03,280.35 531.00,268.45 C549.88,259.07 565.59,253.97 586.50,250.44 C598.81,248.37 631.95,248.93 644.00,251.42 C662.66,255.28 669.00,257.34 669.00,259.54 C669.00,260.27 665.39,264.16 660.98,268.18 C643.78,283.88 635.96,300.95 636.02,322.69 C636.05,337.05 641.22,351.39 651.01,364.32 C661.06,377.60 678.01,387.21 695.34,389.45 C717.96,392.38 736.94,385.75 754.60,368.76 C759.60,363.94 763.98,360.00 764.32,360.00 C766.67,360.00 771.19,374.53 773.93,390.88 C777.35,411.35 776.71,439.13 772.37,457.50 C764.55,490.68 751.42,516.78 730.14,541.42 C724.88,547.52 720.23,552.75 719.79,553.06 C716.48,555.40 668.52,604.03 667.41,606.17 C666.64,607.67 666.00,610.68 666.00,612.85 C666.00,616.27 666.78,617.65 671.83,623.15 C683.88,636.27 748.39,700.21 750.40,701.03 ZM 191.74 748.63 C180.61,759.63 170.99,768.93 170.36,769.30 C169.74,769.67 168.78,769.42 168.23,768.74 C166.45,766.53 160.07,753.24 156.97,745.27 C155.30,741.00 153.53,736.60 153.03,735.50 C150.37,729.63 146.38,715.59 141.97,696.50 C138.06,679.63 135.99,658.06 136.03,634.58 C136.06,613.30 137.01,602.32 140.51,582.84 C146.83,547.68 161.92,510.77 182.78,479.50 C195.79,459.99 205.21,448.83 228.99,424.74 L 248.50 404.97 L 257.99 405.00 L 273.24 420.55 C281.63,429.10 289.05,437.31 289.72,438.80 C292.26,444.43 290.83,446.45 269.51,467.50 C256.74,480.10 246.62,491.08 242.15,497.18 C211.79,538.55 197.98,574.77 195.12,620.50 C193.57,645.38 195.86,672.12 201.10,690.32 C202.24,694.27 203.54,698.85 203.99,700.50 C204.78,703.41 206.65,708.68 210.92,719.97 C212.06,722.99 212.76,726.17 212.48,727.05 C212.21,727.93 202.87,737.64 191.74,748.63 ZM 774.77 634.75 C760.89,648.48 759.01,650.00 755.93,649.98 C754.04,649.98 751.83,649.55 751.00,649.03 C750.17,648.52 742.19,640.76 733.25,631.80 C718.21,616.71 717.01,615.23 717.00,611.85 C717.00,608.44 718.25,606.97 736.60,588.85 C762.43,563.34 774.36,547.92 787.03,523.65 C800.36,498.12 806.44,480.39 811.11,453.50 C813.03,442.40 813.36,437.00 813.33,416.50 C813.31,401.92 812.82,390.15 812.09,386.50 C811.43,383.20 810.41,378.05 809.83,375.05 C809.24,372.05 808.41,368.90 807.98,368.05 C807.54,367.20 806.28,363.35 805.17,359.50 C804.06,355.65 801.24,347.09 798.88,340.47 L 794.61 328.44 L 815.89 307.47 C827.60,295.94 837.79,286.36 838.54,286.19 C842.09,285.37 858.95,327.53 863.45,348.50 C864.40,352.90 865.55,358.08 866.02,360.00 C868.54,370.34 869.11,373.50 870.49,384.46 C872.52,400.51 872.53,439.96 870.51,454.08 C869.07,464.16 867.84,471.71 866.45,479.00 C865.34,484.78 857.11,511.76 854.47,518.27 C853.11,521.61 852.00,524.73 852.00,525.19 C852.00,526.17 838.15,554.53 834.76,560.50 C821.91,583.11 801.78,608.03 774.77,634.75 ZM 355.00 899.07 C355.00,897.95 353.14,897.39 346.50,896.50 C343.75,896.14 338.25,894.97 334.27,893.92 C326.16,891.77 324.00,891.56 324.00,892.95 C324.00,893.07 324.08,893.20 324.23,893.33 C322.11,892.41 316.98,890.62 311.94,889.03 C306.20,887.22 299.17,884.68 296.31,883.37 C293.46,882.07 290.75,881.00 290.29,881.00 C289.82,881.00 284.36,878.52 278.15,875.49 C270.63,871.81 266.97,869.49 267.18,868.54 C267.72,866.14 307.90,826.00 309.76,826.01 C310.72,826.01 316.00,827.83 321.50,830.05 C327.00,832.26 336.67,835.40 343.00,837.02 C364.05,842.43 370.89,843.28 393.50,843.36 C415.53,843.43 427.33,842.18 445.00,837.88 C464.52,833.13 475.31,829.20 493.69,820.12 C519.92,807.18 535.71,794.88 572.49,758.77 C584.25,747.22 584.56,747.00 589.03,747.00 C593.58,747.00 593.61,747.03 608.71,762.25 C624.50,778.18 626.34,781.08 624.47,787.16 C623.58,790.10 598.26,815.87 583.00,829.39 C560.08,849.68 535.42,865.72 509.00,877.48 C484.90,888.22 467.83,893.34 437.00,899.09 C419.08,902.44 379.42,902.36 354.68,899.62 C354.90,899.49 355.00,899.30 355.00,899.07 ZM 659.00 216.00 C659.00,215.45 658.74,215.00 658.42,215.00 C658.10,215.00 652.59,214.02 646.17,212.82 C628.04,209.43 582.00,209.68 582.00,213.16 C582.00,213.48 582.42,213.69 583.20,213.77 C582.95,213.79 582.72,213.81 582.50,213.83 C545.94,217.12 506.25,234.25 473.54,260.86 C468.71,264.78 455.78,276.66 444.80,287.25 C433.83,297.84 424.10,306.81 423.17,307.18 C417.40,309.52 415.01,307.95 397.73,290.43 C388.18,280.73 383.04,276.28 382.89,271.66 C382.75,267.08 387.53,262.34 397.80,252.17 C399.19,250.79 400.68,249.32 402.27,247.73 C430.52,219.55 439.57,211.86 461.82,197.16 C479.38,185.56 496.83,176.93 517.00,169.88 C521.67,168.25 526.40,166.54 527.50,166.09 C532.90,163.89 549.12,159.69 558.50,158.07 C561.80,157.49 568.10,156.32 572.50,155.46 C573.55,155.25 574.84,155.06 576.34,154.88 C576.20,154.91 576.09,154.93 576.00,154.96 C573.41,155.70 574.84,155.77 581.50,155.23 C596.12,154.04 637.45,154.73 647.00,156.32 C651.67,157.09 657.30,157.76 659.50,157.79 C662.64,157.83 662.81,157.72 659.09,156.90 C669.95,158.89 681.24,161.55 692.00,164.68 C706.18,168.80 738.50,182.49 740.92,185.40 C741.98,186.68 739.11,190.02 721.89,207.49 C710.74,218.80 700.69,228.29 699.56,228.58 C698.42,228.86 694.13,227.70 690.02,226.01 C679.97,221.86 668.00,218.33 659.50,216.99 C659.20,216.94 658.89,216.89 658.55,216.83 C658.81,216.73 659.00,216.41 659.00,216.00 ZM 190.14 889.11 C186.62,890.90 183.57,891.53 177.50,891.71 C168.20,892.00 163.59,890.35 156.07,884.06 C143.77,873.76 141.31,855.09 150.74,843.66 C158.53,834.23 285.80,707.62 289.94,705.19 C293.77,702.95 295.55,702.58 302.94,702.55 C310.51,702.52 312.18,702.87 317.37,705.51 C326.49,710.15 331.97,717.82 333.94,728.69 C335.20,735.62 334.28,741.52 330.87,748.34 C327.82,754.46 196.36,885.95 190.14,889.11 ZM 718.06 349.53 C712.28,352.40 703.82,353.51 698.44,352.12 C692.05,350.47 684.68,345.50 679.94,339.64 C676.08,334.86 674.95,332.55 673.98,327.37 C672.56,319.89 673.27,314.11 676.31,308.33 C677.67,305.74 704.38,278.17 746.86,235.48 C800.58,181.49 816.20,166.34 819.86,164.69 C825.35,162.20 834.17,161.88 841.30,163.92 C846.96,165.53 854.93,172.26 858.41,178.37 C864.69,189.35 864.02,202.93 856.75,212.28 C854.52,215.15 823.62,246.60 788.09,282.17 C735.30,335.01 722.51,347.32 718.06,349.53 ZM 200.81 334.63 C204.68,331.95 209.00,325.66 207.79,324.46 C207.50,324.16 206.68,325.10 205.88,326.61 C208.47,321.41 208.79,314.96 206.15,309.98 C202.71,303.50 195.14,300.10 177.05,296.88 C176.95,296.86 176.86,296.84 176.76,296.83 C177.73,296.87 178.00,296.64 178.00,296.12 C178.00,295.25 174.70,294.04 172.25,294.01 C170.84,294.00 170.69,294.78 171.41,295.45 C170.97,295.28 170.66,295.13 170.50,295.00 C169.89,294.50 167.40,293.79 164.95,293.42 C163.89,293.26 162.77,293.07 161.64,292.85 C162.50,292.80 163.00,292.55 163.00,292.12 C163.00,291.25 159.70,290.04 157.25,290.01 C155.82,290.00 155.70,291.02 156.59,291.75 C155.54,291.49 154.54,291.23 153.61,290.97 C154.40,290.89 155.00,290.54 155.00,290.11 C155.00,289.03 150.01,287.66 149.16,288.51 C148.86,288.81 149.05,289.24 149.53,289.65 C149.06,289.46 148.67,289.28 148.38,289.12 C144.84,287.12 124.03,282.00 119.47,282.00 C114.24,282.00 110.65,283.60 106.81,287.66 C101.03,293.78 100.35,302.00 105.02,309.37 C108.40,314.70 112.17,316.79 124.22,320.02 C146.50,325.98 154.23,328.07 161.00,329.94 C166.34,331.42 172.31,332.91 177.42,334.07 C177.15,334.04 176.90,334.03 176.68,334.03 C174.71,334.06 174.67,334.16 176.26,335.08 C179.12,336.75 186.14,337.90 191.70,337.61 C195.42,337.42 198.01,336.57 200.81,334.63 ZM 881.00 771.87 C897.61,776.75 911.43,761.05 903.75,746.02 C900.60,739.86 897.71,738.12 885.33,734.96 C879.37,733.44 870.00,731.00 864.50,729.54 C859.00,728.09 850.45,725.83 845.50,724.53 C840.55,723.23 833.02,721.23 828.77,720.08 C815.27,716.44 810.19,717.45 803.67,725.07 C797.12,732.72 797.93,742.12 805.72,748.98 C808.67,751.59 811.75,753.20 815.29,754.00 C818.15,754.65 822.30,755.77 824.50,756.49 C826.70,757.20 830.53,758.34 833.00,759.00 C835.47,759.66 838.59,760.64 839.93,761.16 C841.26,761.69 844.64,762.54 847.43,763.06 C851.81,763.87 870.09,768.67 881.00,771.87 ZM 809.00 858.28 C822.06,860.62 831.67,854.48 832.77,843.09 C833.63,834.08 832.65,832.71 806.38,806.16 C792.95,792.60 779.91,779.38 777.41,776.80 C773.78,773.06 771.94,771.96 768.42,771.44 C758.59,769.96 750.33,773.59 746.45,781.10 C744.61,784.65 744.59,791.12 746.40,795.28 C748.42,799.92 805.85,857.71 809.00,858.28 ZM 238.24 283.35 C242.21,285.30 245.31,285.38 250.27,283.66 C255.37,281.88 258.68,279.05 261.03,274.44 C263.39,269.80 263.52,265.86 261.48,259.93 C260.24,256.32 255.04,250.50 233.23,228.36 C218.53,213.43 204.93,200.27 203.00,199.11 C198.20,196.23 189.17,196.22 184.05,199.09 C176.43,203.37 173.09,212.58 176.37,220.28 C178.10,224.36 233.86,281.19 238.24,283.35 ZM 718.17 924.25 C722.80,928.90 723.04,929.00 729.11,929.00 C741.00,929.00 748.64,921.47 747.75,910.62 C747.40,906.44 740.33,883.97 731.49,859.00 C730.61,856.53 728.52,850.45 726.84,845.50 C725.16,840.55 722.74,835.10 721.45,833.40 C718.67,829.70 711.93,827.48 705.92,828.28 C698.10,829.33 690.02,837.63 689.99,844.64 C689.98,847.36 696.64,868.99 705.19,894.00 C707.36,900.33 710.10,908.65 711.28,912.50 C712.99,918.03 714.43,920.50 718.17,924.25 ZM 291.75 224.93 C298.68,228.59 305.63,227.39 312.77,221.29 C315.28,219.16 316.32,217.20 317.18,213.00 L 318.30 207.50 L 306.12 171.12 C299.42,151.10 292.99,133.39 291.82,131.75 C289.12,127.95 284.42,126.00 277.98,126.00 C272.24,126.00 268.69,127.53 264.87,131.66 C258.21,138.86 258.38,142.19 266.58,166.22 C270.20,176.82 274.00,188.20 275.01,191.50 C282.14,214.72 285.64,221.71 291.75,224.93 ZM 938.54 1019.26 C940.90,1013.08 949.08,1004.90 955.26,1002.54 C957.87,1001.54 960.00,1000.40 960.00,1000.00 C960.00,999.60 957.87,998.46 955.26,997.46 C952.49,996.40 948.41,993.54 945.43,990.57 C942.46,987.59 939.60,983.51 938.54,980.74 C937.54,978.13 936.40,976.00 936.00,976.00 C935.60,976.00 934.46,978.13 933.46,980.74 C931.10,986.92 922.92,995.10 916.74,997.46 C914.13,998.46 912.00,999.60 912.00,1000.00 C912.00,1000.40 914.13,1001.54 916.74,1002.54 C919.51,1003.60 923.59,1006.46 926.57,1009.43 C929.54,1012.41 932.40,1016.49 933.46,1019.26 C934.46,1021.87 935.60,1024.00 936.00,1024.00 C936.40,1024.00 937.54,1021.87 938.54,1019.26 ZM 639.96 154.06 C629.66,153.17 617.50,152.93 602.97,153.32 C597.38,153.47 591.93,153.70 587.40,153.95 C604.09,152.94 628.00,152.78 638.91,153.94 C639.25,153.98 639.61,154.02 639.96,154.06 ZM 205.65 327.05 C205.60,327.14 205.56,327.24 205.51,327.33 C204.10,330.32 201.67,332.69 198.64,334.21 C199.11,333.94 199.59,333.65 200.07,333.33 C202.42,331.78 204.31,329.58 205.65,327.05 ZM 186.50 335.90 C186.75,335.94 186.99,335.97 187.24,336.01 C184.93,335.82 182.71,335.46 181.64,335.05 C181.49,334.99 181.32,334.94 181.16,334.88 C183.24,335.32 185.07,335.67 186.50,335.90 ZM 326.04 894.15 C326.55,894.30 327.13,894.44 327.75,894.54 C328.35,894.64 329.28,894.83 330.43,895.07 C330.07,895.02 329.78,894.99 329.59,894.99 C328.71,894.99 327.29,894.64 326.04,894.15 ZM 623.72 212.11 C629.66,212.04 633.14,212.22 636.77,212.76 C633.13,212.23 629.60,212.06 623.72,212.11 Z" fill="rgb(251,81,2)"/>
<path d="M 652.60 118.22 C633.87,116.32 582.56,116.93 567.78,119.35 C562.44,120.23 556.59,120.92 554.78,120.89 C553.49,120.88 551.28,121.14 548.20,121.69 C584.25,114.53 612.76,113.39 646.50,117.45 C648.56,117.70 650.59,117.95 652.60,118.22 ZM 813.06 399.67 C812.82,397.60 812.50,396.31 812.08,396.05 C811.16,395.48 810.64,393.26 810.58,389.59 C810.54,386.52 810.22,384.01 809.88,384.01 C809.09,384.00 807.89,377.13 807.41,369.94 C807.21,366.88 805.20,359.01 802.94,352.44 C801.04,346.93 798.78,340.32 797.43,336.37 L 798.88 340.47 C801.24,347.09 804.06,355.65 805.17,359.50 C806.28,363.35 807.54,367.20 807.98,368.05 C808.41,368.90 809.24,372.05 809.83,375.05 C810.41,378.05 811.43,383.20 812.09,386.50 C812.51,388.58 812.85,393.29 813.06,399.67 ZM 369.84 804.47 C381.97,805.85 404.30,806.31 414.53,805.19 C412.92,805.50 411.65,805.89 411.23,806.24 C409.58,807.59 382.57,807.50 377.38,806.13 C375.78,805.71 372.76,805.05 369.84,804.47 ZM 902.63 486.50 C902.14,488.90 901.60,491.35 901.01,493.82 C902.93,485.78 904.08,478.57 904.32,472.68 C904.49,468.37 905.11,464.55 905.70,464.18 C906.17,463.88 906.91,460.55 907.52,456.19 C906.92,467.51 906.08,475.92 905.09,477.64 C904.51,478.66 903.40,482.65 902.63,486.50 ZM 623.72 212.11 C629.60,212.06 633.13,212.23 636.77,212.76 C638.57,213.02 640.40,213.38 642.60,213.84 C646.82,214.73 651.12,215.60 653.48,216.05 C646.93,215.02 639.18,214.02 629.42,212.89 C626.15,212.51 622.32,212.29 617.93,212.22 C620.10,212.17 622.01,212.13 623.72,212.11 ZM 852.92 315.04 C857.11,325.89 861.05,337.62 863.01,346.00 C863.72,349.02 864.88,352.40 865.58,353.50 C866.29,354.60 866.86,357.57 866.85,360.11 C866.84,361.54 867.00,363.38 867.24,365.09 C866.89,363.58 866.49,361.91 866.02,360.00 C865.55,358.08 864.40,352.90 863.45,348.50 C861.53,339.55 857.36,326.72 852.92,315.04 ZM 469.80 789.40 C472.34,788.23 474.90,786.99 477.50,785.69 C489.21,779.80 498.61,774.00 509.99,764.85 C505.06,768.88 500.71,772.14 496.79,774.77 C488.99,779.99 479.63,785.00 469.80,789.40 ZM 811.11 453.50 C809.69,461.68 808.14,469.01 806.29,475.97 C808.14,469.00 809.68,461.67 811.09,453.50 C812.12,447.48 812.87,438.25 813.27,428.93 C813.11,439.92 812.57,445.06 811.11,453.50 ZM 840.26 617.97 C830.17,630.87 818.34,643.71 794.15,668.59 C815.53,646.60 829.44,631.51 840.26,617.97 ZM 879.88 552.76 C888.79,533.42 896.10,513.34 900.35,496.54 C895.85,514.38 888.72,533.82 879.88,552.76 ZM 693.93 126.23 C714.35,131.62 733.44,139.09 754.33,149.56 C733.92,139.33 714.18,131.67 693.93,126.23 ZM 543.55 222.13 C556.63,217.81 569.76,214.98 582.50,213.83 C582.72,213.81 582.95,213.79 583.20,213.77 C583.36,213.78 583.54,213.79 583.73,213.80 C583.32,213.84 582.91,213.87 582.50,213.91 C569.68,215.06 556.58,217.85 543.55,222.13 ZM 658.39 216.87 C658.45,216.87 658.50,216.85 658.55,216.83 C658.89,216.89 659.20,216.94 659.50,216.99 C667.98,218.32 679.89,221.84 689.93,225.97 C689.21,225.71 688.48,225.43 687.74,225.14 C677.86,221.28 670.03,218.93 658.39,216.87 ZM 699.44 228.60 C699.48,228.59 699.52,228.58 699.56,228.58 C700.68,228.29 710.55,218.98 721.58,207.81 C710.60,218.93 700.86,228.23 699.85,228.55 C699.75,228.58 699.61,228.60 699.44,228.60 ZM 908.54 405.13 C908.34,395.92 908.03,387.46 907.60,381.89 C908.13,387.44 908.43,395.72 908.54,405.13 ZM 419.67 804.52 C425.35,803.70 430.88,802.63 436.35,801.28 C430.39,802.83 424.74,803.94 419.67,804.52 ZM 868.39 370.43 C869.23,374.06 869.95,378.90 870.52,384.67 L 870.49 384.46 C869.70,378.15 869.17,374.42 868.39,370.43 ZM 870.28 455.67 C869.44,462.54 868.21,469.80 866.45,479.00 C867.77,472.09 868.94,464.96 870.28,455.67 ZM 903.18 354.02 C902.09,348.36 901.05,343.49 900.35,341.00 C901.10,343.67 902.12,348.45 903.18,354.02 ZM 871.93 430.00 C871.88,432.75 871.81,435.34 871.71,437.82 C871.80,435.32 871.88,432.70 871.93,430.00 Z" fill="rgb(253,214,192)"/>
<path d="M 373.26 938.93 C357.11,937.90 331.88,933.68 319.43,929.93 C317.74,929.42 315.67,929.00 314.84,929.00 C312.63,929.00 289.21,921.00 277.00,916.08 C271.23,913.75 260.50,908.73 253.18,904.92 C245.85,901.12 239.14,898.00 238.26,898.00 C237.39,898.00 231.91,902.63 226.09,908.29 C214.63,919.44 209.57,922.76 198.00,926.75 C191.36,929.04 188.89,929.34 176.50,929.37 C161.57,929.42 158.44,928.76 147.72,923.38 C133.47,916.23 122.52,905.35 114.97,890.83 C109.96,881.19 108.04,872.55 108.02,859.46 C107.98,839.81 113.06,828.33 129.11,811.71 C135.52,805.08 139.95,799.68 139.95,798.50 C139.95,797.40 138.37,793.58 136.43,790.00 C126.31,771.33 113.90,740.12 108.86,720.68 C97.02,675.01 95.44,620.06 104.56,571.50 C107.48,555.94 112.71,537.84 119.15,521.00 C124.93,505.90 138.86,478.13 146.47,466.56 C150.06,461.09 153.00,456.47 153.00,456.31 C153.00,456.14 155.31,452.74 158.14,448.75 C167.76,435.18 182.46,418.60 208.02,392.51 C222.06,378.18 235.11,364.71 237.02,362.58 C245.18,353.51 251.34,351.17 258.35,354.50 C260.08,355.32 279.12,373.66 300.65,395.25 C334.84,429.54 339.94,435.04 340.93,438.75 C343.19,447.13 342.51,448.07 314.36,476.01 C300.22,490.03 286.00,504.29 282.74,507.69 C269.30,521.76 258.52,537.42 250.60,554.33 C243.22,570.10 242.39,572.22 239.07,584.00 C233.02,605.49 232.50,609.55 232.50,635.50 C232.50,658.17 232.66,660.22 235.34,672.45 C238.83,688.33 240.98,694.37 243.32,694.82 C244.44,695.04 247.17,692.97 250.79,689.16 C262.86,676.46 277.44,668.03 291.00,665.92 C317.04,661.87 342.69,671.24 356.91,690.00 C363.39,698.55 369.75,712.48 371.09,721.09 C372.66,731.14 371.61,747.90 368.96,754.86 C363.95,768.05 358.61,776.04 349.00,784.74 C345.72,787.70 342.12,791.43 340.98,793.03 L 338.91 795.94 L 342.70 797.55 C347.21,799.47 357.96,802.30 367.00,803.93 C370.58,804.58 375.24,805.57 377.38,806.13 C382.57,807.50 409.58,807.59 411.23,806.24 C411.93,805.67 414.98,804.97 418.00,804.69 C440.21,802.64 474.77,789.52 496.79,774.77 C509.51,766.25 526.73,751.05 553.86,724.40 C568.36,710.15 581.19,697.95 582.36,697.29 C583.54,696.62 586.82,696.05 589.66,696.04 C594.05,696.01 595.38,696.48 598.66,699.26 C605.39,704.97 674.43,774.88 675.16,776.73 C675.54,777.70 675.89,780.79 675.93,783.60 C675.99,787.73 675.45,789.44 673.10,792.60 C669.51,797.43 616.61,849.89 605.00,860.13 C594.24,869.61 582.00,879.00 570.14,886.86 C565.03,890.23 560.67,893.00 560.45,893.00 C560.22,893.00 557.45,894.66 554.29,896.68 C547.32,901.14 526.16,911.34 512.50,916.83 C483.05,928.65 449.52,936.27 415.05,938.95 C400.25,940.10 391.66,940.10 373.26,938.93 ZM 437.00 899.09 C467.83,893.34 484.90,888.22 509.00,877.48 C535.42,865.72 560.08,849.68 583.00,829.39 C598.26,815.87 623.58,790.10 624.47,787.16 C626.34,781.08 624.50,778.18 608.71,762.25 C593.61,747.03 593.58,747.00 589.03,747.00 C584.56,747.00 584.25,747.22 572.49,758.77 C535.71,794.88 519.92,807.18 493.69,820.12 C475.31,829.20 464.52,833.13 445.00,837.88 C427.33,842.18 415.53,843.43 393.50,843.36 C370.89,843.28 364.05,842.43 343.00,837.02 C336.67,835.40 327.00,832.26 321.50,830.05 C316.00,827.83 310.72,826.01 309.76,826.01 C307.90,826.00 267.72,866.14 267.18,868.54 C266.97,869.49 270.63,871.81 278.15,875.49 C284.36,878.52 289.82,881.00 290.29,881.00 C290.75,881.00 293.46,882.07 296.31,883.37 C299.17,884.68 306.20,887.22 311.94,889.03 C317.68,890.84 323.53,892.92 324.94,893.65 C326.35,894.39 328.44,894.99 329.59,894.99 C330.74,895.00 335.24,895.95 339.59,897.11 C358.42,902.12 414.64,903.27 437.00,899.09 ZM 190.14 889.11 C196.36,885.95 327.82,754.46 330.87,748.34 C334.28,741.52 335.20,735.62 333.94,728.69 C331.97,717.82 326.49,710.15 317.37,705.51 C312.18,702.87 310.51,702.52 302.94,702.55 C295.55,702.58 293.77,702.95 289.94,705.19 C285.80,707.62 158.53,834.23 150.74,843.66 C141.31,855.09 143.77,873.76 156.07,884.06 C163.59,890.35 168.20,892.00 177.50,891.71 C183.57,891.53 186.62,890.90 190.14,889.11 ZM 191.74 748.63 C202.87,737.64 212.21,727.93 212.48,727.05 C212.76,726.17 212.06,722.99 210.92,719.97 C206.65,708.68 204.78,703.41 203.99,700.50 C203.54,698.85 202.24,694.27 201.10,690.32 C195.86,672.12 193.57,645.38 195.12,620.50 C197.98,574.77 211.79,538.55 242.15,497.18 C246.62,491.08 256.74,480.10 269.51,467.50 C290.83,446.45 292.26,444.43 289.72,438.80 C289.05,437.31 281.63,429.10 273.24,420.55 L 257.99 405.00 L 253.24 404.99 L 248.50 404.97 L 228.99 424.74 C205.21,448.83 195.79,459.99 182.78,479.50 C161.92,510.77 146.83,547.68 140.51,582.84 C137.01,602.32 136.06,613.30 136.03,634.58 C135.99,658.06 138.06,679.63 141.97,696.50 C146.38,715.59 150.37,729.63 153.03,735.50 C153.53,736.60 155.30,741.00 156.97,745.27 C160.07,753.24 166.45,766.53 168.23,768.74 C168.78,769.42 169.74,769.67 170.36,769.30 C170.99,768.93 180.61,759.63 191.74,748.63 ZM 718.17 924.25 C714.43,920.50 712.99,918.03 711.28,912.50 C710.10,908.65 707.36,900.33 705.19,894.00 C696.64,868.99 689.98,847.36 689.99,844.64 C690.02,837.63 698.10,829.33 705.92,828.28 C711.93,827.48 718.67,829.70 721.45,833.40 C722.74,835.10 725.16,840.55 726.84,845.50 C728.52,850.45 730.61,856.53 731.49,859.00 C740.33,883.97 747.40,906.44 747.75,910.62 C748.64,921.47 741.00,929.00 729.11,929.00 C723.04,929.00 722.80,928.90 718.17,924.25 ZM 809.00 858.28 C805.85,857.71 748.42,799.92 746.40,795.28 C744.59,791.12 744.61,784.65 746.45,781.10 C750.33,773.59 758.59,769.96 768.42,771.44 C771.94,771.96 773.78,773.06 777.41,776.80 C779.91,779.38 792.95,792.60 806.38,806.16 C832.65,832.71 833.63,834.08 832.77,843.09 C831.67,854.48 822.06,860.62 809.00,858.28 ZM 881.00 771.87 C870.09,768.67 851.81,763.87 847.43,763.06 C844.64,762.54 841.26,761.69 839.93,761.16 C838.59,760.64 835.47,759.66 833.00,759.00 C830.53,758.34 826.70,757.20 824.50,756.49 C822.30,755.77 818.15,754.65 815.29,754.00 C811.75,753.20 808.67,751.59 805.72,748.98 C797.93,742.12 797.12,732.72 803.67,725.07 C810.19,717.45 815.27,716.44 828.77,720.08 C833.02,721.23 840.55,723.23 845.50,724.53 C850.45,725.83 859.00,728.09 864.50,729.54 C870.00,731.00 879.37,733.44 885.33,734.96 C897.71,738.12 900.60,739.86 903.75,746.02 C911.43,761.05 897.61,776.75 881.00,771.87 ZM 750.40 701.03 C748.39,700.21 683.88,636.27 671.83,623.15 C666.78,617.65 666.00,616.27 666.00,612.85 C666.00,610.68 666.64,607.67 667.41,606.17 C668.52,604.03 716.48,555.40 719.79,553.06 C720.23,552.75 724.88,547.52 730.14,541.42 C751.42,516.78 764.55,490.68 772.37,457.50 C776.71,439.13 777.35,411.35 773.93,390.88 C771.19,374.53 766.67,360.00 764.32,360.00 C763.98,360.00 759.60,363.94 754.60,368.76 C736.94,385.75 717.96,392.38 695.34,389.45 C678.01,387.21 661.06,377.60 651.01,364.32 C641.22,351.39 636.05,337.05 636.02,322.69 C635.96,300.95 643.78,283.88 660.98,268.18 C665.39,264.16 669.00,260.27 669.00,259.54 C669.00,257.34 662.66,255.28 644.00,251.42 C631.95,248.93 598.81,248.37 586.50,250.44 C565.59,253.97 549.88,259.07 531.00,268.45 C507.03,280.35 489.29,294.81 451.45,333.27 C425.81,359.32 423.68,360.91 416.23,359.51 C413.09,358.93 407.18,353.38 373.75,319.67 C352.39,298.12 334.21,279.19 333.35,277.58 C332.28,275.60 331.93,273.09 332.25,269.73 L 332.73 264.78 L 364.11 233.32 C407.07,190.25 422.35,177.09 448.34,160.77 C456.73,155.50 479.60,143.80 490.00,139.46 C500.18,135.21 525.01,126.82 533.00,124.94 C544.46,122.23 551.90,120.85 554.78,120.89 C556.59,120.92 562.44,120.23 567.78,119.35 C583.16,116.84 638.03,116.28 654.69,118.46 C689.53,123.04 721.04,132.87 754.33,149.56 C762.48,153.65 769.75,157.00 770.47,157.00 C771.20,157.00 774.20,154.48 777.15,151.40 C797.16,130.47 815.87,122.86 840.28,125.72 C867.09,128.86 889.60,148.40 897.62,175.50 C900.15,184.07 900.16,205.24 897.63,213.50 C893.57,226.76 889.23,233.78 877.79,245.59 L 866.97 256.75 L 873.42 269.63 C885.69,294.11 891.54,309.62 900.35,341.00 C902.00,346.87 905.56,365.98 907.16,377.50 C908.78,389.15 909.34,440.09 907.98,452.50 C907.32,458.55 906.30,463.80 905.70,464.18 C905.11,464.55 904.49,468.37 904.32,472.68 C903.31,498.20 884.92,548.29 863.19,584.68 C847.31,611.27 833.17,628.45 794.15,668.59 C770.06,693.37 762.85,700.23 760.05,701.00 C755.84,702.17 753.25,702.18 750.40,701.03 ZM 774.77 634.75 C801.78,608.03 821.91,583.11 834.76,560.50 C838.15,554.53 852.00,526.17 852.00,525.19 C852.00,524.73 853.11,521.61 854.47,518.27 C857.11,511.76 865.34,484.78 866.45,479.00 C870.98,455.28 872.00,444.46 872.00,420.03 C872.00,397.07 870.46,377.71 867.92,368.61 C867.32,366.46 866.84,362.64 866.85,360.11 C866.86,357.57 866.29,354.60 865.58,353.50 C864.88,352.40 863.72,349.02 863.01,346.00 C858.23,325.63 841.79,285.44 838.54,286.19 C837.79,286.36 827.62,295.92 815.94,307.42 L 794.70 328.35 L 796.77 334.42 C797.90,337.77 800.68,345.87 802.94,352.44 C805.20,359.01 807.21,366.88 807.41,369.94 C807.89,377.13 809.09,384.00 809.88,384.01 C810.22,384.01 810.54,386.52 810.58,389.59 C810.64,393.26 811.16,395.48 812.08,396.05 C814.57,397.59 813.88,437.24 811.09,453.50 C806.49,480.28 800.38,498.08 787.03,523.65 C774.36,547.92 762.43,563.34 736.60,588.85 C718.25,606.97 717.00,608.44 717.00,611.85 C717.01,615.23 718.21,616.71 733.25,631.80 C742.19,640.76 750.17,648.52 751.00,649.03 C751.83,649.55 754.04,649.98 755.93,649.98 C759.01,650.00 760.89,648.48 774.77,634.75 ZM 718.06 349.53 C722.51,347.32 735.30,335.01 788.09,282.17 C823.62,246.60 854.52,215.15 856.75,212.28 C864.02,202.93 864.69,189.35 858.41,178.37 C854.93,172.26 846.96,165.53 841.30,163.92 C834.17,161.88 825.35,162.20 819.86,164.69 C816.20,166.34 800.58,181.49 746.86,235.48 C704.38,278.17 677.67,305.74 676.31,308.33 C673.27,314.11 672.56,319.89 673.98,327.37 C674.95,332.55 676.08,334.86 679.94,339.64 C684.68,345.50 692.05,350.47 698.44,352.12 C703.82,353.51 712.28,352.40 718.06,349.53 ZM 423.17 307.18 C424.10,306.81 433.83,297.84 444.80,287.25 C455.78,276.66 468.71,264.78 473.54,260.86 C506.43,234.11 545.63,217.22 582.50,213.91 C603.28,212.05 619.16,211.70 629.42,212.89 C660.73,216.53 671.47,218.78 687.74,225.14 C693.58,227.42 698.78,228.89 699.85,228.55 C700.88,228.22 710.82,218.72 721.94,207.43 C739.11,190.01 741.98,186.68 740.92,185.40 C738.50,182.49 706.18,168.80 692.00,164.68 C674.32,159.53 655.23,155.67 638.91,153.94 C623.81,152.34 583.76,153.25 572.50,155.46 C568.10,156.32 561.80,157.49 558.50,158.07 C549.12,159.69 532.90,163.89 527.50,166.09 C526.40,166.54 521.67,168.25 517.00,169.88 C496.83,176.93 479.38,185.56 461.82,197.16 C439.57,211.86 430.52,219.55 402.27,247.73 C377.07,272.88 377.40,269.81 397.73,290.43 C415.01,307.95 417.40,309.52 423.17,307.18 ZM 186.50 335.90 C181.12,335.04 170.14,332.47 161.00,329.94 C154.23,328.07 146.50,325.98 124.22,320.02 C112.17,316.79 108.40,314.70 105.02,309.37 C100.35,302.00 101.03,293.78 106.81,287.66 C110.65,283.60 114.24,282.00 119.47,282.00 C124.03,282.00 144.84,287.12 148.38,289.12 C150.61,290.38 158.75,292.49 164.95,293.42 C167.40,293.79 169.89,294.50 170.50,295.00 C171.10,295.50 174.05,296.35 177.05,296.88 C195.14,300.10 202.71,303.50 206.15,309.98 C210.18,317.56 207.32,328.54 200.07,333.33 C195.93,336.08 192.12,336.80 186.50,335.90 ZM 238.24 283.35 C233.86,281.19 178.10,224.36 176.37,220.28 C173.09,212.58 176.43,203.37 184.05,199.09 C189.17,196.22 198.20,196.23 203.00,199.11 C204.93,200.27 218.53,213.43 233.23,228.36 C255.04,250.50 260.24,256.32 261.48,259.93 C263.52,265.86 263.39,269.80 261.03,274.44 C258.68,279.05 255.37,281.88 250.27,283.66 C245.31,285.38 242.21,285.30 238.24,283.35 ZM 291.75 224.93 C285.64,221.71 282.14,214.72 275.01,191.50 C274.00,188.20 270.20,176.82 266.58,166.22 C258.38,142.19 258.21,138.86 264.87,131.66 C268.69,127.53 272.24,126.00 277.98,126.00 C284.42,126.00 289.12,127.95 291.82,131.75 C292.99,133.39 299.42,151.10 306.12,171.12 L 318.30 207.50 L 317.18 213.00 C316.32,217.20 315.28,219.16 312.77,221.29 C305.63,227.39 298.68,228.59 291.75,224.93 Z" fill="rgb(253,253,252)"/>
</g>
</svg>