<svg xmlns="http://www.w3.org/2000/svg" width="1024" height="1024" viewBox="0 0 1024 1024">
<g>
<path d="M 406.79 653.08 C404.75,654.14 402.72,654.98 402.29,654.95 C401.86,654.93 403.53,653.85 406.00,652.56 C408.48,651.27 412.94,647.58 415.91,644.36 C418.87,641.14 426.22,633.49 432.22,627.38 C438.23,621.26 443.24,615.63 443.35,614.88 C443.94,611.07 448.66,604.86 452.43,602.92 C456.41,600.88 465.89,591.48 465.97,589.50 C466.06,587.16 470.97,582.84 477.26,579.54 C484.76,575.62 486.00,575.32 486.00,577.45 C486.00,578.25 486.59,579.26 487.32,579.70 C489.26,580.88 491.28,593.51 490.73,601.00 C490.46,604.58 489.54,612.67 488.67,619.00 C487.80,625.33 486.92,632.53 486.72,635.00 C486.52,637.47 486.24,627.12 486.12,612.00 C485.99,596.88 485.57,582.76 485.19,580.63 L 484.50 576.75 L 447.50 613.96 C427.15,634.42 408.83,652.03 406.79,653.08 ZM 486.96 446.07 C485.56,448.69 483.51,448.45 476.72,444.84 C472.41,442.54 470.26,440.59 468.23,437.13 C466.73,434.58 465.51,432.21 465.50,431.85 C465.50,430.62 457.92,423.00 456.70,423.00 C455.16,423.00 449.50,416.88 447.53,413.06 C444.90,407.98 410.48,373.52 406.03,371.51 C403.80,370.51 402.17,369.50 402.40,369.27 C404.06,367.61 414.20,376.86 446.85,409.81 C478.92,442.18 484.30,447.22 484.96,445.50 C485.38,444.40 485.60,421.00 485.45,393.50 C485.19,348.74 485.25,346.33 486.03,370.50 C486.51,385.35 487.58,402.45 488.40,408.50 C491.06,428.06 491.30,434.19 489.57,437.51 C488.71,439.16 488.01,441.32 488.01,442.32 C488.00,443.31 487.53,445.00 486.96,446.07 ZM 538.55 578.05 C538.25,578.85 537.88,594.80 537.74,613.50 C537.59,632.20 537.36,643.00 537.23,637.50 C537.09,632.00 536.13,623.22 535.10,618.00 C534.06,612.78 532.65,604.60 531.96,599.84 C530.77,591.61 530.81,590.97 532.85,587.06 C534.03,584.79 535.00,582.12 535.00,581.12 C535.00,580.13 535.83,578.56 536.84,577.64 C538.57,576.08 539.02,576.12 544.09,578.39 C550.08,581.07 556.89,587.59 559.40,593.04 C560.33,595.05 563.77,598.73 567.36,601.54 C570.84,604.27 575.44,608.93 577.59,611.90 C582.26,618.35 580.66,616.55 595.96,632.51 C602.81,639.65 592.82,630.00 573.76,611.05 C550.40,587.84 538.91,577.07 538.55,578.05 ZM 611.42 487.69 C610.28,488.35 604.86,489.19 599.37,489.57 C591.29,490.13 589.12,489.98 587.94,488.80 C587.14,487.99 584.27,487.03 581.57,486.66 C578.87,486.29 576.46,485.79 576.21,485.55 C575.29,484.62 580.59,475.31 584.42,471.17 C586.61,468.78 590.10,465.97 592.17,464.91 C596.72,462.59 599.31,459.98 603.14,453.85 C606.00,449.28 609.03,446.63 614.00,444.37 C617.73,442.67 647.91,413.18 651.17,408.05 C652.73,405.61 654.00,404.08 654.00,404.65 C654.00,407.15 646.13,415.57 612.57,449.00 L 576.93 484.50 L 583.21 485.11 C586.67,485.44 609.75,485.61 634.50,485.49 C657.28,485.37 667.90,485.33 667.91,485.40 C667.91,485.47 660.47,485.62 646.50,485.88 C623.82,486.31 612.85,486.87 611.42,487.69 ZM 371.90 617.25 C370.83,619.31 369.73,621.00 369.45,621.00 C366.76,621.00 377.92,608.76 409.30,577.29 C429.71,556.82 446.15,539.82 445.83,539.49 C445.51,539.17 422.35,538.85 394.37,538.77 L 343.50 538.63 L 375.50 537.87 C393.10,537.46 410.26,536.60 413.64,535.97 C422.44,534.33 432.02,534.17 435.50,535.60 C437.15,536.28 440.64,537.12 443.25,537.48 C447.70,538.08 449.17,539.52 447.25,541.40 C446.84,541.80 445.58,544.69 444.46,547.82 C442.76,552.58 442.00,553.55 439.79,553.81 C438.33,553.98 436.61,554.77 435.95,555.56 C435.29,556.35 434.03,557.00 433.13,557.00 C432.24,557.00 426.78,561.65 421.01,567.32 C415.23,573.00 402.25,585.71 392.17,595.57 C382.09,605.43 372.97,615.19 371.90,617.25 ZM 652.97 616.84 C654.87,620.55 653.61,620.29 651.60,616.55 C649.99,613.56 643.15,606.66 603.50,568.00 C594.25,558.97 588.70,555.00 585.35,555.00 C584.61,555.00 584.00,554.15 584.00,553.10 C584.00,552.06 582.41,548.84 580.46,545.94 C578.52,543.05 576.72,540.35 576.46,539.94 C575.53,538.42 582.82,535.27 589.55,534.28 C596.60,533.24 604.66,533.86 613.15,536.09 C615.63,536.74 631.01,537.54 649.00,537.95 C678.61,538.61 677.45,538.65 629.83,538.58 C601.97,538.54 578.81,538.85 578.38,539.28 C577.95,539.71 594.29,556.81 614.69,577.28 C635.08,597.75 652.31,615.55 652.97,616.84 ZM 541.85 446.19 C540.39,447.18 539.00,448.00 538.76,448.00 C538.02,448.00 536.00,443.00 536.00,441.18 C536.00,440.22 535.28,438.41 534.39,437.15 C532.05,433.81 532.02,428.04 534.25,414.50 C535.34,407.90 536.56,397.77 536.96,392.00 C537.51,384.15 537.74,389.38 537.85,412.67 C537.93,429.81 538.29,444.59 538.65,445.52 C539.14,446.81 547.26,439.29 573.88,412.85 C592.90,393.96 601.90,385.25 593.89,393.50 C585.87,401.75 577.88,410.62 576.13,413.22 C574.38,415.82 571.04,419.26 568.72,420.88 C562.53,425.18 558.40,429.97 556.99,434.50 C555.33,439.83 553.78,441.43 548.74,443.03 C546.41,443.77 543.31,445.19 541.85,446.19 ZM 448.00 485.65 C448.00,485.84 447.21,485.99 446.25,485.98 C445.04,485.97 444.88,485.73 445.72,485.20 C446.53,484.68 434.61,472.12 409.90,447.46 C389.53,427.13 372.22,409.15 371.42,407.50 C370.62,405.85 370.53,405.40 371.22,406.50 C371.91,407.60 380.35,416.39 389.99,426.02 C402.35,438.39 408.92,444.21 412.32,445.81 C415.29,447.21 417.78,449.25 418.82,451.15 C421.57,456.18 426.95,462.32 431.06,465.12 C437.46,469.47 448.00,482.25 448.00,485.65 ZM 435.88 489.09 C432.69,491.36 425.58,491.51 416.50,489.49 C413.20,488.76 407.58,487.74 404.00,487.22 C398.85,486.47 402.39,486.28 421.00,486.29 C433.92,486.29 443.16,486.50 441.53,486.74 C439.90,486.98 437.35,488.04 435.88,489.09 Z" fill="rgb(241,148,90)"/>
<path d="M 486.96 446.07 C487.53,445.00 488.00,443.31 488.01,442.32 C488.01,441.32 488.71,439.16 489.57,437.51 C491.30,434.19 491.06,428.06 488.40,408.50 C487.58,402.45 486.51,385.35 486.03,370.50 C485.25,346.33 485.19,348.74 485.45,393.50 C485.58,417.02 485.44,437.53 485.13,443.67 C485.42,437.64 485.47,417.76 485.24,395.00 C484.76,347.74 484.80,346.34 486.84,340.18 C487.99,336.71 490.08,332.51 491.47,330.86 C494.81,326.88 494.68,327.71 490.36,337.77 C486.93,345.75 486.80,346.40 488.24,348.87 C489.08,350.32 490.09,355.10 490.48,359.50 C490.88,363.90 492.28,370.93 493.60,375.11 C494.92,379.30 496.39,386.61 496.88,391.36 C497.36,396.11 498.32,400.68 499.02,401.52 C499.93,402.62 500.29,408.11 500.32,421.27 C500.37,439.04 500.30,439.65 497.64,445.47 C496.15,448.75 494.19,452.24 493.30,453.22 C491.08,455.68 484.56,457.27 479.94,456.49 C475.12,455.68 467.70,450.83 466.19,447.52 C465.54,446.09 464.21,445.00 463.10,445.00 C462.01,445.00 459.28,442.79 456.83,439.92 C454.45,437.12 449.67,431.93 446.22,428.38 C442.35,424.41 439.70,420.76 439.33,418.88 C438.99,417.20 438.11,415.60 437.37,415.31 C436.63,415.03 435.55,413.04 434.97,410.89 C433.88,406.85 430.57,402.78 421.91,394.83 C420.28,393.33 419.00,391.12 419.00,389.80 C419.00,388.50 418.10,386.67 417.00,385.73 C415.90,384.79 415.00,383.12 415.00,382.01 C415.00,380.88 414.34,380.00 413.48,380.00 C412.64,380.00 411.48,378.77 410.91,377.27 C409.62,373.87 408.34,373.03 404.40,373.02 C402.60,373.01 400.56,372.17 399.50,371.00 C397.25,368.51 389.54,368.16 388.64,370.50 C388.32,371.34 386.83,372.00 385.26,372.00 C379.41,372.00 372.00,379.45 372.00,385.33 C372.00,386.66 371.33,388.32 370.50,389.00 C368.27,390.85 368.58,397.31 371.00,399.50 C372.22,400.61 373.00,402.58 373.00,404.58 C373.00,408.01 375.45,411.46 377.14,410.41 C377.68,410.08 378.91,410.51 379.86,411.38 C380.82,412.24 384.96,414.66 389.05,416.75 C393.40,418.97 396.91,421.48 397.49,422.78 C398.34,424.69 400.77,426.27 403.15,426.45 C403.50,426.48 405.53,428.20 407.65,430.27 C409.77,432.34 412.64,435.16 414.04,436.52 C415.43,437.88 417.10,439.00 417.74,439.00 C420.36,439.00 423.78,441.36 425.48,444.34 C428.07,448.87 432.11,453.00 433.97,453.00 C435.76,453.00 439.23,455.51 445.99,461.68 C449.88,465.24 450.96,467.13 453.23,474.28 C456.11,483.36 456.01,485.36 452.39,491.14 C449.14,496.34 444.68,499.18 439.18,499.57 C419.34,500.95 403.40,500.35 399.13,498.07 C398.03,497.48 395.46,497.00 393.42,497.00 C388.90,497.00 375.17,494.49 369.00,492.53 C366.52,491.74 361.35,490.79 357.50,490.41 C353.65,490.03 349.52,489.08 348.33,488.30 C346.62,487.17 345.33,487.10 342.16,487.96 C339.96,488.55 337.99,489.54 337.78,490.17 C337.57,490.79 335.91,491.39 334.08,491.50 L 330.76 491.69 L 333.13 489.89 C337.70,486.40 344.07,486.00 394.80,485.98 C422.12,485.98 445.02,485.62 445.72,485.20 C444.88,485.73 445.04,485.97 446.25,485.98 C447.21,485.99 448.00,485.84 448.00,485.65 C448.00,482.25 437.46,469.47 431.06,465.12 C426.95,462.32 421.57,456.18 418.82,451.15 C417.78,449.25 415.29,447.21 412.32,445.81 C408.92,444.21 402.35,438.39 389.99,426.02 C380.35,416.39 371.91,407.60 371.22,406.50 C370.91,406.01 370.76,405.82 370.76,405.92 C370.44,405.32 370.19,404.77 369.98,404.21 C364.98,390.87 369.98,377.48 382.50,370.70 C386.86,368.34 396.38,367.78 402.55,369.16 C402.50,369.19 402.44,369.22 402.40,369.27 C402.17,369.50 403.80,370.51 406.03,371.51 C410.48,373.52 444.90,407.98 447.53,413.06 C449.50,416.88 455.16,423.00 456.70,423.00 C457.92,423.00 465.50,430.62 465.50,431.85 C465.51,432.21 466.73,434.58 468.23,437.13 C470.26,440.59 472.41,442.54 476.72,444.84 C483.51,448.45 485.56,448.69 486.96,446.07 ZM 371.90 617.25 C372.97,615.19 382.09,605.43 392.17,595.57 C402.25,585.71 415.23,573.00 421.01,567.32 C426.78,561.65 432.24,557.00 433.13,557.00 C434.03,557.00 435.29,556.35 435.95,555.56 C436.61,554.77 438.33,553.98 439.79,553.81 C442.00,553.55 442.76,552.58 444.46,547.82 C445.58,544.69 446.84,541.80 447.25,541.40 C449.17,539.52 447.70,538.08 443.25,537.48 C440.64,537.12 437.15,536.28 435.50,535.60 C432.02,534.17 422.44,534.33 413.64,535.97 C410.26,536.60 393.10,537.46 375.50,537.87 L 347.66 538.53 L 341.50 538.50 L 335.97 535.78 C330.73,533.21 323.44,527.00 325.66,527.00 C326.23,527.00 327.48,527.87 328.45,528.94 C329.42,530.01 331.58,531.19 333.27,531.56 C334.95,531.93 338.35,533.31 340.83,534.62 C344.78,536.73 345.58,536.85 347.42,535.65 C349.24,534.45 369.46,532.16 369.52,533.14 C369.54,533.34 370.28,532.83 371.17,532.00 C372.06,531.17 372.61,530.21 372.40,529.85 C371.62,528.57 375.35,528.00 384.58,528.00 C391.52,528.00 395.57,527.45 400.00,525.92 C405.22,524.11 407.71,523.90 419.25,524.28 C442.80,525.04 450.64,527.33 455.00,534.73 C457.53,539.01 457.30,543.70 454.19,551.50 C451.44,558.37 445.81,564.11 435.58,570.50 C430.77,573.50 427.00,576.67 427.00,577.72 C427.00,579.18 422.89,582.58 418.37,584.84 C416.10,585.98 413.98,587.61 413.65,588.46 C413.33,589.31 411.92,590.00 410.53,590.00 C409.14,590.00 407.10,590.90 406.00,592.00 C404.90,593.10 403.71,594.00 403.36,594.00 C402.59,594.00 400.76,596.24 397.55,601.08 C395.69,603.90 393.93,605.06 389.34,606.50 C385.87,607.59 382.39,609.52 380.78,611.24 C379.28,612.84 377.68,613.92 377.23,613.64 C375.26,612.42 373.53,615.12 373.38,619.65 C373.26,623.15 372.66,624.86 371.11,626.11 C368.67,628.09 368.42,631.65 370.53,634.44 C371.34,635.51 372.00,637.95 372.00,639.87 C372.00,642.73 372.83,644.14 376.64,647.68 C379.77,650.59 382.17,652.00 384.02,652.00 C385.52,652.00 387.32,652.67 388.00,653.50 C389.94,655.84 395.78,655.36 399.08,652.59 C400.80,651.14 402.72,650.38 403.87,650.68 C406.83,651.45 410.28,649.19 409.68,646.88 C409.34,645.57 409.95,644.42 411.59,643.35 C412.95,642.46 414.00,640.79 414.00,639.53 C414.00,638.30 415.12,636.08 416.50,634.59 C417.88,633.11 419.00,631.03 419.00,629.97 C419.00,628.87 420.21,627.42 421.84,626.58 C423.60,625.67 425.04,623.86 425.62,621.81 C426.22,619.74 427.60,618.01 429.33,617.18 C431.10,616.32 432.29,614.80 432.67,612.89 C433.00,611.26 434.04,609.38 434.99,608.71 C435.94,608.05 437.06,606.41 437.48,605.08 C437.90,603.75 441.45,599.47 445.37,595.58 C449.29,591.68 454.44,586.13 456.81,583.25 C459.17,580.36 461.59,578.00 462.17,578.00 C462.76,578.00 464.90,576.31 466.93,574.25 C471.14,569.97 480.37,566.48 484.87,567.47 C486.39,567.81 490.20,570.58 493.32,573.63 C497.73,577.93 499.15,580.06 499.63,583.11 C499.98,585.27 500.65,587.29 501.13,587.58 C502.62,588.50 502.13,604.44 500.50,608.35 C499.67,610.32 499.00,613.73 499.00,615.92 C499.00,618.11 498.57,620.94 498.04,622.20 C497.51,623.47 496.69,629.71 496.21,636.07 C495.49,645.76 495.01,647.99 493.27,649.73 C491.66,651.34 491.04,653.60 490.55,659.66 C490.20,663.97 489.45,669.30 488.88,671.50 C488.32,673.70 487.61,676.50 487.32,677.71 C486.97,679.15 487.87,681.70 489.89,684.98 C491.60,687.76 493.00,690.64 493.00,691.38 C493.00,695.03 502.48,702.00 507.45,702.00 C508.30,702.00 509.00,702.45 509.00,703.00 C509.00,703.09 509.00,703.18 509.01,703.25 C509.01,703.49 509.02,703.67 508.93,703.77 C508.69,704.04 507.71,703.63 503.92,702.09 C503.48,701.91 503.01,701.72 502.50,701.51 C498.49,699.88 495.25,697.66 492.73,694.79 C486.11,687.25 486.01,686.34 485.94,632.57 C485.91,606.13 485.57,582.76 485.19,580.63 C485.57,582.76 485.99,596.88 486.12,612.00 C486.24,627.12 486.52,637.47 486.72,635.00 C486.92,632.53 487.80,625.33 488.67,619.00 C489.54,612.67 490.46,604.58 490.73,601.00 C491.28,593.51 489.26,580.88 487.32,579.70 C486.59,579.26 486.00,578.25 486.00,577.45 C486.00,575.32 484.76,575.62 477.26,579.54 C470.97,582.84 466.06,587.16 465.97,589.50 C465.89,591.48 456.41,600.88 452.43,602.92 C448.66,604.86 443.94,611.07 443.35,614.88 C443.24,615.63 438.23,621.26 432.22,627.38 C426.22,633.49 418.87,641.14 415.91,644.36 C412.94,647.58 408.48,651.27 406.00,652.56 C403.53,653.85 401.86,654.93 402.29,654.95 C402.32,654.95 402.35,654.95 402.38,654.95 C399.74,655.93 397.39,655.99 394.22,655.99 C378.73,656.01 366.87,642.74 368.44,627.12 C368.64,625.12 369.05,622.86 369.53,620.97 C369.89,620.76 370.91,619.17 371.90,617.25 ZM 654.39 639.98 C653.51,642.19 652.49,644.00 652.13,644.00 C650.90,644.00 652.20,635.08 653.60,633.92 C655.47,632.36 655.37,631.15 652.99,626.47 C651.88,624.30 651.20,621.92 651.48,621.20 C652.21,619.29 649.56,614.66 646.31,612.16 C644.76,610.98 641.81,608.70 639.74,607.10 C637.32,605.24 635.25,604.38 633.95,604.72 C631.65,605.33 628.21,602.66 626.91,599.25 C626.44,598.01 625.41,597.00 624.63,597.00 C623.85,597.00 621.82,595.42 620.13,593.50 C618.30,591.41 616.14,590.00 614.77,590.00 C613.44,590.00 611.44,588.74 610.00,587.00 C608.64,585.35 606.73,584.00 605.76,584.00 C604.80,584.00 602.26,582.42 600.13,580.50 C598.00,578.58 595.94,577.00 595.56,577.00 C594.06,577.00 592.00,574.03 591.96,571.82 C591.93,569.95 590.58,568.86 585.06,566.21 C580.24,563.90 578.03,562.25 577.63,560.64 C577.31,559.39 575.95,557.77 574.59,557.05 C571.20,555.24 567.67,546.72 567.79,540.66 C567.95,533.02 569.12,531.83 583.66,524.53 C588.66,522.02 589.26,521.95 602.16,522.48 C616.18,523.06 620.78,523.65 622.60,525.11 C623.63,525.94 643.41,527.95 650.84,527.98 C653.30,528.00 654.32,528.51 654.69,529.93 C655.35,532.45 656.78,532.93 665.90,533.67 C670.08,534.02 674.35,534.88 675.40,535.59 C677.73,537.19 682.61,536.38 685.88,533.84 C687.20,532.83 689.29,532.00 690.55,532.00 C693.03,532.00 698.40,526.45 697.43,524.89 C697.11,524.37 697.87,523.12 699.12,522.11 C701.19,520.43 701.37,519.55 701.14,511.90 C700.99,506.80 700.38,502.94 699.59,502.02 C697.88,500.03 696.92,496.00 698.15,496.00 C699.56,496.00 702.73,503.77 703.52,509.15 C704.89,518.54 699.74,529.00 691.04,534.47 C684.11,538.83 680.37,539.09 628.33,538.78 C605.64,538.65 586.16,538.79 580.23,539.09 C586.28,538.76 606.39,538.54 629.83,538.58 C677.45,538.65 678.61,538.61 649.00,537.95 C631.01,537.54 615.63,536.74 613.15,536.09 C604.66,533.86 596.60,533.24 589.55,534.28 C582.82,535.27 575.53,538.42 576.46,539.94 C576.72,540.35 578.52,543.05 580.46,545.94 C582.41,548.84 584.00,552.06 584.00,553.10 C584.00,554.15 584.61,555.00 585.35,555.00 C588.70,555.00 594.25,558.97 603.50,568.00 C643.15,606.66 649.99,613.56 651.60,616.55 C652.93,619.02 653.93,619.97 653.90,619.26 C654.09,619.66 654.24,620.05 654.37,620.43 C656.44,626.70 656.46,634.82 654.39,639.98 ZM 526.87 699.20 C522.45,702.16 517.88,703.31 521.56,700.53 C522.63,699.72 524.02,699.05 524.65,699.03 C526.45,698.98 532.00,692.14 532.00,689.97 C532.00,688.88 532.44,688.00 532.97,688.00 C533.51,688.00 534.68,685.46 535.58,682.36 C536.88,677.92 537.00,675.94 536.15,673.11 C535.56,671.12 534.92,667.00 534.72,663.95 C534.53,660.89 533.41,656.39 532.24,653.95 C529.86,648.97 527.54,639.53 526.46,630.50 C526.07,627.20 525.30,623.65 524.76,622.60 C524.21,621.56 523.77,618.41 523.78,615.60 C523.79,612.80 523.26,609.15 522.61,607.50 C521.30,604.17 522.01,589.23 523.78,582.68 C526.49,572.70 534.61,566.32 543.29,567.35 C548.55,567.97 556.38,571.95 557.36,574.49 C557.69,575.34 559.55,576.98 561.51,578.14 C565.21,580.32 571.00,587.77 571.00,590.34 C571.00,591.16 573.02,592.80 575.48,593.99 C580.37,596.36 586.00,602.65 586.00,605.74 C586.00,606.82 586.90,608.73 588.00,610.00 C589.10,611.27 590.00,612.70 590.00,613.18 C590.00,613.65 591.74,615.95 593.87,618.27 C596.00,620.60 598.04,623.48 598.42,624.69 C598.85,626.09 600.05,626.99 601.77,627.19 C603.81,627.43 604.65,628.27 605.36,630.75 C605.87,632.54 606.67,634.00 607.13,634.00 C607.59,634.00 608.48,636.01 609.10,638.47 C609.72,640.93 610.85,643.46 611.61,644.09 C612.38,644.73 613.00,645.83 613.00,646.55 C613.00,648.88 616.06,651.00 619.42,651.00 C621.26,651.00 623.70,651.88 625.00,653.00 C627.76,655.39 632.68,655.60 635.08,653.43 C636.53,652.12 645.00,650.57 645.00,651.62 C645.00,651.81 643.22,652.87 641.04,653.98 C635.63,656.74 625.84,656.72 619.35,653.93 C615.48,652.28 607.09,644.46 576.88,614.34 C557.81,595.33 542.79,580.94 539.32,578.31 C542.26,580.24 553.58,591.00 573.76,611.05 C592.82,630.00 602.81,639.65 595.96,632.51 C580.66,616.55 582.26,618.35 577.59,611.90 C575.44,608.93 570.84,604.27 567.36,601.54 C563.77,598.73 560.33,595.05 559.40,593.04 C556.89,587.59 550.08,581.07 544.09,578.39 C539.02,576.12 538.57,576.08 536.84,577.64 C535.83,578.56 535.00,580.13 535.00,581.12 C535.00,582.12 534.03,584.79 532.85,587.06 C530.81,590.97 530.77,591.61 531.96,599.84 C532.65,604.60 534.06,612.78 535.10,618.00 C536.13,623.22 537.09,632.00 537.23,637.50 C537.36,643.00 537.59,632.20 537.74,613.50 C537.88,595.99 538.20,580.89 538.49,578.38 C538.17,581.99 537.98,604.57 538.06,631.23 C538.17,667.28 537.88,684.36 537.12,686.29 C535.15,691.28 531.14,696.33 526.87,699.20 ZM 611.42 487.69 C612.85,486.87 623.82,486.31 646.50,485.88 C660.47,485.62 667.91,485.47 667.91,485.40 C667.90,485.33 657.28,485.37 634.50,485.49 C613.20,485.59 593.13,485.48 585.75,485.23 C593.02,485.45 612.52,485.45 633.14,485.20 C679.05,484.65 681.49,484.82 690.25,489.18 C692.31,490.20 694.00,491.25 694.00,491.50 C694.00,492.39 687.43,490.65 684.01,488.84 C680.40,486.93 674.51,486.37 673.60,487.84 C673.31,488.31 670.47,488.77 667.29,488.88 C664.10,488.98 659.92,489.46 658.00,489.95 C656.08,490.44 651.58,491.15 648.00,491.53 C644.42,491.91 641.05,492.55 640.50,492.96 C638.57,494.37 630.40,496.00 620.38,496.97 C614.81,497.51 609.04,498.41 607.56,498.98 C606.08,499.54 599.39,500.00 592.68,500.00 C579.63,499.99 577.90,499.47 571.83,493.75 C568.54,490.66 566.52,484.33 567.39,479.85 C568.75,472.81 580.05,458.86 591.50,450.10 C593.70,448.41 595.95,446.53 596.50,445.90 C600.57,441.28 604.38,438.00 605.66,438.00 C606.50,438.00 608.33,437.10 609.73,436.00 C611.13,434.90 613.30,434.00 614.57,434.00 C615.90,434.00 617.10,433.25 617.44,432.20 C617.75,431.21 620.03,429.41 622.50,428.21 C624.98,427.01 627.00,425.41 627.00,424.67 C627.00,422.66 630.42,419.93 633.33,419.62 C634.73,419.47 638.03,417.58 640.66,415.42 C643.29,413.27 646.02,411.63 646.71,411.79 C648.40,412.18 651.99,406.16 652.00,402.94 C652.00,401.53 652.66,399.51 653.47,398.44 C655.59,395.63 655.37,390.76 653.02,388.75 C651.58,387.52 651.19,386.29 651.60,384.26 C652.05,381.98 651.38,380.58 648.00,376.73 C644.07,372.27 643.61,372.04 640.00,372.62 C636.79,373.13 635.94,372.88 634.84,371.11 C633.22,368.53 625.98,368.12 624.00,370.50 C623.32,371.33 621.35,371.96 619.63,371.92 L 616.50 371.84 L 620.50 369.95 C626.27,367.22 635.16,367.39 641.54,370.37 C653.94,376.14 659.36,391.48 653.91,404.53 C653.59,404.58 652.48,405.99 651.17,408.05 C647.91,413.18 617.73,442.67 614.00,444.37 C609.03,446.63 606.00,449.28 603.14,453.85 C599.31,459.98 596.72,462.59 592.17,464.91 C590.10,465.97 586.61,468.78 584.42,471.17 C580.59,475.31 575.29,484.62 576.21,485.55 C576.46,485.79 578.87,486.29 581.57,486.66 C584.27,487.03 587.14,487.99 587.94,488.80 C589.12,489.98 591.29,490.13 599.37,489.57 C604.86,489.19 610.28,488.35 611.42,487.69 ZM 541.85 446.19 C543.31,445.19 546.41,443.77 548.74,443.03 C553.78,441.43 555.33,439.83 556.99,434.50 C558.40,429.97 562.53,425.18 568.72,420.88 C571.04,419.26 574.38,415.82 576.13,413.22 C577.88,410.62 585.87,401.75 593.89,393.50 C601.90,385.25 592.90,393.96 573.88,412.85 C547.26,439.29 539.14,446.81 538.65,445.52 C538.62,445.46 538.60,445.35 538.58,445.20 C539.42,446.66 544.64,441.79 575.43,411.11 C595.36,391.25 611.89,375.00 612.17,375.00 C613.10,375.00 612.36,379.16 611.31,379.83 C610.08,380.62 605.00,391.48 605.00,393.33 C605.00,395.28 602.84,397.00 600.38,397.00 C598.78,397.00 597.03,398.69 594.08,403.11 C591.84,406.48 590.00,409.90 590.00,410.73 C590.00,412.37 588.59,414.01 578.06,424.61 C574.18,428.52 571.00,432.29 571.00,432.99 C571.00,433.69 569.54,435.89 567.75,437.88 C565.96,439.87 563.55,442.81 562.40,444.41 C560.81,446.61 559.53,447.29 557.15,447.22 C554.66,447.15 553.88,447.62 553.43,449.44 C553.11,450.71 551.64,452.30 550.17,452.99 C548.70,453.67 546.72,454.63 545.76,455.12 C544.81,455.60 542.19,456.00 539.94,456.00 C536.50,456.00 535.22,455.37 531.96,452.08 C529.82,449.92 527.77,446.88 527.40,445.33 C527.03,443.77 526.39,442.05 525.97,441.50 C522.46,436.83 521.88,402.99 525.25,399.27 C526.42,397.99 527.00,395.70 527.01,392.42 C527.02,383.95 528.73,376.04 530.95,374.20 C532.61,372.82 533.21,370.51 534.11,362.00 C534.72,356.23 535.62,351.35 536.11,351.17 C538.25,350.37 536.90,342.31 533.50,335.56 C531.57,331.74 530.00,328.41 530.00,328.15 C530.00,326.43 534.23,332.06 536.12,336.32 L 538.43 341.50 L 538.13 392.19 C538.01,411.70 538.06,429.20 538.23,438.36 C538.05,432.26 537.90,422.88 537.85,412.67 C537.74,389.38 537.51,384.15 536.96,392.00 C536.56,397.77 535.34,407.90 534.25,414.50 C532.02,428.04 532.05,433.81 534.39,437.15 C535.28,438.41 536.00,440.22 536.00,441.18 C536.00,443.00 538.02,448.00 538.76,448.00 C539.00,448.00 540.39,447.18 541.85,446.19 ZM 644.62 787.04 C629.55,794.30 625.29,795.95 626.43,794.11 C626.81,793.50 627.76,793.00 628.54,793.00 C629.32,793.00 630.72,791.84 631.65,790.42 C632.90,788.50 633.96,787.95 635.76,788.29 C638.06,788.73 645.42,785.45 649.08,782.34 C649.95,781.60 653.55,779.83 657.08,778.41 C660.61,776.98 664.40,775.00 665.50,774.00 C666.60,772.99 669.59,771.07 672.15,769.72 C676.71,767.31 678.19,766.27 682.07,762.75 C683.13,761.79 684.50,761.00 685.11,761.00 C686.44,761.00 691.80,756.87 696.92,751.91 C698.96,749.93 701.75,748.03 703.12,747.68 C705.74,747.03 720.00,733.79 720.00,732.02 C720.00,731.46 720.84,731.00 721.87,731.00 C722.90,731.00 725.62,728.86 727.92,726.25 C734.92,718.28 741.27,711.94 741.76,712.43 C742.62,713.29 729.58,727.03 718.00,737.47 C693.45,759.59 673.23,773.25 644.62,787.04 ZM 814.03 558.00 C812.02,571.18 809.64,579.69 810.39,571.00 C810.60,568.53 811.29,564.57 811.91,562.20 C814.71,551.49 816.57,489.20 814.19,485.56 C813.81,484.98 813.46,482.02 813.42,479.00 C813.37,475.98 812.80,469.90 812.16,465.50 C809.95,450.50 809.85,449.42 810.85,451.00 C812.96,454.35 816.16,479.06 817.53,502.50 C818.28,515.45 816.71,540.41 814.03,558.00 ZM 753.19 699.25 C749.07,704.61 745.33,709.00 744.88,709.00 C743.88,709.00 747.94,701.21 751.17,696.92 C752.45,695.21 755.19,692.21 757.25,690.25 C759.31,688.28 761.00,686.12 761.00,685.44 C761.00,684.77 761.57,684.00 762.26,683.73 C762.96,683.46 764.60,681.05 765.91,678.37 C767.22,675.69 768.86,672.83 769.55,672.00 C770.25,671.17 770.97,669.38 771.16,668.00 C771.35,666.56 772.48,665.07 773.79,664.50 C775.05,663.95 776.32,662.55 776.61,661.39 C777.76,656.83 787.78,639.45 788.72,640.39 C789.22,640.89 782.20,655.00 776.73,664.50 C770.91,674.60 761.81,688.04 753.19,699.25 ZM 384.00 788.52 C384.00,788.54 384.00,788.56 384.00,788.58 C384.00,788.68 384.00,788.76 383.96,788.81 C383.74,789.08 382.26,788.30 372.63,783.25 L 371.50 782.66 C357.60,775.36 351.83,771.97 341.20,764.81 C332.54,758.98 316.00,746.15 316.00,745.27 C316.00,744.95 316.82,745.43 317.83,746.35 C318.83,747.26 320.64,748.00 321.85,748.00 C323.23,748.00 324.47,748.95 325.20,750.55 C326.51,753.42 352.03,771.00 354.89,771.00 C355.87,771.00 357.87,772.35 359.34,774.00 C360.81,775.65 362.63,777.00 363.39,777.00 C364.14,777.00 365.32,777.67 366.00,778.50 C366.68,779.33 368.26,780.00 369.50,780.00 C370.74,780.00 372.34,780.71 373.06,781.58 C373.79,782.45 376.54,784.25 379.19,785.59 C381.83,786.94 384.00,788.25 384.00,788.52 ZM 435.88 489.09 C437.35,488.04 439.90,486.98 441.53,486.74 C443.16,486.50 433.92,486.29 421.00,486.29 C402.39,486.28 398.85,486.47 404.00,487.22 C407.58,487.74 413.20,488.76 416.50,489.49 C425.58,491.51 432.69,491.36 435.88,489.09 ZM 304.31 703.25 C308.61,708.06 311.76,711.99 311.31,711.97 C310.64,711.95 304.33,706.65 300.50,702.88 C299.95,702.34 298.71,701.15 297.75,700.23 C296.79,699.31 296.00,697.92 296.00,697.15 C296.00,696.38 294.54,694.08 292.75,692.06 C290.96,690.03 288.15,686.61 286.50,684.45 C284.85,682.28 282.49,679.48 281.25,678.21 C280.01,676.95 279.00,675.34 279.00,674.64 C279.00,673.95 278.15,672.46 277.11,671.34 C274.90,668.98 271.39,662.50 272.77,663.36 C273.29,663.68 276.11,667.44 279.04,671.72 C285.48,681.11 293.81,691.50 304.31,703.25 ZM 277.48 704.25 C278.19,706.31 278.63,708.00 278.47,708.00 C278.20,708.00 271.73,699.82 265.02,691.00 C262.26,687.37 253.08,673.39 249.01,666.62 L 246.68 662.74 L 249.31 664.47 C250.76,665.42 253.15,668.74 254.61,671.85 C256.07,674.96 258.38,678.82 259.74,680.44 C261.09,682.06 262.56,684.31 263.01,685.44 C264.47,689.16 270.74,697.17 273.50,698.85 C274.99,699.76 276.77,702.17 277.48,704.25 ZM 229.61 511.30 C229.60,525.44 229.46,537.00 229.29,537.00 C229.13,537.00 229.00,536.10 229.00,535.00 C229.00,533.90 228.64,533.00 228.21,533.00 C227.34,533.00 227.44,492.45 228.31,490.00 C228.60,489.17 229.02,487.85 229.24,487.05 C229.46,486.25 229.62,497.17 229.61,511.30 ZM 238.04 443.00 C236.96,447.12 235.47,453.20 234.73,456.50 L 233.37 462.50 L 232.75 457.37 C232.07,451.80 232.71,447.70 234.11,448.57 C234.60,448.87 235.00,447.21 235.00,444.89 C235.00,442.56 235.61,439.95 236.37,439.08 C237.12,438.21 238.53,434.91 239.50,431.75 C240.48,428.59 241.64,426.00 242.09,426.00 C242.54,426.00 242.25,428.14 241.45,430.75 C240.65,433.36 239.11,438.88 238.04,443.00 ZM 806.01 429.30 C808.34,437.44 810.01,444.32 809.74,444.60 C808.42,445.91 806.00,441.49 806.00,437.79 C806.00,435.07 805.42,433.30 804.25,432.44 C803.01,431.53 802.49,429.76 802.48,426.33 C802.46,423.67 801.68,419.97 800.73,418.10 C799.78,416.22 799.02,413.52 799.04,412.10 L 799.08 409.50 L 800.44 412.00 C801.18,413.38 803.69,421.16 806.01,429.30 ZM 533.55 796.10 C533.03,796.59 531.90,796.92 531.05,796.81 C530.20,796.71 520.20,796.37 508.83,796.06 C497.46,795.75 487.94,795.28 487.67,795.00 C487.39,794.72 498.68,794.50 512.76,794.50 C526.83,794.50 537.48,794.66 536.43,794.85 C535.37,795.04 534.07,795.60 533.55,796.10 ZM 240.95 591.75 C242.49,596.84 243.42,601.00 243.00,601.00 C242.08,601.00 240.49,597.08 238.95,591.00 C238.32,588.53 237.38,585.99 236.87,585.36 C236.35,584.73 235.66,581.91 235.33,579.11 C234.99,576.30 234.33,574.00 233.86,574.00 C233.39,574.00 233.05,571.19 233.11,567.75 L 233.23 561.50 L 235.69 572.00 C237.04,577.78 239.41,586.66 240.95,591.75 ZM 756.95 367.83 C757.45,369.57 757.71,371.00 757.53,371.00 C757.34,371.00 755.96,368.86 754.45,366.25 C750.52,359.43 739.38,343.31 734.76,337.75 C732.59,335.14 731.25,333.00 731.79,333.00 C732.33,333.00 733.43,334.01 734.25,335.25 C735.06,336.49 738.03,339.98 740.84,343.00 C743.66,346.02 745.97,349.09 745.98,349.82 C745.99,350.54 747.12,352.61 748.50,354.41 C749.88,356.21 751.00,358.07 751.00,358.54 C751.00,359.01 752.13,360.57 753.52,362.02 C754.91,363.47 756.45,366.08 756.95,367.83 ZM 602.50 803.73 C582.99,809.75 581.82,810.04 582.26,808.67 C582.67,807.37 591.30,804.14 597.50,802.97 C599.70,802.55 604.16,801.48 607.41,800.58 C619.05,797.36 615.25,799.80 602.50,803.73 ZM 779.00 412.46 C779.00,415.93 777.21,413.57 774.68,406.75 C773.20,402.76 769.82,395.13 767.18,389.78 C764.53,384.44 762.94,380.54 763.64,381.11 C764.33,381.69 765.90,384.26 767.12,386.83 C768.35,389.40 770.17,392.57 771.17,393.88 C772.18,395.20 773.00,397.63 773.00,399.30 C773.00,400.97 773.30,402.04 773.66,401.68 C774.72,400.61 776.93,403.01 776.33,404.58 C776.03,405.37 776.50,407.12 777.39,408.47 C778.28,409.82 779.00,411.62 779.00,412.46 ZM 699.00 725.93 C699.00,726.39 698.10,727.00 697.00,727.29 C695.90,727.58 698.33,724.70 702.39,720.90 C706.46,717.11 714.42,709.16 720.07,703.25 C725.72,697.34 729.48,693.84 728.42,695.48 C727.37,697.12 722.34,702.58 717.25,707.61 C712.16,712.63 708.00,717.44 708.00,718.28 C708.00,719.12 705.97,721.00 703.50,722.45 C701.03,723.90 699.00,725.46 699.00,725.93 ZM 796.47 623.50 C791.81,635.30 790.98,634.41 794.62,621.50 C796.24,615.75 800.95,606.00 802.11,606.00 C802.94,606.00 800.98,612.09 796.47,623.50 ZM 661.00 245.51 C661.00,246.42 658.12,246.01 657.50,245.00 C657.16,244.45 655.85,244.00 654.60,244.00 C653.34,244.00 651.52,243.13 650.55,242.06 C649.58,240.99 646.81,239.30 644.40,238.31 C641.98,237.31 640.01,236.13 640.00,235.67 C640.00,235.22 638.59,235.00 636.87,235.17 C634.47,235.42 633.38,234.94 632.16,233.12 C630.62,230.79 630.64,230.75 633.04,231.50 C636.34,232.53 661.00,244.88 661.00,245.51 ZM 439.44 239.07 C431.32,241.29 430.66,241.37 431.50,240.00 C431.84,239.45 432.83,239.00 433.69,239.00 C434.56,239.00 436.84,238.03 438.76,236.84 C440.99,235.46 443.68,234.74 446.20,234.84 C448.37,234.92 450.90,234.61 451.82,234.15 C452.75,233.69 454.62,233.62 456.00,233.99 C458.07,234.56 457.48,234.88 452.50,235.91 C449.20,236.59 443.32,238.01 439.44,239.07 ZM 796.05 509.50 C795.90,519.40 795.50,529.25 795.14,531.38 C794.79,533.51 794.50,524.43 794.50,511.19 C794.50,495.96 794.83,487.92 795.40,489.31 C795.90,490.51 796.19,499.60 796.05,509.50 ZM 617.36 776.49 C614.85,777.80 608.97,778.69 610.08,777.59 C610.31,777.36 613.88,775.83 618.00,774.18 C622.12,772.53 628.65,769.70 632.50,767.88 L 633.21 767.55 C638.57,765.02 640.57,764.08 640.67,764.25 C640.73,764.35 640.12,764.84 639.14,765.63 L 638.92 765.80 C637.50,766.94 635.14,768.18 633.67,768.55 C632.20,768.92 631.00,769.64 631.00,770.16 C631.00,771.50 624.88,773.89 623.14,773.22 C622.19,772.86 621.93,773.08 622.39,773.83 C622.82,774.52 622.52,775.00 621.67,775.00 C620.88,775.00 618.94,775.67 617.36,776.49 ZM 416.00 800.50 C417.73,802.59 416.69,802.37 407.00,798.60 C388.36,791.36 384.42,789.53 386.75,789.19 C387.99,789.01 390.19,789.79 391.64,790.93 C393.09,792.07 395.00,793.01 395.88,793.01 C398.21,793.04 405.93,795.84 408.37,797.55 C409.51,798.35 411.41,799.00 412.60,799.00 C413.79,799.00 415.32,799.67 416.00,800.50 ZM 789.93 453.76 C790.44,455.54 790.52,457.00 790.11,457.00 C789.70,457.00 788.78,454.03 788.05,450.39 C787.33,446.76 785.48,439.45 783.95,434.15 C780.96,423.83 780.66,420.37 783.52,429.19 C784.47,432.11 786.09,435.90 787.12,437.62 C788.28,439.54 789.00,442.62 789.00,445.62 C789.00,448.31 789.42,451.97 789.93,453.76 ZM 738.60 685.00 C737.83,685.00 735.82,686.69 734.13,688.75 C732.45,690.81 731.05,692.11 731.03,691.64 C731.02,691.17 732.73,688.69 734.85,686.14 C736.97,683.59 741.47,677.49 744.85,672.59 C748.23,667.69 751.00,664.09 751.00,664.59 C750.99,665.09 749.65,667.53 748.00,670.00 C746.35,672.47 745.01,674.89 745.00,675.36 C745.00,675.83 743.88,677.55 742.50,679.18 C741.12,680.82 740.00,682.79 740.00,683.58 C740.00,684.36 739.37,685.00 738.60,685.00 ZM 586.45 787.22 C584.07,789.09 582.30,789.45 575.07,789.55 C567.83,789.64 567.12,789.52 570.50,788.75 C572.70,788.25 578.66,786.80 583.74,785.53 C588.82,784.26 592.73,783.62 592.43,784.11 C592.13,784.60 591.29,785.00 590.58,785.00 C589.86,785.00 588.00,786.00 586.45,787.22 ZM 808.01 587.97 C806.78,592.95 805.31,597.31 804.74,597.66 C804.05,598.09 803.99,597.33 804.55,595.40 C805.01,593.80 805.41,589.88 805.44,586.67 C805.49,582.11 805.92,580.53 807.43,579.43 C808.49,578.66 809.55,578.22 809.80,578.47 C810.04,578.71 809.24,582.99 808.01,587.97 ZM 631.29 254.10 C632.27,255.15 632.72,255.96 632.29,255.92 C630.54,255.75 622.07,251.27 622.56,250.78 C622.85,250.49 622.05,250.24 620.79,250.22 C619.53,250.21 616.47,249.29 614.00,248.18 L 609.50 246.16 L 614.94 246.57 C617.93,246.80 620.64,247.42 620.97,247.95 C621.30,248.49 623.35,249.66 625.54,250.57 C627.72,251.47 630.31,253.06 631.29,254.10 ZM 419.53 780.35 C418.60,780.71 417.76,780.93 417.67,780.85 C417.58,780.77 416.15,780.51 414.50,780.27 C412.85,780.03 410.80,779.20 409.94,778.43 C409.07,777.66 406.90,776.51 405.11,775.89 C403.32,775.26 402.23,774.37 402.70,773.90 C403.17,773.43 407.53,774.55 412.39,776.38 C418.41,778.64 420.69,779.91 419.53,780.35 ZM 708.61 278.19 C709.51,279.63 707.29,279.05 706.00,277.50 C705.32,276.67 704.05,276.00 703.20,276.00 C702.34,276.00 700.24,274.54 698.52,272.75 C696.81,270.96 693.70,268.22 691.63,266.65 C689.56,265.09 688.10,263.57 688.39,263.28 C688.90,262.77 707.61,276.55 708.61,278.19 ZM 220.42 597.43 C221.27,601.24 221.82,604.51 221.64,604.69 C221.32,605.01 216.78,590.10 215.61,584.84 C215.28,583.38 214.69,581.36 214.31,580.34 C213.65,578.61 213.71,578.60 215.33,580.20 C216.27,581.13 217.45,583.83 217.95,586.20 C218.45,588.56 219.56,593.62 220.42,597.43 ZM 586.50 237.62 C592.37,240.39 590.39,240.47 580.00,237.88 C566.66,234.55 565.86,234.13 574.00,234.71 C578.86,235.07 583.26,236.09 586.50,237.62 ZM 785.27 375.50 C790.01,385.05 790.64,389.04 786.03,380.36 C784.68,377.80 782.94,375.08 782.17,374.31 C780.66,372.80 778.78,366.00 779.88,366.00 C780.25,366.00 782.67,370.27 785.27,375.50 ZM 458.00 790.06 C459.09,790.70 458.62,790.95 456.31,790.97 C454.55,790.99 452.84,790.55 452.50,790.00 C452.16,789.45 450.22,788.99 448.19,788.97 C444.85,788.95 434.91,785.27 437.67,785.08 C439.49,784.96 456.32,789.08 458.00,790.06 ZM 217.82 439.25 C217.24,440.76 216.37,442.00 215.90,442.00 C214.73,442.00 215.80,437.09 219.15,427.00 C220.70,422.33 221.74,419.62 221.45,421.00 C221.16,422.38 220.46,426.42 219.91,430.00 C219.35,433.58 218.41,437.74 217.82,439.25 ZM 245.60 658.11 C246.48,659.09 247.00,660.47 246.75,661.19 C246.51,661.91 243.76,657.44 240.64,651.25 C237.53,645.06 235.20,640.00 235.47,640.00 C235.74,640.00 236.82,641.69 237.87,643.75 C238.93,645.81 240.74,648.36 241.89,649.40 C243.05,650.45 244.00,652.44 244.00,653.83 C244.00,655.21 244.72,657.14 245.60,658.11 ZM 239.88 376.75 C235.99,382.83 236.90,380.02 242.07,369.95 C247.38,359.63 249.78,357.02 246.04,365.65 C244.88,368.32 243.49,371.17 242.94,372.00 C242.40,372.83 241.02,374.96 239.88,376.75 ZM 568.44 812.48 C567.57,812.65 566.80,812.80 566.10,812.93 C561.24,813.87 560.20,814.07 560.01,813.75 C559.96,813.67 559.97,813.54 559.98,813.38 C559.99,813.30 560.00,813.21 560.00,813.11 C560.00,811.96 563.38,811.13 571.22,810.35 C579.65,809.50 578.21,810.61 568.44,812.48 ZM 528.00 325.46 C528.00,326.76 523.13,325.65 519.09,323.43 C515.99,321.72 515.30,321.00 516.76,321.00 C518.99,321.00 528.00,324.58 528.00,325.46 ZM 268.94 656.06 C272.46,661.49 272.63,662.66 269.57,660.43 C267.89,659.20 264.61,652.06 265.38,651.29 C265.54,651.13 267.14,653.28 268.94,656.06 ZM 325.01 501.60 C325.00,502.20 324.10,503.50 323.00,504.50 C321.90,505.50 321.00,506.03 321.00,505.68 C321.00,504.12 325.49,496.03 326.59,495.61 C327.48,495.26 327.43,495.87 326.41,497.82 C325.64,499.29 325.01,500.99 325.01,501.60 ZM 254.00 397.00 C251.85,401.21 251.00,401.94 251.00,399.57 C251.00,396.72 252.98,393.00 254.50,393.00 C255.81,393.00 255.73,393.61 254.00,397.00 ZM 253.80 626.75 C255.60,630.17 255.75,631.00 254.56,631.00 C252.63,631.00 250.78,627.51 251.22,624.70 C251.51,622.83 251.90,623.14 253.80,626.75 ZM 458.56 811.47 C460.98,813.30 459.47,813.31 452.50,811.52 L 447.50 810.24 L 452.06 810.12 C454.69,810.05 457.44,810.62 458.56,811.47 ZM 399.40 772.16 C398.59,773.48 397.63,773.18 394.00,770.50 C392.14,769.12 391.13,768.00 391.77,768.00 C393.87,768.00 399.93,771.31 399.40,772.16 ZM 773.00 625.28 C773.00,626.71 771.88,629.15 770.50,630.69 L 768.01 633.50 L 770.13 628.50 C772.77,622.29 773.00,622.04 773.00,625.28 ZM 213.90 452.06 C213.96,454.75 213.38,457.41 212.48,458.56 C212.43,458.64 212.37,458.71 212.31,458.78 C211.81,459.43 211.48,459.85 211.34,459.79 C211.07,459.69 211.48,457.84 212.69,452.47 L 212.90 451.50 L 213.80 447.50 ZM 323.43 519.53 C324.36,520.95 324.98,523.10 324.81,524.30 C324.56,526.06 324.14,525.67 322.59,522.23 C320.40,517.35 320.91,515.69 323.43,519.53 ZM 679.81 751.74 C679.31,754.35 676.00,754.64 676.00,752.07 C676.00,750.64 676.64,750.00 678.07,750.00 C679.50,750.00 680.04,750.54 679.81,751.74 ZM 757.00 657.03 C757.00,657.51 755.88,659.11 754.50,660.59 C751.13,664.23 751.35,662.99 755.09,657.25 C756.79,654.64 757.92,653.32 757.59,654.33 C757.27,655.34 757.00,656.55 757.00,657.03 ZM 496.00 228.89 C496.00,229.39 494.20,229.96 492.00,230.17 C487.27,230.62 486.64,229.52 491.12,228.62 C495.28,227.79 496.00,227.83 496.00,228.89 ZM 792.00 634.34 C792.00,635.04 791.34,636.49 790.53,637.56 C789.12,639.42 789.06,639.40 789.03,636.86 C789.01,635.40 789.67,633.95 790.50,633.64 C791.35,633.31 792.00,633.62 792.00,634.34 ZM 390.54 233.93 C390.18,234.52 388.67,234.98 387.19,234.96 L 384.50 234.92 L 387.34 233.38 C390.26,231.80 391.71,232.05 390.54,233.93 ZM 501.77 324.20 C501.55,324.85 500.05,325.73 498.43,326.15 L 495.50 326.91 L 497.86 324.95 C500.52,322.76 502.37,322.40 501.77,324.20 ZM 321.36 276.00 C320.42,276.00 318.92,276.56 318.03,277.25 C317.13,277.94 317.98,277.06 319.92,275.31 C323.56,272.02 324.69,271.77 323.65,274.46 C323.33,275.31 322.30,276.00 321.36,276.00 ZM 233.87 633.92 C234.59,634.36 235.02,635.79 234.84,637.08 C234.51,639.39 234.47,639.38 233.21,636.59 C231.77,633.40 231.94,632.73 233.87,633.92 ZM 234.92 387.14 C234.97,388.65 234.34,390.04 233.48,390.37 C232.30,390.82 232.16,390.56 232.84,389.23 C233.33,388.28 233.98,386.83 234.29,386.00 C234.61,385.12 234.87,385.59 234.92,387.14 ZM 412.15 648.48 C419.42,641.78 432.94,628.60 447.50,613.96 L 484.50 576.75 L 447.50 613.99 C429.28,632.33 418.98,642.66 412.15,648.48 ZM 404.61 369.73 C405.11,369.91 405.58,370.11 406.00,370.32 C406.77,370.72 410.18,373.81 415.32,378.70 C409.97,373.71 406.60,370.90 404.61,369.73 ZM 375.47 412.19 C379.95,417.04 387.78,425.14 397.16,434.65 C385.71,423.14 379.25,416.49 375.47,412.19 ZM 382.00 605.15 C375.94,611.54 372.15,615.82 370.34,618.30 C370.44,618.04 370.54,617.82 370.64,617.62 C371.05,616.79 375.35,612.10 382.00,605.15 ZM 645.61 608.80 C639.71,602.63 630.76,593.48 620.62,583.25 C632.98,595.69 640.71,603.55 645.61,608.80 ZM 409.85 538.84 C430.41,538.97 445.57,539.23 445.83,539.49 C445.83,539.50 445.83,539.50 445.83,539.51 C445.09,539.27 430.13,539.00 409.85,538.84 ZM 610.16 572.73 C591.93,554.33 577.99,539.68 578.38,539.28 C578.39,539.28 578.39,539.28 578.39,539.28 C578.06,539.73 591.94,554.33 610.16,572.73 ZM 577.63 483.80 L 576.93 484.50 L 576.93 484.50 Z" fill="rgb(242,121,46)"/>
<path d="M 0.00 512.00 L 0.00 0.00 L 512.00 0.00 L 1024.00 0.00 L 1024.00 512.00 L 1024.00 1024.00 L 512.00 1024.00 L 0.00 1024.00 L 0.00 512.00 ZM 568.44 812.48 C578.21,810.61 579.65,809.50 571.22,810.35 C563.38,811.13 560.00,811.96 560.00,813.11 C560.00,814.21 559.06,814.28 568.44,812.48 ZM 458.56 811.47 C457.44,810.62 454.69,810.05 452.06,810.12 L 447.50 810.24 L 452.50 811.52 C459.47,813.31 460.98,813.30 458.56,811.47 ZM 602.50 803.73 C615.25,799.80 619.05,797.36 607.41,800.58 C604.16,801.48 599.70,802.55 597.50,802.97 C591.30,804.14 582.67,807.37 582.26,808.67 C581.82,810.04 582.99,809.75 602.50,803.73 ZM 416.00 800.50 C415.32,799.67 413.79,799.00 412.60,799.00 C411.41,799.00 409.51,798.35 408.37,797.55 C405.93,795.84 398.21,793.04 395.88,793.01 C395.00,793.01 393.09,792.07 391.64,790.93 C390.19,789.79 387.99,789.01 386.75,789.19 C384.42,789.53 388.36,791.36 407.00,798.60 C416.69,802.37 417.73,802.59 416.00,800.50 ZM 533.55 796.10 C534.07,795.60 535.37,795.04 536.43,794.85 C537.48,794.66 526.83,794.50 512.76,794.50 C498.68,794.50 487.39,794.72 487.67,795.00 C487.94,795.28 497.46,795.75 508.83,796.06 C520.20,796.37 530.20,796.71 531.05,796.81 C531.90,796.92 533.03,796.59 533.55,796.10 ZM 644.62 787.04 C673.23,773.25 693.45,759.59 718.00,737.47 C729.58,727.03 742.62,713.29 741.76,712.43 C741.27,711.94 734.92,718.28 727.92,726.25 C725.62,728.86 722.90,731.00 721.87,731.00 C720.84,731.00 720.00,731.46 720.00,732.02 C720.00,733.79 705.74,747.03 703.12,747.68 C701.75,748.03 698.96,749.93 696.92,751.91 C691.80,756.87 686.44,761.00 685.11,761.00 C684.50,761.00 683.13,761.79 682.07,762.75 C678.19,766.27 676.71,767.31 672.15,769.72 C669.59,771.07 666.60,772.99 665.50,774.00 C664.40,775.00 660.61,776.98 657.08,778.41 C653.55,779.83 649.95,781.60 649.08,782.34 C645.42,785.45 638.06,788.73 635.76,788.29 C633.96,787.95 632.90,788.50 631.65,790.42 C630.72,791.84 629.32,793.00 628.54,793.00 C627.76,793.00 626.81,793.50 626.43,794.11 C625.29,795.95 629.55,794.30 644.62,787.04 ZM 458.00 790.06 C456.32,789.08 439.49,784.96 437.67,785.08 C434.91,785.27 444.85,788.95 448.19,788.97 C450.22,788.99 452.16,789.45 452.50,790.00 C452.84,790.55 454.55,790.99 456.31,790.97 C458.62,790.95 459.09,790.70 458.00,790.06 ZM 586.45 787.22 C588.00,786.00 589.86,785.00 590.58,785.00 C591.29,785.00 592.13,784.60 592.43,784.11 C592.73,783.62 588.82,784.26 583.74,785.53 C578.66,786.80 572.70,788.25 570.50,788.75 C567.12,789.52 567.83,789.64 575.07,789.55 C582.30,789.45 584.07,789.09 586.45,787.22 ZM 384.00 788.52 C384.00,788.25 381.83,786.94 379.19,785.59 C376.54,784.25 373.79,782.45 373.06,781.58 C372.34,780.71 370.74,780.00 369.50,780.00 C368.26,780.00 366.68,779.33 366.00,778.50 C365.32,777.67 364.14,777.00 363.39,777.00 C362.63,777.00 360.81,775.65 359.34,774.00 C357.87,772.35 355.87,771.00 354.89,771.00 C352.03,771.00 326.51,753.42 325.20,750.55 C324.47,748.95 323.23,748.00 321.85,748.00 C320.64,748.00 318.83,747.26 317.83,746.35 C316.82,745.43 316.00,744.95 316.00,745.27 C316.00,746.15 332.54,758.98 341.20,764.81 C351.83,771.97 357.60,775.36 371.50,782.66 C384.40,789.42 384.00,789.23 384.00,788.52 ZM 419.53 780.35 C420.69,779.91 418.41,778.64 412.39,776.38 C407.53,774.55 403.17,773.43 402.70,773.90 C402.23,774.37 403.32,775.26 405.11,775.89 C406.90,776.51 409.07,777.66 409.94,778.43 C410.80,779.20 412.85,780.03 414.50,780.27 C416.15,780.51 417.58,780.77 417.67,780.85 C417.76,780.93 418.60,780.71 419.53,780.35 ZM 617.36 776.49 C618.94,775.67 620.88,775.00 621.67,775.00 C622.52,775.00 622.82,774.52 622.39,773.83 C621.93,773.08 622.19,772.86 623.14,773.22 C624.88,773.89 631.00,771.50 631.00,770.16 C631.00,769.64 632.20,768.92 633.67,768.55 C635.14,768.18 637.50,766.94 638.92,765.80 C641.83,763.46 642.00,763.41 632.50,767.88 C628.65,769.70 622.12,772.53 618.00,774.18 C613.88,775.83 610.31,777.36 610.08,777.59 C608.97,778.69 614.85,777.80 617.36,776.49 ZM 399.40 772.16 C399.93,771.31 393.87,768.00 391.77,768.00 C391.13,768.00 392.14,769.12 394.00,770.50 C397.63,773.18 398.59,773.48 399.40,772.16 ZM 679.81 751.74 C680.04,750.54 679.50,750.00 678.07,750.00 C676.64,750.00 676.00,750.64 676.00,752.07 C676.00,754.64 679.31,754.35 679.81,751.74 ZM 699.00 725.93 C699.00,725.46 701.03,723.90 703.50,722.45 C705.97,721.00 708.00,719.12 708.00,718.28 C708.00,717.44 712.16,712.63 717.25,707.61 C722.34,702.58 727.37,697.12 728.42,695.48 C729.48,693.84 725.72,697.34 720.07,703.25 C714.42,709.16 706.46,717.11 702.39,720.90 C698.33,724.70 695.90,727.58 697.00,727.29 C698.10,727.00 699.00,726.39 699.00,725.93 ZM 304.31 703.25 C293.81,691.50 285.48,681.11 279.04,671.72 C276.11,667.44 273.29,663.68 272.77,663.36 C271.39,662.50 274.90,668.98 277.11,671.34 C278.15,672.46 279.00,673.95 279.00,674.64 C279.00,675.34 280.01,676.95 281.25,678.21 C282.49,679.48 284.85,682.28 286.50,684.45 C288.15,686.61 290.96,690.03 292.75,692.06 C294.54,694.08 296.00,696.38 296.00,697.15 C296.00,697.92 296.79,699.31 297.75,700.23 C298.71,701.15 299.95,702.34 300.50,702.88 C304.33,706.65 310.64,711.95 311.31,711.97 C311.76,711.99 308.61,708.06 304.31,703.25 ZM 753.19 699.25 C761.81,688.04 770.91,674.60 776.73,664.50 C782.20,655.00 789.22,640.89 788.72,640.39 C787.78,639.45 777.76,656.83 776.61,661.39 C776.32,662.55 775.05,663.95 773.79,664.50 C772.48,665.07 771.35,666.56 771.16,668.00 C770.97,669.38 770.25,671.17 769.55,672.00 C768.86,672.83 767.22,675.69 765.91,678.37 C764.60,681.05 762.96,683.46 762.26,683.73 C761.57,684.00 761.00,684.77 761.00,685.44 C761.00,686.12 759.31,688.28 757.25,690.25 C755.19,692.21 752.45,695.21 751.17,696.92 C747.94,701.21 743.88,709.00 744.88,709.00 C745.33,709.00 749.07,704.61 753.19,699.25 ZM 277.48 704.25 C276.77,702.17 274.99,699.76 273.50,698.85 C270.74,697.17 264.47,689.16 263.01,685.44 C262.56,684.31 261.09,682.06 259.74,680.44 C258.38,678.82 256.07,674.96 254.61,671.85 C253.15,668.74 250.76,665.42 249.31,664.47 L 246.68 662.74 L 249.01 666.62 C253.08,673.39 262.26,687.37 265.02,691.00 C271.73,699.82 278.20,708.00 278.47,708.00 C278.63,708.00 278.19,706.31 277.48,704.25 ZM 509.00 703.00 C509.00,702.45 508.30,702.00 507.45,702.00 C502.48,702.00 493.00,695.03 493.00,691.38 C493.00,690.64 491.60,687.76 489.89,684.98 C487.87,681.70 486.97,679.15 487.32,677.71 C487.61,676.50 488.32,673.70 488.88,671.50 C489.45,669.30 490.20,663.97 490.55,659.66 C491.04,653.60 491.66,651.34 493.27,649.73 C495.01,647.99 495.49,645.76 496.21,636.07 C496.69,629.71 497.51,623.47 498.04,622.20 C498.57,620.94 499.00,618.11 499.00,615.92 C499.00,613.73 499.67,610.32 500.50,608.35 C502.13,604.44 502.62,588.50 501.13,587.58 C500.65,587.29 499.98,585.27 499.63,583.11 C499.15,580.06 497.73,577.93 493.32,573.63 C490.20,570.58 486.39,567.81 484.87,567.47 C480.37,566.48 471.14,569.97 466.93,574.25 C464.90,576.31 462.76,578.00 462.17,578.00 C461.59,578.00 459.17,580.36 456.81,583.25 C454.44,586.13 449.29,591.68 445.37,595.58 C441.45,599.47 437.90,603.75 437.48,605.08 C437.06,606.41 435.94,608.05 434.99,608.71 C434.04,609.38 433.00,611.26 432.67,612.89 C432.29,614.80 431.10,616.32 429.33,617.18 C427.60,618.01 426.22,619.74 425.62,621.81 C425.04,623.86 423.60,625.67 421.84,626.58 C420.21,627.42 419.00,628.87 419.00,629.97 C419.00,631.03 417.88,633.11 416.50,634.59 C415.12,636.08 414.00,638.30 414.00,639.53 C414.00,640.79 412.95,642.46 411.59,643.35 C409.95,644.42 409.34,645.57 409.68,646.88 C410.28,649.19 406.83,651.45 403.87,650.68 C402.72,650.38 400.80,651.14 399.08,652.59 C395.78,655.36 389.94,655.84 388.00,653.50 C387.32,652.67 385.52,652.00 384.02,652.00 C382.17,652.00 379.77,650.59 376.64,647.68 C372.83,644.14 372.00,642.73 372.00,639.87 C372.00,637.95 371.34,635.51 370.53,634.44 C368.42,631.65 368.67,628.09 371.11,626.11 C372.66,624.86 373.26,623.15 373.38,619.65 C373.53,615.12 375.26,612.42 377.23,613.64 C377.68,613.92 379.28,612.84 380.78,611.24 C382.39,609.52 385.87,607.59 389.34,606.50 C393.93,605.06 395.69,603.90 397.55,601.08 C400.76,596.24 402.59,594.00 403.36,594.00 C403.71,594.00 404.90,593.10 406.00,592.00 C407.10,590.90 409.14,590.00 410.53,590.00 C411.92,590.00 413.33,589.31 413.65,588.46 C413.98,587.61 416.10,585.98 418.37,584.84 C422.89,582.58 427.00,579.18 427.00,577.72 C427.00,576.67 430.77,573.50 435.58,570.50 C445.81,564.11 451.44,558.37 454.19,551.50 C457.30,543.70 457.53,539.01 455.00,534.73 C450.64,527.33 442.80,525.04 419.25,524.28 C407.71,523.90 405.22,524.11 400.00,525.92 C395.57,527.45 391.52,528.00 384.58,528.00 C375.35,528.00 371.62,528.57 372.40,529.85 C372.61,530.21 372.06,531.17 371.17,532.00 C370.28,532.83 369.54,533.34 369.52,533.14 C369.46,532.16 349.24,534.45 347.42,535.65 C345.58,536.85 344.78,536.73 340.83,534.62 C338.35,533.31 334.95,531.93 333.27,531.56 C331.58,531.19 329.42,530.01 328.45,528.94 C327.48,527.87 326.23,527.00 325.66,527.00 C323.44,527.00 330.73,533.21 335.97,535.78 L 341.50 538.50 L 393.40 538.74 C421.95,538.87 445.55,539.22 445.86,539.52 C446.16,539.83 429.71,556.82 409.30,577.29 C388.89,597.76 371.49,615.90 370.64,617.62 C369.78,619.34 368.79,623.61 368.44,627.12 C366.87,642.74 378.73,656.01 394.22,655.99 C405.59,655.97 406.51,655.24 447.50,613.99 L 484.50 576.75 L 485.19 580.63 C485.57,582.76 485.91,606.13 485.94,632.57 C486.01,686.34 486.11,687.25 492.73,694.79 C495.25,697.66 498.49,699.88 502.50,701.51 C509.55,704.38 509.00,704.25 509.00,703.00 ZM 526.87 699.20 C531.14,696.33 535.15,691.28 537.12,686.29 C537.88,684.36 538.17,667.28 538.06,631.23 C537.97,602.49 538.20,578.48 538.57,577.89 C538.95,577.28 555.33,592.86 576.88,614.34 C607.09,644.46 615.48,652.28 619.35,653.93 C625.84,656.72 635.63,656.74 641.04,653.98 C643.22,652.87 645.00,651.81 645.00,651.62 C645.00,650.57 636.53,652.12 635.08,653.43 C632.68,655.60 627.76,655.39 625.00,653.00 C623.70,651.88 621.26,651.00 619.42,651.00 C616.06,651.00 613.00,648.88 613.00,646.55 C613.00,645.83 612.38,644.73 611.61,644.09 C610.85,643.46 609.72,640.93 609.10,638.47 C608.48,636.01 607.59,634.00 607.13,634.00 C606.67,634.00 605.87,632.54 605.36,630.75 C604.65,628.27 603.81,627.43 601.77,627.19 C600.05,626.99 598.85,626.09 598.42,624.69 C598.04,623.48 596.00,620.60 593.87,618.27 C591.74,615.95 590.00,613.65 590.00,613.18 C590.00,612.70 589.10,611.27 588.00,610.00 C586.90,608.73 586.00,606.82 586.00,605.74 C586.00,602.65 580.37,596.36 575.48,593.99 C573.02,592.80 571.00,591.16 571.00,590.34 C571.00,587.77 565.21,580.32 561.51,578.14 C559.55,576.98 557.69,575.34 557.36,574.49 C556.38,571.95 548.55,567.97 543.29,567.35 C534.61,566.32 526.49,572.70 523.78,582.68 C522.01,589.23 521.30,604.17 522.61,607.50 C523.26,609.15 523.79,612.80 523.78,615.60 C523.77,618.41 524.21,621.56 524.76,622.60 C525.30,623.65 526.07,627.20 526.46,630.50 C527.54,639.53 529.86,648.97 532.24,653.95 C533.41,656.39 534.53,660.89 534.72,663.95 C534.92,667.00 535.56,671.12 536.15,673.11 C537.00,675.94 536.88,677.92 535.58,682.36 C534.68,685.46 533.51,688.00 532.97,688.00 C532.44,688.00 532.00,688.88 532.00,689.97 C532.00,692.14 526.45,698.98 524.65,699.03 C524.02,699.05 522.63,699.72 521.56,700.53 C517.88,703.31 522.45,702.16 526.87,699.20 ZM 738.60 685.00 C739.37,685.00 740.00,684.36 740.00,683.58 C740.00,682.79 741.12,680.82 742.50,679.18 C743.88,677.55 745.00,675.83 745.00,675.36 C745.01,674.89 746.35,672.47 748.00,670.00 C749.65,667.53 750.99,665.09 751.00,664.59 C751.00,664.09 748.23,667.69 744.85,672.59 C741.47,677.49 736.97,683.59 734.85,686.14 C732.73,688.69 731.02,691.17 731.03,691.64 C731.05,692.11 732.45,690.81 734.13,688.75 C735.82,686.69 737.83,685.00 738.60,685.00 ZM 757.00 657.03 C757.00,656.55 757.27,655.34 757.59,654.33 C757.92,653.32 756.79,654.64 755.09,657.25 C751.35,662.99 751.13,664.23 754.50,660.59 C755.88,659.11 757.00,657.51 757.00,657.03 ZM 245.60 658.11 C244.72,657.14 244.00,655.21 244.00,653.83 C244.00,652.44 243.05,650.45 241.89,649.40 C240.74,648.36 238.93,645.81 237.87,643.75 C236.82,641.69 235.74,640.00 235.47,640.00 C235.20,640.00 237.53,645.06 240.64,651.25 C243.76,657.44 246.51,661.91 246.75,661.19 C247.00,660.47 246.48,659.09 245.60,658.11 ZM 268.94 656.06 C267.14,653.28 265.54,651.13 265.38,651.29 C264.61,652.06 267.89,659.20 269.57,660.43 C272.63,662.66 272.46,661.49 268.94,656.06 ZM 654.39 639.98 C656.46,634.82 656.44,626.70 654.37,620.43 C652.91,616.04 648.65,611.40 615.17,577.78 C594.51,557.03 577.96,539.70 578.39,539.28 C578.82,538.85 601.29,538.63 628.33,538.78 C680.37,539.09 684.11,538.83 691.04,534.47 C699.74,529.00 704.89,518.54 703.52,509.15 C702.73,503.77 699.56,496.00 698.15,496.00 C696.92,496.00 697.88,500.03 699.59,502.02 C700.38,502.94 700.99,506.80 701.14,511.90 C701.37,519.55 701.19,520.43 699.12,522.11 C697.87,523.12 697.11,524.37 697.43,524.89 C698.40,526.45 693.03,532.00 690.55,532.00 C689.29,532.00 687.20,532.83 685.88,533.84 C682.61,536.38 677.73,537.19 675.40,535.59 C674.35,534.88 670.08,534.02 665.90,533.67 C656.78,532.93 655.35,532.45 654.69,529.93 C654.32,528.51 653.30,528.00 650.84,527.98 C643.41,527.95 623.63,525.94 622.60,525.11 C620.78,523.65 616.18,523.06 602.16,522.48 C589.26,521.95 588.66,522.02 583.66,524.53 C569.12,531.83 567.95,533.02 567.79,540.66 C567.67,546.72 571.20,555.24 574.59,557.05 C575.95,557.77 577.31,559.39 577.63,560.64 C578.03,562.25 580.24,563.90 585.06,566.21 C590.58,568.86 591.93,569.95 591.96,571.82 C592.00,574.03 594.06,577.00 595.56,577.00 C595.94,577.00 598.00,578.58 600.13,580.50 C602.26,582.42 604.80,584.00 605.76,584.00 C606.73,584.00 608.64,585.35 610.00,587.00 C611.44,588.74 613.44,590.00 614.77,590.00 C616.14,590.00 618.30,591.41 620.13,593.50 C621.82,595.42 623.85,597.00 624.63,597.00 C625.41,597.00 626.44,598.01 626.91,599.25 C628.21,602.66 631.65,605.33 633.95,604.72 C635.25,604.38 637.32,605.24 639.74,607.10 C641.81,608.70 644.76,610.98 646.31,612.16 C649.56,614.66 652.21,619.29 651.48,621.20 C651.20,621.92 651.88,624.30 652.99,626.47 C655.37,631.15 655.47,632.36 653.60,633.92 C652.20,635.08 650.90,644.00 652.13,644.00 C652.49,644.00 653.51,642.19 654.39,639.98 ZM 233.87 633.92 C231.94,632.73 231.77,633.40 233.21,636.59 C234.47,639.38 234.51,639.39 234.84,637.08 C235.02,635.79 234.59,634.36 233.87,633.92 ZM 792.00 634.34 C792.00,633.62 791.35,633.31 790.50,633.64 C789.67,633.95 789.01,635.40 789.03,636.86 C789.06,639.40 789.12,639.42 790.53,637.56 C791.34,636.49 792.00,635.04 792.00,634.34 ZM 773.00 625.28 C773.00,622.04 772.77,622.29 770.13,628.50 L 768.01 633.50 L 770.50 630.69 C771.88,629.15 773.00,626.71 773.00,625.28 ZM 796.47 623.50 C800.98,612.09 802.94,606.00 802.11,606.00 C800.95,606.00 796.24,615.75 794.62,621.50 C790.98,634.41 791.81,635.30 796.47,623.50 ZM 253.80 626.75 C251.90,623.14 251.51,622.83 251.22,624.70 C250.78,627.51 252.63,631.00 254.56,631.00 C255.75,631.00 255.60,630.17 253.80,626.75 ZM 220.42 597.43 C219.56,593.62 218.45,588.56 217.95,586.20 C217.45,583.83 216.27,581.13 215.33,580.20 C213.71,578.60 213.65,578.61 214.31,580.34 C214.69,581.36 215.28,583.38 215.61,584.84 C216.78,590.10 221.32,605.01 221.64,604.69 C221.82,604.51 221.27,601.24 220.42,597.43 ZM 240.95 591.75 C239.41,586.66 237.04,577.78 235.69,572.00 L 233.23 561.50 L 233.11 567.75 C233.05,571.19 233.39,574.00 233.86,574.00 C234.33,574.00 234.99,576.30 235.33,579.11 C235.66,581.91 236.35,584.73 236.87,585.36 C237.38,585.99 238.32,588.53 238.95,591.00 C240.49,597.08 242.08,601.00 243.00,601.00 C243.42,601.00 242.49,596.84 240.95,591.75 ZM 808.01 587.97 C809.24,582.99 810.04,578.71 809.80,578.47 C809.55,578.22 808.49,578.66 807.43,579.43 C805.92,580.53 805.49,582.11 805.44,586.67 C805.41,589.88 805.01,593.80 804.55,595.40 C803.99,597.33 804.05,598.09 804.74,597.66 C805.31,597.31 806.78,592.95 808.01,587.97 ZM 814.03 558.00 C816.71,540.41 818.28,515.45 817.53,502.50 C816.16,479.06 812.96,454.35 810.85,451.00 C809.85,449.42 809.95,450.50 812.16,465.50 C812.80,469.90 813.37,475.98 813.42,479.00 C813.46,482.02 813.81,484.98 814.19,485.56 C816.57,489.20 814.71,551.49 811.91,562.20 C811.29,564.57 810.60,568.53 810.39,571.00 C809.64,579.69 812.02,571.18 814.03,558.00 ZM 229.61 511.30 C229.62,497.17 229.46,486.25 229.24,487.05 C229.02,487.85 228.60,489.17 228.31,490.00 C227.44,492.45 227.34,533.00 228.21,533.00 C228.64,533.00 229.00,533.90 229.00,535.00 C229.00,536.10 229.13,537.00 229.29,537.00 C229.46,537.00 229.60,525.44 229.61,511.30 ZM 796.05 509.50 C796.19,499.60 795.90,490.51 795.40,489.31 C794.83,487.92 794.50,495.96 794.50,511.19 C794.50,524.43 794.79,533.51 795.14,531.38 C795.50,529.25 795.90,519.40 796.05,509.50 ZM 323.43 519.53 C320.91,515.69 320.40,517.35 322.59,522.23 C324.14,525.67 324.56,526.06 324.81,524.30 C324.98,523.10 324.36,520.95 323.43,519.53 ZM 325.01 501.60 C325.01,500.99 325.64,499.29 326.41,497.82 C327.43,495.87 327.48,495.26 326.59,495.61 C325.49,496.03 321.00,504.12 321.00,505.68 C321.00,506.03 321.90,505.50 323.00,504.50 C324.10,503.50 325.00,502.20 325.01,501.60 ZM 439.18 499.57 C444.68,499.18 449.14,496.34 452.39,491.14 C456.01,485.36 456.11,483.36 453.23,474.28 C450.96,467.13 449.88,465.24 445.99,461.68 C439.23,455.51 435.76,453.00 433.97,453.00 C432.11,453.00 428.07,448.87 425.48,444.34 C423.78,441.36 420.36,439.00 417.74,439.00 C417.10,439.00 415.43,437.88 414.04,436.52 C412.64,435.16 409.77,432.34 407.65,430.27 C405.53,428.20 403.50,426.48 403.15,426.45 C400.77,426.27 398.34,424.69 397.49,422.78 C396.91,421.48 393.40,418.97 389.05,416.75 C384.96,414.66 380.82,412.24 379.86,411.38 C378.91,410.51 377.68,410.08 377.14,410.41 C375.45,411.46 373.00,408.01 373.00,404.58 C373.00,402.58 372.22,400.61 371.00,399.50 C368.58,397.31 368.27,390.85 370.50,389.00 C371.33,388.32 372.00,386.66 372.00,385.33 C372.00,379.45 379.41,372.00 385.26,372.00 C386.83,372.00 388.32,371.34 388.64,370.50 C389.54,368.16 397.25,368.51 399.50,371.00 C400.56,372.17 402.60,373.01 404.40,373.02 C408.34,373.03 409.62,373.87 410.91,377.27 C411.48,378.77 412.64,380.00 413.48,380.00 C414.34,380.00 415.00,380.88 415.00,382.01 C415.00,383.12 415.90,384.79 417.00,385.73 C418.10,386.67 419.00,388.50 419.00,389.80 C419.00,391.12 420.28,393.33 421.91,394.83 C430.57,402.78 433.88,406.85 434.97,410.89 C435.55,413.04 436.63,415.03 437.37,415.31 C438.11,415.60 438.99,417.20 439.33,418.88 C439.70,420.76 442.35,424.41 446.22,428.38 C449.67,431.93 454.45,437.12 456.83,439.92 C459.28,442.79 462.01,445.00 463.10,445.00 C464.21,445.00 465.54,446.09 466.19,447.52 C467.70,450.83 475.12,455.68 479.94,456.49 C484.56,457.27 491.08,455.68 493.30,453.22 C494.19,452.24 496.15,448.75 497.64,445.47 C500.30,439.65 500.37,439.04 500.32,421.27 C500.29,408.11 499.93,402.62 499.02,401.52 C498.32,400.68 497.36,396.11 496.88,391.36 C496.39,386.61 494.92,379.30 493.60,375.11 C492.28,370.93 490.88,363.90 490.48,359.50 C490.09,355.10 489.08,350.32 488.24,348.87 C486.80,346.40 486.93,345.75 490.36,337.77 C494.68,327.71 494.81,326.88 491.47,330.86 C490.08,332.51 487.99,336.71 486.84,340.18 C484.80,346.34 484.76,347.74 485.24,395.00 C485.51,421.67 485.39,444.40 484.96,445.50 C484.30,447.22 478.94,442.20 446.85,409.81 C426.31,389.08 407.92,371.31 406.00,370.32 C400.73,367.62 387.80,367.83 382.50,370.70 C369.98,377.48 364.98,390.87 369.98,404.21 C371.75,408.92 376.06,413.59 409.45,446.96 C434.46,471.95 446.53,484.68 445.72,485.20 C445.05,485.62 422.13,485.98 394.80,485.98 C344.07,486.00 337.70,486.40 333.13,489.89 L 330.76 491.69 L 334.08 491.50 C335.91,491.39 337.57,490.79 337.78,490.17 C337.99,489.54 339.96,488.55 342.16,487.96 C345.33,487.10 346.62,487.17 348.33,488.30 C349.52,489.08 353.65,490.03 357.50,490.41 C361.35,490.79 366.52,491.74 369.00,492.53 C375.17,494.49 388.90,497.00 393.42,497.00 C395.46,497.00 398.03,497.48 399.13,498.07 C403.40,500.35 419.34,500.95 439.18,499.57 ZM 607.56 498.98 C609.04,498.41 614.81,497.51 620.38,496.97 C630.40,496.00 638.57,494.37 640.50,492.96 C641.05,492.55 644.42,491.91 648.00,491.53 C651.58,491.15 656.08,490.44 658.00,489.95 C659.92,489.46 664.10,488.98 667.29,488.88 C670.47,488.77 673.31,488.31 673.60,487.84 C674.51,486.37 680.40,486.93 684.01,488.84 C687.43,490.65 694.00,492.39 694.00,491.50 C694.00,491.25 692.31,490.20 690.25,489.18 C681.49,484.82 679.05,484.65 633.14,485.20 C609.14,485.49 586.67,485.45 583.21,485.11 L 576.93 484.50 L 613.99 447.50 C640.06,421.47 651.70,409.17 653.25,406.00 C659.76,392.65 654.41,376.36 641.54,370.37 C635.16,367.39 626.27,367.22 620.50,369.95 L 616.50 371.84 L 619.63 371.92 C621.35,371.96 623.32,371.33 624.00,370.50 C625.98,368.12 633.22,368.53 634.84,371.11 C635.94,372.88 636.79,373.13 640.00,372.62 C643.61,372.04 644.07,372.27 648.00,376.73 C651.38,380.58 652.05,381.98 651.60,384.26 C651.19,386.29 651.58,387.52 653.02,388.75 C655.37,390.76 655.59,395.63 653.47,398.44 C652.66,399.51 652.00,401.53 652.00,402.94 C651.99,406.16 648.40,412.18 646.71,411.79 C646.02,411.63 643.29,413.27 640.66,415.42 C638.03,417.58 634.73,419.47 633.33,419.62 C630.42,419.93 627.00,422.66 627.00,424.67 C627.00,425.41 624.98,427.01 622.50,428.21 C620.03,429.41 617.75,431.21 617.44,432.20 C617.10,433.25 615.90,434.00 614.57,434.00 C613.30,434.00 611.13,434.90 609.73,436.00 C608.33,437.10 606.50,438.00 605.66,438.00 C604.38,438.00 600.57,441.28 596.50,445.90 C595.95,446.53 593.70,448.41 591.50,450.10 C580.05,458.86 568.75,472.81 567.39,479.85 C566.52,484.33 568.54,490.66 571.83,493.75 C577.90,499.47 579.63,499.99 592.68,500.00 C599.39,500.00 606.08,499.54 607.56,498.98 ZM 238.04 443.00 C239.11,438.88 240.65,433.36 241.45,430.75 C242.25,428.14 242.54,426.00 242.09,426.00 C241.64,426.00 240.48,428.59 239.50,431.75 C238.53,434.91 237.12,438.21 236.37,439.08 C235.61,439.95 235.00,442.56 235.00,444.89 C235.00,447.21 234.60,448.87 234.11,448.57 C232.71,447.70 232.07,451.80 232.75,457.37 L 233.37 462.50 L 234.73 456.50 C235.47,453.20 236.96,447.12 238.04,443.00 ZM 213.90 452.06 L 213.80 447.50 L 212.90 451.50 C210.78,460.99 210.80,460.72 212.48,458.56 C213.38,457.41 213.96,454.75 213.90,452.06 ZM 789.93 453.76 C789.42,451.97 789.00,448.31 789.00,445.62 C789.00,442.62 788.28,439.54 787.12,437.62 C786.09,435.90 784.47,432.11 783.52,429.19 C780.66,420.37 780.96,423.83 783.95,434.15 C785.48,439.45 787.33,446.76 788.05,450.39 C788.78,454.03 789.70,457.00 790.11,457.00 C790.52,457.00 790.44,455.54 789.93,453.76 ZM 545.76 455.12 C546.72,454.63 548.70,453.67 550.17,452.99 C551.64,452.30 553.11,450.71 553.43,449.44 C553.88,447.62 554.66,447.15 557.15,447.22 C559.53,447.29 560.81,446.61 562.40,444.41 C563.55,442.81 565.96,439.87 567.75,437.88 C569.54,435.89 571.00,433.69 571.00,432.99 C571.00,432.29 574.18,428.52 578.06,424.61 C588.59,414.01 590.00,412.37 590.00,410.73 C590.00,409.90 591.84,406.48 594.08,403.11 C597.03,398.69 598.78,397.00 600.38,397.00 C602.84,397.00 605.00,395.28 605.00,393.33 C605.00,391.48 610.08,380.62 611.31,379.83 C612.36,379.16 613.10,375.00 612.17,375.00 C611.89,375.00 595.36,391.25 575.43,411.11 C543.67,442.76 539.12,446.94 538.51,445.04 C538.13,443.85 537.96,420.06 538.13,392.19 L 538.43 341.50 L 536.12 336.32 C534.23,332.06 530.00,326.43 530.00,328.15 C530.00,328.41 531.57,331.74 533.50,335.56 C536.90,342.31 538.25,350.37 536.11,351.17 C535.62,351.35 534.72,356.23 534.11,362.00 C533.21,370.51 532.61,372.82 530.95,374.20 C528.73,376.04 527.02,383.95 527.01,392.42 C527.00,395.70 526.42,397.99 525.25,399.27 C521.88,402.99 522.46,436.83 525.97,441.50 C526.39,442.05 527.03,443.77 527.40,445.33 C527.77,446.88 529.82,449.92 531.96,452.08 C535.22,455.37 536.50,456.00 539.94,456.00 C542.19,456.00 544.81,455.60 545.76,455.12 ZM 806.01 429.30 C803.69,421.16 801.18,413.38 800.44,412.00 L 799.08 409.50 L 799.04 412.10 C799.02,413.52 799.78,416.22 800.73,418.10 C801.68,419.97 802.46,423.67 802.48,426.33 C802.49,429.76 803.01,431.53 804.25,432.44 C805.42,433.30 806.00,435.07 806.00,437.79 C806.00,441.49 808.42,445.91 809.74,444.60 C810.01,444.32 808.34,437.44 806.01,429.30 ZM 217.82 439.25 C218.41,437.74 219.35,433.58 219.91,430.00 C220.46,426.42 221.16,422.38 221.45,421.00 C221.74,419.62 220.70,422.33 219.15,427.00 C215.80,437.09 214.73,442.00 215.90,442.00 C216.37,442.00 217.24,440.76 217.82,439.25 ZM 779.00 412.46 C779.00,411.62 778.28,409.82 777.39,408.47 C776.50,407.12 776.03,405.37 776.33,404.58 C776.93,403.01 774.72,400.61 773.66,401.68 C773.30,402.04 773.00,400.97 773.00,399.30 C773.00,397.63 772.18,395.20 771.17,393.88 C770.17,392.57 768.35,389.40 767.12,386.83 C765.90,384.26 764.33,381.69 763.64,381.11 C762.94,380.54 764.53,384.44 767.18,389.78 C769.82,395.13 773.20,402.76 774.68,406.75 C777.21,413.57 779.00,415.93 779.00,412.46 ZM 254.00 397.00 C255.73,393.61 255.81,393.00 254.50,393.00 C252.98,393.00 251.00,396.72 251.00,399.57 C251.00,401.94 251.85,401.21 254.00,397.00 ZM 234.92 387.14 C234.87,385.59 234.61,385.12 234.29,386.00 C233.98,386.83 233.33,388.28 232.84,389.23 C232.16,390.56 232.30,390.82 233.48,390.37 C234.34,390.04 234.97,388.65 234.92,387.14 ZM 785.27 375.50 C782.67,370.27 780.25,366.00 779.88,366.00 C778.78,366.00 780.66,372.80 782.17,374.31 C782.94,375.08 784.68,377.80 786.03,380.36 C790.64,389.04 790.01,385.05 785.27,375.50 ZM 239.88 376.75 C241.02,374.96 242.40,372.83 242.94,372.00 C243.49,371.17 244.88,368.32 246.04,365.65 C249.78,357.02 247.38,359.63 242.07,369.95 C236.90,380.02 235.99,382.83 239.88,376.75 ZM 756.95 367.83 C756.45,366.08 754.91,363.47 753.52,362.02 C752.13,360.57 751.00,359.01 751.00,358.54 C751.00,358.07 749.88,356.21 748.50,354.41 C747.12,352.61 745.99,350.54 745.98,349.82 C745.97,349.09 743.66,346.02 740.84,343.00 C738.03,339.98 735.06,336.49 734.25,335.25 C733.43,334.01 732.33,333.00 731.79,333.00 C731.25,333.00 732.59,335.14 734.76,337.75 C739.38,343.31 750.52,359.43 754.45,366.25 C755.96,368.86 757.34,371.00 757.53,371.00 C757.71,371.00 757.45,369.57 756.95,367.83 ZM 501.77 324.20 C502.37,322.40 500.52,322.76 497.86,324.95 L 495.50 326.91 L 498.43 326.15 C500.05,325.73 501.55,324.85 501.77,324.20 ZM 528.00 325.46 C528.00,324.58 518.99,321.00 516.76,321.00 C515.30,321.00 515.99,321.72 519.09,323.43 C523.13,325.65 528.00,326.76 528.00,325.46 ZM 321.36 276.00 C322.30,276.00 323.33,275.31 323.65,274.46 C324.69,271.77 323.56,272.02 319.92,275.31 C317.98,277.06 317.13,277.94 318.03,277.25 C318.92,276.56 320.42,276.00 321.36,276.00 ZM 708.61 278.19 C707.61,276.55 688.90,262.77 688.39,263.28 C688.10,263.57 689.56,265.09 691.63,266.65 C693.70,268.22 696.81,270.96 698.52,272.75 C700.24,274.54 702.34,276.00 703.20,276.00 C704.05,276.00 705.32,276.67 706.00,277.50 C707.29,279.05 709.51,279.63 708.61,278.19 ZM 631.29 254.10 C630.31,253.06 627.72,251.47 625.54,250.57 C623.35,249.66 621.30,248.49 620.97,247.95 C620.64,247.42 617.93,246.80 614.94,246.57 L 609.50 246.16 L 614.00 248.18 C616.47,249.29 619.53,250.21 620.79,250.22 C622.05,250.24 622.85,250.49 622.56,250.78 C622.07,251.27 630.54,255.75 632.29,255.92 C632.72,255.96 632.27,255.15 631.29,254.10 ZM 661.00 245.51 C661.00,244.88 636.34,232.53 633.04,231.50 C630.64,230.75 630.62,230.79 632.16,233.12 C633.38,234.94 634.47,235.42 636.87,235.17 C638.59,235.00 640.00,235.22 640.00,235.67 C640.01,236.13 641.98,237.31 644.40,238.31 C646.81,239.30 649.58,240.99 650.55,242.06 C651.52,243.13 653.34,244.00 654.60,244.00 C655.85,244.00 657.16,244.45 657.50,245.00 C658.12,246.01 661.00,246.42 661.00,245.51 ZM 439.44 239.07 C443.32,238.01 449.20,236.59 452.50,235.91 C457.48,234.88 458.07,234.56 456.00,233.99 C454.62,233.62 452.75,233.69 451.82,234.15 C450.90,234.61 448.37,234.92 446.20,234.84 C443.68,234.74 440.99,235.46 438.76,236.84 C436.84,238.03 434.56,239.00 433.69,239.00 C432.83,239.00 431.84,239.45 431.50,240.00 C430.66,241.37 431.32,241.29 439.44,239.07 ZM 586.50 237.62 C583.26,236.09 578.86,235.07 574.00,234.71 C565.86,234.13 566.66,234.55 580.00,237.88 C590.39,240.47 592.37,240.39 586.50,237.62 ZM 390.54 233.93 C391.71,232.05 390.26,231.80 387.34,233.38 L 384.50 234.92 L 387.19 234.96 C388.67,234.98 390.18,234.52 390.54,233.93 ZM 496.00 228.89 C496.00,227.83 495.28,227.79 491.12,228.62 C486.64,229.52 487.27,230.62 492.00,230.17 C494.20,229.96 496.00,229.39 496.00,228.89 Z" fill="rgb(248,115,30)"/>
<path d="M 0.00 512.00 L 0.00 0.00 L 512.00 0.00 L 1024.00 0.00 L 1024.00 512.00 L 1024.00 1024.00 L 512.00 1024.00 L 0.00 1024.00 L 0.00 512.00 ZM 547.28 814.92 C549.04,814.41 552.80,814.00 555.64,814.00 C574.05,814.00 618.97,800.04 649.00,784.98 C694.81,762.02 731.93,729.84 762.74,686.41 C778.71,663.90 796.26,628.44 802.93,605.24 C804.00,601.53 805.79,595.39 806.91,591.60 C811.85,574.92 815.41,553.03 817.05,529.11 C818.73,504.78 816.62,476.90 811.02,449.50 C808.24,435.89 802.30,415.55 799.39,409.67 C798.08,407.01 796.99,403.86 796.98,402.67 C796.96,401.48 795.39,397.60 793.48,394.05 C791.56,390.50 790.00,387.00 790.00,386.28 C790.00,385.09 781.78,368.43 778.77,363.50 C774.10,355.87 758.34,332.61 755.06,328.50 C752.86,325.75 749.25,320.94 747.04,317.82 C737.90,304.91 698.73,268.39 688.00,262.77 C686.08,261.76 679.10,257.37 672.50,253.01 C659.83,244.64 639.88,233.92 631.50,230.98 C614.25,224.93 597.42,219.55 583.50,215.61 C561.92,209.51 521.28,206.02 493.91,207.92 C477.07,209.09 447.64,213.52 437.50,216.41 C418.22,221.91 415.71,222.75 391.50,231.68 C389.30,232.49 386.15,233.96 384.50,234.95 C382.85,235.93 375.74,239.73 368.70,243.39 C355.73,250.12 348.05,254.80 342.36,259.44 C340.64,260.85 338.95,262.00 338.60,262.00 C336.93,262.00 318.15,276.54 307.50,286.07 C296.02,296.36 281.54,311.84 273.42,322.50 C271.32,325.25 267.90,329.75 265.81,332.50 C263.72,335.25 262.01,337.93 262.00,338.45 C262.00,338.97 260.95,340.54 259.68,341.95 C255.34,346.71 244.10,365.56 238.14,378.05 C226.50,402.47 215.32,435.86 212.06,456.00 C205.40,497.04 205.57,529.17 212.64,569.50 C214.80,581.82 218.69,597.28 221.44,604.50 C222.69,607.80 225.60,615.67 227.89,622.00 C249.88,682.59 298.33,740.02 356.59,774.53 C375.80,785.91 404.17,798.55 420.50,803.00 C424.90,804.20 429.98,805.81 431.78,806.59 C433.59,807.37 436.54,808.00 438.33,808.00 C440.13,808.00 442.03,808.41 442.55,808.90 C444.93,811.17 470.90,815.06 492.50,816.39 C502.57,817.01 543.86,815.90 547.28,814.92 ZM 490.00 794.39 C478.66,793.75 467.92,792.01 453.30,788.45 C445.49,786.55 438.25,785.00 437.20,785.00 C436.16,785.00 432.88,784.15 429.91,783.11 C390.98,769.48 363.28,755.08 338.00,735.32 C323.39,723.90 323.51,724.01 310.14,709.50 C291.78,689.56 285.84,681.94 270.00,658.00 C269.09,656.62 266.21,651.57 263.60,646.76 C260.99,641.96 258.44,637.77 257.93,637.45 C257.42,637.14 257.00,636.18 257.00,635.32 C257.00,634.47 255.15,629.65 252.88,624.63 C230.94,575.99 223.72,512.93 234.12,460.57 C238.76,437.17 247.04,410.49 253.58,397.84 C254.46,396.14 255.80,392.66 256.56,390.12 C257.32,387.58 259.98,382.35 262.46,378.50 C264.95,374.65 266.99,370.98 266.99,370.34 C267.00,369.69 269.53,365.42 272.62,360.84 C275.71,356.25 278.50,351.83 278.82,351.00 C279.48,349.30 290.50,335.28 292.98,333.00 C293.87,332.17 295.92,329.70 297.54,327.50 C301.26,322.43 324.34,299.49 328.58,296.64 C330.34,295.46 335.55,291.30 340.16,287.39 C344.78,283.48 349.49,279.98 350.64,279.61 C351.79,279.25 353.54,278.06 354.52,276.97 C355.51,275.89 356.76,275.00 357.31,275.00 C357.86,275.00 359.77,273.89 361.55,272.53 C363.34,271.17 369.45,267.65 375.15,264.72 C380.84,261.79 388.10,257.95 391.27,256.20 C394.45,254.44 397.52,253.00 398.11,253.00 C398.70,253.00 402.09,251.65 405.66,250.00 C409.22,248.35 412.60,247.00 413.15,247.00 C413.71,247.00 417.39,245.91 421.33,244.57 C455.52,232.99 488.49,228.43 526.00,230.10 C557.95,231.53 589.81,238.51 620.80,250.89 C630.61,254.81 661.45,271.06 667.50,275.50 C670.80,277.92 673.95,279.95 674.50,280.01 C675.46,280.12 677.35,281.62 694.72,296.00 C704.92,304.44 723.99,324.09 733.06,335.50 C739.13,343.13 747.76,355.64 757.55,371.00 C762.55,378.85 773.08,401.81 779.55,419.00 C782.98,428.12 791.31,462.41 793.15,475.00 C795.06,488.08 794.74,539.79 792.68,552.79 C787.59,584.76 775.94,620.11 762.28,645.00 C755.88,656.67 740.39,679.39 731.23,690.56 C714.25,711.26 682.65,739.81 664.00,751.29 C649.04,760.50 622.18,773.21 603.00,780.16 C593.79,783.49 560.98,791.28 549.00,792.98 C541.21,794.08 501.36,795.04 490.00,794.39 ZM 522.64 701.40 C527.89,699.52 533.11,694.47 536.02,688.45 L 538.30 683.76 L 538.10 631.36 C537.99,602.55 538.20,578.48 538.57,577.89 C538.95,577.28 555.33,592.86 576.88,614.34 C618.52,655.85 618.72,656.00 630.62,656.00 C638.35,656.00 642.67,654.05 648.70,647.83 C653.94,642.43 656.00,637.60 656.00,630.71 C656.00,618.68 656.36,619.15 615.17,577.78 C594.51,557.03 577.96,539.70 578.39,539.28 C578.82,538.85 601.29,538.63 628.33,538.78 C663.71,538.99 678.90,538.74 682.50,537.88 C699.43,533.86 707.91,517.31 701.39,501.03 C699.78,496.99 693.94,490.99 689.50,488.79 C681.56,484.87 678.31,484.66 633.14,485.20 C609.14,485.49 586.67,485.45 583.21,485.11 L 576.93 484.50 L 613.99 447.50 C640.06,421.47 651.70,409.17 653.25,406.00 C656.36,399.63 656.82,389.63 654.26,383.88 C649.71,373.63 641.30,368.03 630.45,368.01 C619.26,367.99 617.62,369.27 576.35,410.27 C543.89,442.51 539.11,446.91 538.51,445.03 C538.13,443.84 537.97,420.06 538.14,392.19 L 538.45 341.50 L 536.17 336.50 C531.70,326.67 523.52,321.00 513.82,321.00 C500.34,321.00 490.78,327.81 486.87,340.20 C484.74,346.96 484.71,347.87 485.22,395.29 C485.51,421.80 485.39,444.40 484.97,445.50 C484.30,447.22 478.95,442.21 446.85,409.81 C426.31,389.08 407.92,371.31 406.00,370.32 C400.73,367.62 387.80,367.83 382.50,370.70 C369.98,377.48 364.98,390.87 369.98,404.21 C371.75,408.92 376.06,413.59 409.45,446.96 C434.46,471.95 446.53,484.68 445.72,485.20 C445.05,485.62 421.77,486.01 394.00,486.07 C358.87,486.13 342.18,486.52 339.17,487.33 C333.55,488.85 325.78,495.35 323.11,500.78 C321.54,503.95 321.01,506.91 321.02,512.28 C321.05,521.10 324.20,527.67 330.79,532.68 C338.82,538.78 339.75,538.87 395.09,538.89 C422.68,538.90 445.51,539.17 445.83,539.50 C446.15,539.82 429.71,556.82 409.30,577.29 C388.89,597.76 371.49,615.90 370.64,617.62 C369.78,619.34 368.79,623.61 368.44,627.12 C366.87,642.74 378.73,656.01 394.22,655.99 C405.59,655.97 406.51,655.24 447.50,613.99 L 484.50 576.75 L 485.19 580.63 C485.57,582.76 485.91,606.13 485.94,632.57 C486.01,686.34 486.11,687.25 492.73,694.79 C499.82,702.86 511.39,705.42 522.64,701.40 Z" fill="rgb(254,254,254)"/>
</g>
</svg>