<svg xmlns="http://www.w3.org/2000/svg" width="1254" height="836" viewBox="0 0 1254 836">
<g>
<path d="M 245.12 530.55 C234.39,532.31 210.66,532.26 202.00,530.46 C175.74,525.01 154.61,513.85 137.24,496.25 C125.31,484.16 118.53,473.96 111.65,457.72 C103.84,439.31 101.47,425.51 102.30,403.23 C102.71,392.15 103.50,385.14 104.96,379.50 C111.40,354.69 122.60,335.12 139.59,318.99 C165.31,294.55 203.17,282.08 238.50,286.39 C263.91,289.50 283.89,297.79 303.09,313.18 C321.26,327.75 334.58,347.78 341.89,371.50 C345.82,384.28 346.96,392.46 346.96,408.00 C346.96,423.55 345.82,431.74 341.88,444.50 C335.65,464.64 325.99,480.64 310.83,495.88 C292.73,514.09 268.92,526.65 245.12,530.55 ZM 681.86 475.14 C680.28,476.72 678.40,477.00 669.20,477.00 C662.13,477.00 657.99,476.59 657.20,475.80 C655.59,474.19 655.69,471.20 657.58,463.73 C660.58,451.93 662.97,442.36 675.41,392.17 C682.27,364.49 688.42,341.20 689.07,340.42 C689.99,339.30 693.65,339.00 706.19,339.00 C714.96,339.00 722.94,339.43 723.93,339.96 C726.49,341.33 727.25,343.66 733.99,371.00 C737.32,384.48 740.26,396.40 740.53,397.50 C741.79,402.58 753.49,447.92 756.62,459.85 L 756.80 460.52 C759.05,469.09 760.12,473.20 758.54,475.18 C757.08,477.00 753.34,477.00 746.15,477.00 L 745.54 477.00 C738.18,477.00 733.81,476.57 732.70,475.75 C731.15,474.60 730.22,471.34 725.76,451.50 L 724.41 445.50 L 706.93 445.23 L 689.44 444.96 L 688.12 452.23 C685.46,466.80 683.68,473.32 681.86,475.14 ZM 892.26 475.75 C889.73,477.67 868.63,477.47 867.00,475.50 C865.75,473.99 865.80,473.77 894.08,362.50 C897.88,347.56 899.70,342.04 901.28,340.68 C903.16,339.06 905.06,338.90 918.66,339.18 C931.01,339.44 934.24,339.81 935.53,341.09 C936.40,341.97 939.36,351.42 942.09,362.09 C952.30,401.92 956.29,417.22 963.66,444.80 C964.24,446.97 964.78,448.99 965.29,450.88 C969.62,466.96 971.30,473.19 969.00,475.58 C967.54,477.09 964.49,477.06 959.51,477.02 C958.59,477.01 957.60,477.00 956.54,477.00 C949.10,477.00 944.87,476.58 943.84,475.75 C942.45,474.62 939.78,465.61 936.97,452.54 C936.38,449.81 935.42,447.00 934.83,446.29 C934.03,445.33 929.45,445.00 916.92,445.00 L 900.09 445.00 L 899.45 448.75 C897.32,461.08 893.71,474.64 892.26,475.75 ZM 460.78 475.44 C457.87,477.48 428.28,477.75 425.87,475.75 C424.01,474.21 421.52,470.17 420.78,467.50 C414.54,444.97 404.23,406.92 402.07,398.50 C400.52,392.45 396.40,377.21 392.92,364.64 C392.41,362.79 391.93,361.08 391.49,359.49 C388.19,347.72 386.77,342.67 388.66,340.53 C390.08,338.91 393.37,338.94 399.12,338.98 C400.16,338.99 401.27,339.00 402.47,339.00 C416.39,339.00 418.52,339.85 419.59,345.78 C420.72,352.12 429.73,392.20 433.98,409.78 C436.20,418.98 439.06,431.65 440.34,437.95 C441.62,444.24 443.12,449.54 443.67,449.72 C444.22,449.91 446.26,442.95 448.22,434.28 C450.17,425.60 455.44,402.08 459.93,382.00 C464.42,361.92 468.55,344.31 469.13,342.85 C469.70,341.39 471.14,339.93 472.33,339.61 C475.70,338.71 494.34,338.93 495.86,339.89 C497.85,341.15 496.92,348.18 492.59,364.50 C484.22,396.08 478.52,418.09 470.96,448.00 C465.43,469.88 464.28,472.99 460.78,475.44 ZM 853.44 474.78 C851.89,477.00 851.83,477.00 821.19,476.90 C783.43,476.77 782.35,476.57 777.24,468.71 L 774.50 464.50 L 774.19 412.50 C774.02,383.90 774.16,358.16 774.51,355.30 C775.28,348.88 778.27,344.32 783.50,341.59 C787.26,339.63 789.36,339.48 818.19,339.19 C839.18,338.97 849.54,339.22 850.94,339.97 C852.81,340.97 853.00,342.01 853.00,350.98 C853.00,351.61 853.00,352.20 853.01,352.77 C853.03,357.09 853.04,359.76 851.75,361.39 C849.68,364.02 844.26,364.02 830.13,364.00 C828.97,364.00 827.76,364.00 826.48,364.00 C810.64,364.00 804.06,364.34 803.20,365.20 C802.38,366.02 802.00,371.01 802.00,381.15 L 802.00 395.89 L 824.54 396.20 C843.25,396.45 847.24,396.75 848.02,398.00 C849.44,400.24 849.25,418.35 847.80,419.80 C846.94,420.66 840.31,421.00 824.30,421.00 L 802.00 421.00 L 802.00 434.50 C802.00,435.74 801.99,436.89 801.98,437.96 C801.94,444.02 801.91,447.48 803.61,449.45 C805.87,452.07 811.19,452.05 823.60,452.01 C825.25,452.01 827.02,452.00 828.93,452.00 C848.44,452.00 852.09,452.23 853.43,453.57 C855.65,455.79 855.66,471.62 853.44,474.78 ZM 623.37 474.92 C620.97,476.81 619.40,477.00 605.92,477.00 L 605.50 477.00 C595.76,477.00 591.13,477.00 588.38,474.73 C585.85,472.65 584.90,468.65 583.01,460.98 C580.26,449.83 575.43,431.17 568.40,404.50 C559.40,370.40 553.00,344.32 553.00,341.79 L 553.00 339.00 L 566.48 339.00 C567.17,339.00 567.83,339.00 568.47,339.00 C575.09,338.98 578.47,338.98 580.55,340.62 C582.91,342.49 583.58,346.49 585.42,355.04 C586.77,361.34 591.33,381.35 595.55,399.50 C599.76,417.65 603.97,436.10 604.91,440.50 C607.00,450.30 607.62,449.59 611.46,433.00 C612.93,426.67 614.76,418.80 615.53,415.50 C616.30,412.20 619.42,398.25 622.47,384.50 C625.52,370.75 628.93,355.45 630.05,350.50 C631.23,345.27 632.77,340.98 633.73,340.25 C636.32,338.29 655.41,338.55 657.43,340.57 C658.29,341.44 659.00,342.76 659.00,343.51 C659.00,344.26 655.39,359.42 650.97,377.19 C628.63,467.04 627.66,471.78 624.77,473.93 C624.37,474.24 623.92,474.49 623.37,474.92 ZM 1118.87 476.97 C1111.99,478.88 1100.18,479.49 1093.00,478.32 C1076.53,475.63 1065.88,472.66 1063.70,470.16 C1062.76,469.08 1062.07,465.14 1061.71,458.83 C1061.08,447.53 1061.94,445.32 1066.60,446.30 C1068.19,446.64 1073.78,447.86 1079.00,449.01 C1091.29,451.73 1105.46,452.66 1110.29,451.07 C1115.08,449.49 1119.00,444.78 1119.00,440.60 C1119.00,437.15 1115.38,431.54 1111.00,428.20 C1109.62,427.16 1103.80,423.47 1098.05,420.01 C1085.20,412.27 1074.21,404.23 1070.49,399.82 C1062.34,390.18 1059.07,375.08 1062.36,362.25 C1066.89,344.56 1079.06,337.62 1105.50,337.64 C1118.65,337.65 1131.50,339.51 1138.41,342.40 C1141.19,343.56 1142.02,344.56 1142.56,347.46 C1143.76,353.85 1142.60,362.84 1140.28,365.16 C1138.23,367.21 1138.07,367.22 1129.35,365.62 C1118.09,363.55 1099.23,363.46 1094.47,365.45 C1090.32,367.18 1088.52,370.63 1089.38,375.22 C1090.22,379.70 1097.28,386.46 1107.50,392.56 C1135.69,409.40 1143.11,416.80 1146.56,431.52 C1149.63,444.64 1146.87,456.70 1138.74,465.59 C1132.94,471.94 1129.12,474.13 1118.87,476.97 ZM 217.33 467.75 C223.49,474.08 225.61,474.33 230.56,469.25 C238.43,461.17 251.00,446.17 250.99,444.87 C250.99,444.12 248.74,440.88 245.99,437.67 C243.25,434.46 241.00,431.45 241.00,430.98 C241.00,429.17 245.65,426.99 252.93,425.39 C257.10,424.48 262.08,422.93 264.00,421.94 C269.93,418.91 300.00,386.55 300.00,383.20 C300.00,380.66 298.04,379.00 295.04,379.00 C293.08,379.00 289.49,381.99 279.98,391.53 C266.86,404.70 263.83,406.37 263.19,400.81 C262.93,398.58 264.76,396.11 273.96,386.31 C286.09,373.39 287.57,370.69 284.10,367.88 C280.72,365.15 278.43,366.60 265.69,379.54 C254.10,391.32 250.89,393.16 250.20,388.42 C249.88,386.17 254.90,379.39 266.75,366.11 C270.74,361.64 274.00,357.35 274.00,356.57 C274.00,354.94 271.34,352.00 269.88,352.00 C267.19,352.00 262.32,356.06 249.85,368.68 C242.34,376.28 235.41,384.07 234.45,385.99 C233.32,388.25 232.52,392.77 232.21,398.77 C231.74,407.75 231.61,408.19 228.06,412.18 L 224.40 416.31 L 221.20 411.96 C218.16,407.82 218.00,407.17 218.00,398.54 C218.00,391.80 217.55,388.64 216.25,386.24 C214.03,382.15 189.54,356.52 185.38,353.94 C181.87,351.75 177.00,351.40 175.20,353.20 C172.46,355.94 174.16,358.76 185.98,371.05 C192.56,377.90 197.96,384.08 197.98,384.78 C198.02,386.87 195.16,387.34 192.60,385.65 C191.28,384.79 185.41,379.53 179.55,373.95 C170.08,364.95 168.58,363.88 166.19,364.46 C164.71,364.82 162.94,365.85 162.25,366.75 C159.49,370.36 160.84,372.57 173.10,384.48 C183.82,394.88 185.03,396.40 183.71,397.72 C181.31,400.12 178.66,398.52 167.45,387.86 C158.74,379.57 156.49,377.93 154.25,378.19 C150.97,378.57 148.79,382.31 149.99,385.48 C150.97,388.04 176.47,414.27 183.00,419.43 C186.03,421.82 189.33,423.34 193.12,424.09 C200.25,425.51 206.41,428.91 206.80,431.65 C206.99,432.97 205.59,435.50 203.05,438.44 C200.82,441.01 199.00,443.73 199.00,444.46 C199.00,446.13 210.44,460.66 217.33,467.75 ZM 1020.34 475.18 C1018.94,476.72 1017.07,477.00 1008.00,477.00 C998.91,477.00 997.06,476.73 995.65,475.17 C994.16,473.52 994.00,468.14 994.00,418.67 L 994.00 364.00 L 980.75 363.99 L 980.30 363.98 C970.29,363.97 965.93,363.97 963.97,361.80 C962.43,360.09 962.37,357.05 962.21,351.62 C962.03,345.24 962.33,341.31 963.09,340.40 C964.05,339.24 971.62,339.00 1007.07,339.00 L 1049.89 339.00 L 1051.44 341.22 C1052.52,342.76 1053.00,345.79 1053.00,351.09 C1053.00,357.35 1052.62,359.22 1050.89,361.41 L 1048.78 364.10 L 1022.50 363.78 L 1022.24 418.57 C1022.01,467.81 1021.82,473.55 1020.34,475.18 ZM 539.17 475.35 C537.70,476.68 535.16,477.00 526.19,477.00 C515.57,477.00 514.97,476.89 513.49,474.63 C512.13,472.54 511.98,464.62 512.22,407.18 C512.44,355.41 512.77,341.83 513.80,340.80 C515.22,339.38 536.05,338.90 539.25,340.22 C540.89,340.89 541.00,345.04 541.00,407.31 C541.00,470.35 540.91,473.77 539.17,475.35 ZM 906.00 420.15 C906.00,421.84 906.97,422.00 917.44,422.00 C923.73,422.00 929.11,421.62 929.40,421.17 C930.08,420.06 919.34,376.94 918.06,375.66 C918.04,375.64 918.01,375.61 917.98,375.58 C917.75,375.35 917.57,375.16 917.38,375.16 C916.62,375.17 915.88,378.41 911.97,395.00 C909.70,404.62 907.43,413.80 906.93,415.40 C906.42,416.99 906.00,419.13 906.00,420.15 ZM 695.01 421.25 C695.00,422.39 717.79,422.16 718.49,421.01 C718.98,420.22 709.51,380.97 707.40,375.00 C706.60,372.74 705.47,375.24 704.01,382.50 C703.34,385.80 701.05,395.70 698.91,404.50 C696.77,413.30 695.01,420.84 695.01,421.25 Z" fill="rgb(252,97,2)"/>
<path d="M 440.13 436.89 C440.91,440.52 441.73,443.79 442.12,444.80 C442.90,446.86 443.18,446.96 444.48,445.66 C445.74,444.40 446.30,442.79 453.95,408.74 C451.48,419.78 449.32,429.39 448.22,434.28 C446.26,442.95 444.22,449.91 443.67,449.72 C443.12,449.54 441.62,444.24 440.34,437.95 C440.27,437.61 440.20,437.26 440.13,436.89 ZM 419.83 347.07 C421.53,355.48 429.54,391.00 433.55,408.01 C429.40,390.66 421.60,356.01 419.83,347.07 ZM 434.84 413.39 L 434.87 413.50 C436.48,420.10 438.58,429.32 439.52,433.98 C439.56,434.17 439.59,434.36 439.63,434.55 C438.40,428.77 436.52,420.51 434.84,413.39 Z" fill="rgb(251,203,175)"/>
<path d="M 0.00 418.00 L 0.00 0.00 L 627.00 0.00 L 1254.00 0.00 L 1254.00 418.00 L 1254.00 836.00 L 627.00 836.00 L 0.00 836.00 L 0.00 418.00 ZM 245.12 530.55 C268.92,526.65 292.73,514.09 310.83,495.88 C325.99,480.64 335.65,464.64 341.88,444.50 C345.82,431.74 346.96,423.55 346.96,408.00 C346.96,392.46 345.82,384.28 341.89,371.50 C334.58,347.78 321.26,327.75 303.09,313.18 C283.89,297.79 263.91,289.50 238.50,286.39 C203.17,282.08 165.31,294.55 139.59,318.99 C122.60,335.12 111.40,354.69 104.96,379.50 C103.50,385.14 102.71,392.15 102.30,403.23 C101.47,425.51 103.84,439.31 111.65,457.72 C118.53,473.96 125.31,484.16 137.24,496.25 C154.61,513.85 175.74,525.01 202.00,530.46 C210.66,532.26 234.39,532.31 245.12,530.55 ZM 1118.87 476.97 C1129.12,474.13 1132.94,471.94 1138.74,465.59 C1146.87,456.70 1149.63,444.64 1146.56,431.52 C1143.11,416.80 1135.69,409.40 1107.50,392.56 C1097.28,386.46 1090.22,379.70 1089.38,375.22 C1088.52,370.63 1090.32,367.18 1094.47,365.45 C1099.23,363.46 1118.09,363.55 1129.35,365.62 C1138.07,367.22 1138.23,367.21 1140.28,365.16 C1142.60,362.84 1143.76,353.85 1142.56,347.46 C1142.02,344.56 1141.19,343.56 1138.41,342.40 C1131.50,339.51 1118.65,337.65 1105.50,337.64 C1079.06,337.62 1066.89,344.56 1062.36,362.25 C1059.07,375.08 1062.34,390.18 1070.49,399.82 C1074.21,404.23 1085.20,412.27 1098.05,420.01 C1103.80,423.47 1109.62,427.16 1111.00,428.20 C1115.38,431.54 1119.00,437.15 1119.00,440.60 C1119.00,444.78 1115.08,449.49 1110.29,451.07 C1105.46,452.66 1091.29,451.73 1079.00,449.01 C1073.78,447.86 1068.19,446.64 1066.60,446.30 C1061.94,445.32 1061.08,447.53 1061.71,458.83 C1062.07,465.14 1062.76,469.08 1063.70,470.16 C1065.88,472.66 1076.53,475.63 1093.00,478.32 C1100.18,479.49 1111.99,478.88 1118.87,476.97 ZM 460.78 475.44 C464.28,472.99 465.43,469.88 470.96,448.00 C478.52,418.09 484.22,396.08 492.59,364.50 C496.92,348.18 497.85,341.15 495.86,339.89 C494.34,338.93 475.70,338.71 472.33,339.61 C471.14,339.93 469.70,341.39 469.13,342.85 C468.55,344.31 464.42,361.92 459.93,382.00 C446.51,442.08 446.01,444.13 444.48,445.66 C443.18,446.96 442.90,446.86 442.12,444.80 C441.63,443.52 440.46,438.65 439.52,433.98 C438.58,429.32 436.48,420.10 434.87,413.50 C431.49,399.72 420.57,351.33 419.58,345.78 C418.53,339.85 416.39,339.00 402.47,339.00 C384.55,339.00 385.28,337.03 392.92,364.64 C396.40,377.21 400.52,392.45 402.07,398.50 C404.23,406.92 414.54,444.97 420.78,467.50 C421.52,470.17 424.01,474.21 425.87,475.75 C428.28,477.75 457.87,477.48 460.78,475.44 ZM 539.17 475.35 C540.91,473.77 541.00,470.35 541.00,407.31 C541.00,345.04 540.89,340.89 539.25,340.22 C536.05,338.90 515.22,339.38 513.80,340.80 C512.77,341.83 512.44,355.41 512.22,407.18 C511.98,464.62 512.13,472.54 513.49,474.63 C514.97,476.89 515.57,477.00 526.19,477.00 C535.16,477.00 537.70,476.68 539.17,475.35 ZM 623.37 474.92 C627.82,471.42 625.48,479.71 650.97,377.19 C655.39,359.42 659.00,344.26 659.00,343.51 C659.00,342.76 658.29,341.44 657.43,340.57 C655.41,338.55 636.32,338.29 633.73,340.25 C632.77,340.98 631.23,345.27 630.05,350.50 C628.93,355.45 625.52,370.75 622.47,384.50 C619.42,398.25 616.30,412.20 615.53,415.50 C614.76,418.80 612.93,426.67 611.46,433.00 C607.62,449.59 607.00,450.30 604.91,440.50 C603.97,436.10 599.76,417.65 595.55,399.50 C591.33,381.35 586.77,361.34 585.42,355.04 C581.81,338.25 582.69,339.00 566.48,339.00 L 553.00 339.00 L 553.00 341.79 C553.00,344.32 559.40,370.40 568.40,404.50 C575.43,431.17 580.26,449.83 583.01,460.98 C586.98,477.12 586.81,477.00 605.92,477.00 C619.40,477.00 620.97,476.81 623.37,474.92 ZM 681.86 475.14 C683.68,473.32 685.46,466.80 688.12,452.23 L 689.44 444.96 L 706.93 445.23 L 724.41 445.50 L 725.76 451.50 C730.22,471.34 731.15,474.60 732.70,475.75 C733.81,476.57 738.18,477.00 745.54,477.00 C761.33,477.00 761.18,477.23 756.62,459.85 C753.49,447.92 741.79,402.58 740.53,397.50 C740.26,396.40 737.32,384.48 733.99,371.00 C727.25,343.66 726.49,341.33 723.93,339.96 C722.94,339.43 714.96,339.00 706.19,339.00 C693.65,339.00 689.99,339.30 689.07,340.42 C688.42,341.20 682.27,364.49 675.41,392.17 C662.97,442.36 660.58,451.93 657.58,463.73 C655.69,471.20 655.59,474.19 657.20,475.80 C657.99,476.59 662.13,477.00 669.20,477.00 C678.40,477.00 680.28,476.72 681.86,475.14 ZM 853.44 474.78 C855.66,471.62 855.65,455.79 853.43,453.57 C852.09,452.23 848.44,452.00 828.93,452.00 C799.97,452.00 802.00,453.32 802.00,434.50 L 802.00 421.00 L 824.30 421.00 C840.31,421.00 846.94,420.66 847.80,419.80 C849.25,418.35 849.44,400.24 848.02,398.00 C847.24,396.75 843.25,396.45 824.54,396.20 L 802.00 395.89 L 802.00 381.15 C802.00,371.01 802.38,366.02 803.20,365.20 C804.06,364.34 810.64,364.00 826.48,364.00 C854.34,364.00 853.00,364.66 853.00,350.98 C853.00,342.01 852.81,340.97 850.94,339.97 C849.54,339.22 839.18,338.97 818.19,339.19 C789.36,339.48 787.26,339.63 783.50,341.59 C778.27,344.32 775.28,348.88 774.51,355.30 C774.16,358.16 774.02,383.90 774.19,412.50 L 774.50 464.50 L 777.24 468.71 C782.35,476.57 783.43,476.77 821.19,476.90 C851.83,477.00 851.89,477.00 853.44,474.78 ZM 892.26 475.75 C893.71,474.64 897.32,461.08 899.45,448.75 L 900.09 445.00 L 916.92 445.00 C929.45,445.00 934.03,445.33 934.83,446.29 C935.42,447.00 936.38,449.81 936.97,452.54 C939.78,465.61 942.45,474.62 943.84,475.75 C944.87,476.58 949.10,477.00 956.54,477.00 C973.39,477.00 972.88,479.30 963.66,444.80 C956.29,417.22 952.30,401.92 942.09,362.09 C939.36,351.42 936.40,341.97 935.53,341.09 C934.24,339.81 931.01,339.44 918.66,339.18 C905.06,338.90 903.16,339.06 901.28,340.68 C899.70,342.04 897.88,347.56 894.08,362.50 C865.80,473.77 865.75,473.99 867.00,475.50 C868.63,477.47 889.73,477.67 892.26,475.75 ZM 1020.34 475.18 C1021.82,473.55 1022.01,467.81 1022.24,418.57 L 1022.50 363.78 L 1035.64 363.94 L 1048.78 364.10 L 1050.89 361.41 C1052.62,359.22 1053.00,357.35 1053.00,351.09 C1053.00,345.79 1052.52,342.76 1051.44,341.22 L 1049.89 339.00 L 1007.07 339.00 C971.62,339.00 964.05,339.24 963.09,340.40 C962.33,341.31 962.03,345.24 962.21,351.62 C962.58,364.07 962.42,363.96 980.75,363.99 L 994.00 364.00 L 994.00 418.67 C994.00,468.14 994.16,473.52 995.65,475.17 C997.06,476.73 998.91,477.00 1008.00,477.00 C1017.07,477.00 1018.94,476.72 1020.34,475.18 ZM 217.33 467.75 C210.44,460.66 199.00,446.13 199.00,444.46 C199.00,443.73 200.82,441.01 203.05,438.44 C205.59,435.50 206.99,432.97 206.80,431.65 C206.41,428.91 200.25,425.51 193.12,424.09 C189.33,423.34 186.03,421.82 183.00,419.43 C176.47,414.27 150.97,388.04 149.99,385.48 C148.79,382.31 150.97,378.57 154.25,378.19 C156.49,377.93 158.74,379.57 167.45,387.86 C178.66,398.52 181.31,400.12 183.71,397.72 C185.03,396.40 183.82,394.88 173.10,384.48 C160.84,372.57 159.49,370.36 162.25,366.75 C162.94,365.85 164.71,364.82 166.19,364.46 C168.58,363.88 170.08,364.95 179.55,373.95 C185.41,379.53 191.28,384.79 192.60,385.65 C195.16,387.34 198.02,386.87 197.98,384.78 C197.96,384.08 192.56,377.90 185.98,371.05 C174.16,358.76 172.46,355.94 175.20,353.20 C177.00,351.40 181.87,351.75 185.38,353.94 C189.54,356.52 214.03,382.15 216.25,386.24 C217.55,388.64 218.00,391.80 218.00,398.54 C218.00,407.17 218.16,407.82 221.20,411.96 L 224.40 416.31 L 228.06 412.18 C231.61,408.19 231.74,407.75 232.21,398.77 C232.52,392.77 233.32,388.25 234.45,385.99 C235.41,384.07 242.34,376.28 249.85,368.68 C262.32,356.06 267.19,352.00 269.88,352.00 C271.34,352.00 274.00,354.94 274.00,356.57 C274.00,357.35 270.74,361.64 266.75,366.11 C254.90,379.39 249.88,386.17 250.20,388.42 C250.89,393.16 254.10,391.32 265.69,379.54 C278.43,366.60 280.72,365.15 284.10,367.88 C287.57,370.69 286.09,373.39 273.96,386.31 C264.76,396.11 262.93,398.58 263.19,400.81 C263.83,406.37 266.86,404.70 279.98,391.53 C289.49,381.99 293.08,379.00 295.04,379.00 C298.04,379.00 300.00,380.66 300.00,383.20 C300.00,386.55 269.93,418.91 264.00,421.94 C262.08,422.93 257.10,424.48 252.93,425.39 C245.65,426.99 241.00,429.17 241.00,430.98 C241.00,431.45 243.25,434.46 245.99,437.67 C248.74,440.88 250.99,444.12 250.99,444.87 C251.00,446.17 238.43,461.17 230.56,469.25 C225.61,474.33 223.49,474.08 217.33,467.75 ZM 695.01 421.25 C695.01,420.84 696.77,413.30 698.91,404.50 C701.05,395.70 703.34,385.80 704.01,382.50 C705.47,375.24 706.60,372.74 707.40,375.00 C709.51,380.97 718.98,420.22 718.49,421.01 C717.79,422.16 695.00,422.39 695.01,421.25 ZM 906.00 420.15 C906.00,419.13 906.42,416.99 906.93,415.40 C907.43,413.80 909.70,404.62 911.97,395.00 C916.93,373.94 916.79,374.39 918.06,375.66 C919.34,376.94 930.08,420.06 929.40,421.17 C929.11,421.62 923.73,422.00 917.44,422.00 C906.97,422.00 906.00,421.84 906.00,420.15 Z" fill="rgb(254,254,254)"/>
</g>
</svg>