<svg xmlns="http://www.w3.org/2000/svg" width="1024" height="1024" viewBox="0 0 1024 1024">
<g>
<path d="M 0.00 0.00 L 1024.00 0.00 L 1024.00 1024.00 L 0.00 1024.00 ZM 355.00 730.98 C355.00,732.77 366.34,731.56 372.32,729.14 C373.86,728.51 375.71,728.00 376.41,728.00 C377.12,728.00 378.73,727.10 380.00,726.00 C381.27,724.90 382.73,724.00 383.24,724.00 C384.23,724.00 410.79,697.33 419.09,688.00 C425.82,680.44 433.63,671.83 439.00,666.04 C441.48,663.37 446.65,657.69 450.50,653.41 C454.35,649.13 459.98,643.08 463.00,639.97 C466.02,636.86 471.65,630.77 475.50,626.45 C479.35,622.12 485.65,615.37 489.50,611.44 C493.35,607.52 499.79,600.63 503.82,596.15 C507.85,591.66 511.90,587.59 512.83,587.09 C514.18,586.37 516.82,588.43 526.01,597.41 C532.33,603.58 539.92,611.30 542.88,614.56 C545.84,617.83 550.97,623.42 554.28,627.00 C557.59,630.58 562.99,636.42 566.29,640.00 C569.58,643.58 574.81,649.22 577.89,652.53 C580.98,655.85 584.87,660.13 586.55,662.03 C588.23,663.94 592.89,669.10 596.90,673.50 C600.91,677.90 606.51,684.17 609.34,687.43 C617.45,696.75 640.83,721.04 644.31,723.75 C645.19,724.44 646.38,725.00 646.96,725.00 C647.53,725.00 648.00,725.48 648.00,726.06 C648.00,726.64 648.45,726.84 649.00,726.50 C649.55,726.16 650.00,726.39 650.00,727.00 C650.00,727.61 650.45,727.84 651.00,727.50 C651.55,727.16 652.00,727.34 652.00,727.91 C652.00,728.47 652.67,728.68 653.50,728.36 C654.33,728.05 655.00,728.27 655.00,728.86 C655.00,729.45 655.67,729.68 656.50,729.36 C657.33,729.05 658.00,729.24 658.00,729.80 C658.00,730.36 658.85,730.59 659.89,730.32 C660.93,730.05 662.08,730.31 662.45,730.91 C664.66,734.50 684.35,727.69 690.78,721.12 C694.12,717.70 697.58,712.12 697.21,710.75 C697.09,710.34 697.50,710.00 698.11,710.00 C698.72,710.00 698.96,709.34 698.65,708.53 C698.34,707.72 698.49,706.82 698.98,706.51 C700.35,705.67 699.61,687.70 698.18,687.23 C697.53,687.01 697.24,686.42 697.55,685.91 C697.86,685.41 697.61,685.00 697.00,685.00 C696.39,685.00 696.16,684.55 696.50,684.00 C696.84,683.45 696.61,683.00 696.00,683.00 C695.39,683.00 695.16,682.55 695.50,682.00 C695.84,681.45 695.64,681.00 695.06,681.00 C694.48,681.00 694.00,680.31 694.00,679.47 C694.00,678.63 693.33,677.68 692.50,677.36 C691.67,677.05 691.00,676.31 691.00,675.73 C691.00,674.65 679.27,663.07 660.38,645.50 C654.46,640.00 646.86,632.80 643.47,629.50 C640.09,626.20 632.88,619.45 627.46,614.50 C615.01,603.14 602.62,591.49 593.44,582.50 C586.82,576.02 573.66,563.71 559.75,550.97 C556.59,548.08 554.00,545.18 554.00,544.52 C554.00,543.50 573.61,524.00 574.63,524.00 C574.83,524.00 575.90,523.10 577.00,522.00 C578.10,520.90 579.67,520.00 580.50,520.00 C581.33,520.00 582.00,519.60 582.00,519.11 C582.00,516.81 586.96,516.02 605.00,515.45 C621.53,514.93 625.88,514.55 631.47,513.12 C633.66,512.57 635.64,512.31 635.88,512.55 C636.12,512.79 636.81,512.60 637.41,512.12 C638.01,511.65 640.97,510.48 644.00,509.51 C650.16,507.55 664.32,500.92 664.83,499.75 C665.02,499.34 665.80,499.00 666.58,499.00 C667.36,499.00 668.00,498.55 668.00,498.00 C668.00,497.45 668.47,497.00 669.04,497.00 C670.17,497.00 672.19,495.51 674.79,492.75 C675.70,491.79 676.86,491.00 677.36,491.00 C678.39,491.00 680.05,489.46 696.80,472.99 C703.23,466.65 713.00,457.18 718.50,451.94 C724.00,446.69 737.05,433.47 747.50,422.56 C757.95,411.65 771.46,397.72 777.51,391.61 C789.53,379.49 798.00,370.06 798.00,368.80 C798.00,368.36 798.44,368.00 798.97,368.00 C799.50,368.00 799.68,367.33 799.36,366.50 C799.05,365.67 799.28,365.00 799.89,365.00 C800.50,365.00 801.00,363.42 801.00,361.50 C801.00,359.58 800.55,358.00 800.00,358.00 C799.45,358.00 799.05,357.66 799.11,357.25 C799.41,355.17 797.42,352.17 793.80,349.25 C790.53,346.61 788.92,346.01 785.14,346.04 C782.59,346.05 779.41,346.67 778.08,347.41 C774.97,349.13 742.54,380.65 706.72,416.75 L 678.69 445.00 L 674.39 445.00 C666.75,445.00 662.15,442.01 660.06,435.68 C659.56,434.16 659.09,432.98 658.97,431.76 C658.42,426.43 664.39,420.43 702.27,382.35 C703.84,380.77 705.46,379.14 707.13,377.46 C710.56,374.01 713.76,370.80 716.74,367.81 C753.13,331.21 757.06,327.26 756.81,326.97 C756.78,326.93 756.68,326.95 756.58,326.97 C756.51,326.99 756.44,327.00 756.37,327.00 C755.95,327.00 756.14,326.46 756.80,325.80 C758.26,324.34 758.40,317.36 756.98,316.49 C756.42,316.14 756.23,315.44 756.54,314.93 C756.86,314.42 756.64,314.00 756.06,314.00 C755.48,314.00 755.11,313.66 755.23,313.25 C755.65,311.92 750.26,307.29 746.95,306.13 C745.17,305.51 741.93,305.31 739.62,305.67 C735.98,306.25 733.63,308.15 719.49,321.91 C710.69,330.49 694.28,346.27 683.03,357.00 C671.77,367.73 658.73,380.51 654.03,385.40 C642.85,397.07 634.76,403.00 630.05,403.00 C625.85,402.99 620.00,399.71 619.28,396.95 C619.00,395.88 618.34,395.00 617.82,395.00 C617.31,395.00 617.14,394.58 617.46,394.07 C617.77,393.56 617.66,392.91 617.20,392.62 C615.99,391.88 616.58,385.02 618.15,381.42 C619.55,378.22 634.19,363.00 683.13,313.85 C698.88,298.03 711.52,284.85 711.21,284.55 C710.91,284.25 711.13,284.00 711.71,284.00 C712.31,284.00 712.72,281.67 712.69,278.50 C712.66,275.48 712.24,273.00 711.76,273.00 C711.28,273.00 711.16,272.55 711.50,272.00 C711.84,271.45 711.64,271.00 711.06,271.00 C710.48,271.00 710.00,270.45 710.00,269.78 C710.00,267.85 705.01,264.08 701.03,263.01 C697.11,261.95 693.54,262.63 688.02,265.49 C684.50,267.31 638.47,312.96 619.50,333.45 C613.45,339.98 599.76,354.14 589.07,364.92 C569.71,384.43 561.45,394.14 557.33,402.24 C549.72,417.20 548.10,424.52 546.99,448.86 C545.79,475.33 545.98,474.92 524.89,496.35 L 514.21 507.19 L 508.84 502.82 C500.16,495.75 489.41,484.81 486.92,480.50 C484.71,476.67 484.60,475.51 484.38,453.50 C484.26,440.85 483.91,429.38 483.61,428.00 C482.53,423.04 482.15,421.50 481.95,421.25 C481.84,421.11 481.64,420.55 481.50,420.00 C481.36,419.45 481.14,418.77 481.00,418.50 C480.86,418.23 480.64,417.55 480.50,417.00 C480.36,416.45 480.14,415.77 480.00,415.50 C479.86,415.23 479.68,414.66 479.59,414.25 C479.50,413.84 478.90,412.55 478.25,411.38 C477.60,410.22 477.35,408.98 477.70,408.63 C478.05,408.28 477.81,408.00 477.17,408.00 C476.52,408.00 476.11,407.66 476.24,407.25 C476.64,405.99 473.82,400.00 472.82,400.00 C472.30,400.00 472.16,399.55 472.50,399.00 C472.84,398.45 472.64,398.00 472.06,398.00 C471.48,398.00 471.00,397.33 471.00,396.50 C471.00,395.67 470.52,395.00 469.94,395.00 C469.36,395.00 469.16,394.55 469.50,393.99 C469.85,393.44 469.42,392.72 468.56,392.39 C467.70,392.06 467.00,391.21 467.00,390.50 C467.00,389.79 466.33,388.95 465.50,388.64 C464.67,388.32 464.00,387.57 464.00,386.97 C464.00,385.05 450.71,371.36 433.45,355.50 C427.46,350.00 420.25,343.25 417.42,340.50 C414.59,337.75 407.21,330.77 401.02,325.00 C394.83,319.23 378.21,303.02 364.08,289.00 C349.96,274.98 337.17,262.94 335.66,262.25 C334.14,261.56 331.12,261.00 328.93,261.00 C325.57,261.00 324.27,261.67 320.64,265.31 C316.29,269.65 315.00,272.95 315.00,279.67 C315.00,284.28 320.62,291.75 331.16,301.13 C335.71,305.19 342.80,312.10 346.93,316.50 C357.19,327.46 379.72,349.76 396.91,365.98 C404.76,373.39 411.87,380.78 412.71,382.40 C414.72,386.30 413.75,395.27 411.00,398.23 C406.15,403.44 399.04,405.57 395.00,403.02 C392.01,401.14 372.98,382.98 348.87,359.00 C313.81,324.13 296.68,307.84 292.84,305.72 C290.37,304.35 288.25,304.01 284.71,304.39 C275.88,305.36 271.01,310.76 270.29,320.41 L 269.83 326.50 L 284.16 341.01 C292.05,348.99 301.91,359.11 306.08,363.51 C310.26,367.90 323.76,381.17 336.08,393.00 C366.89,422.55 370.56,425.91 370.96,429.63 C371.01,430.13 371.01,430.64 371.00,431.22 C371.00,431.40 371.00,431.59 371.00,431.79 C371.00,435.50 370.41,437.16 368.25,439.63 C366.74,441.35 364.52,443.26 363.32,443.88 C359.82,445.68 354.05,445.19 350.12,442.77 C348.13,441.54 328.50,422.46 306.50,400.37 C262.37,356.05 252.24,346.56 247.31,344.94 C243.22,343.59 235.34,345.87 232.33,349.28 C227.81,354.42 226.67,362.52 229.65,368.30 C230.56,370.06 257.23,397.38 288.92,429.00 C350.01,489.98 355.54,495.32 361.33,498.89 C363.35,500.14 365.00,501.57 365.00,502.06 C365.00,502.56 366.12,503.24 367.50,503.59 C368.88,503.93 370.00,504.64 370.00,505.17 C370.00,505.69 370.45,505.84 371.00,505.50 C371.55,505.16 372.00,505.39 372.00,506.00 C372.00,506.61 372.45,506.84 373.00,506.50 C373.55,506.16 374.00,506.39 374.00,507.00 C374.00,507.61 374.45,507.84 375.00,507.50 C375.55,507.16 376.00,507.34 376.00,507.91 C376.00,508.47 376.62,508.70 377.37,508.41 C378.13,508.12 379.37,508.51 380.13,509.27 C380.89,510.04 382.08,510.47 382.76,510.25 C383.44,510.02 384.00,510.31 384.00,510.89 C384.00,511.46 384.67,511.68 385.50,511.36 C386.33,511.05 387.00,511.27 387.00,511.86 C387.00,512.45 387.67,512.68 388.50,512.36 C389.33,512.05 390.00,512.31 390.00,512.95 C390.00,513.59 390.47,513.83 391.04,513.47 C391.62,513.12 392.69,513.32 393.42,513.93 C394.15,514.54 395.48,514.75 396.37,514.41 C397.33,514.04 398.00,514.29 398.00,515.00 C398.00,515.80 398.86,516.00 400.55,515.58 C401.95,515.23 403.63,515.29 404.30,515.72 C404.96,516.15 412.70,516.55 421.50,516.62 C439.96,516.75 442.00,516.90 442.00,518.07 C442.00,518.55 442.67,518.68 443.50,518.36 C444.33,518.05 445.00,518.25 445.00,518.83 C445.00,519.40 446.01,520.18 447.25,520.56 C449.67,521.30 450.35,521.83 456.53,527.68 C458.75,529.78 463.55,534.27 467.21,537.65 L 473.85 543.79 L 458.68 558.76 C450.33,567.00 440.80,576.11 437.50,579.02 C434.20,581.92 429.48,586.37 427.00,588.90 C424.52,591.44 416.23,599.36 408.58,606.50 C400.92,613.65 391.70,622.42 388.08,626.00 C384.46,629.58 377.06,636.55 371.63,641.50 C366.20,646.45 359.22,652.97 356.12,656.00 C353.01,659.03 348.54,663.08 346.18,665.00 C341.44,668.85 335.83,676.13 333.20,681.82 C332.26,683.85 331.06,685.81 330.53,686.20 C330.00,686.58 329.55,691.53 329.53,697.20 C329.50,706.44 329.78,708.07 332.23,713.00 C335.58,719.77 343.37,728.00 346.43,728.00 C347.29,728.00 348.00,728.48 348.00,729.06 C348.00,729.64 348.45,729.84 349.00,729.50 C349.55,729.16 350.00,729.37 350.00,729.96 C350.00,730.61 350.99,730.79 352.50,730.41 C354.13,730.00 355.00,730.20 355.00,730.98 Z" fill="rgb(50,50,50)"/>
<path d="M 355.00 730.98 C355.00,730.20 354.13,730.00 352.50,730.41 C350.99,730.79 350.00,730.61 350.00,729.96 C350.00,729.37 349.55,729.16 349.00,729.50 C348.45,729.84 348.00,729.64 348.00,729.06 C348.00,728.48 347.29,728.00 346.43,728.00 C343.37,728.00 335.58,719.77 332.23,713.00 C329.78,708.07 329.50,706.44 329.53,697.20 C329.55,691.53 330.00,686.58 330.53,686.20 C331.06,685.81 332.26,683.85 333.20,681.82 C335.83,676.13 341.44,668.85 346.18,665.00 C348.54,663.08 353.01,659.03 356.12,656.00 C359.22,652.97 366.20,646.45 371.63,641.50 C377.06,636.55 384.46,629.58 388.08,626.00 C391.70,622.42 400.92,613.65 408.58,606.50 C416.23,599.36 424.52,591.44 427.00,588.90 C429.48,586.37 434.20,581.92 437.50,579.02 C440.80,576.11 450.33,567.00 458.68,558.76 L 473.85 543.79 L 467.21 537.65 C463.55,534.27 458.75,529.78 456.53,527.68 C450.35,521.83 449.67,521.30 447.25,520.56 C446.01,520.18 445.00,519.40 445.00,518.83 C445.00,518.25 444.33,518.05 443.50,518.36 C442.67,518.68 442.00,518.55 442.00,518.07 C442.00,516.90 439.96,516.75 421.50,516.62 C412.70,516.55 404.96,516.15 404.30,515.72 C403.63,515.29 401.95,515.23 400.55,515.58 C398.86,516.00 398.00,515.80 398.00,515.00 C398.00,514.29 397.33,514.04 396.37,514.41 C395.48,514.75 394.15,514.54 393.42,513.93 C392.69,513.32 391.62,513.12 391.04,513.47 C390.47,513.83 390.00,513.59 390.00,512.95 C390.00,512.31 389.33,512.05 388.50,512.36 C387.67,512.68 387.00,512.45 387.00,511.86 C387.00,511.27 386.33,511.05 385.50,511.36 C384.67,511.68 384.00,511.46 384.00,510.89 C384.00,510.31 383.44,510.02 382.76,510.25 C382.08,510.47 380.89,510.04 380.13,509.27 C379.37,508.51 378.13,508.12 377.37,508.41 C376.62,508.70 376.00,508.47 376.00,507.91 C376.00,507.34 375.55,507.16 375.00,507.50 C374.45,507.84 374.00,507.61 374.00,507.00 C374.00,506.39 373.55,506.16 373.00,506.50 C372.45,506.84 372.00,506.61 372.00,506.00 C372.00,505.39 371.55,505.16 371.00,505.50 C370.45,505.84 370.00,505.69 370.00,505.17 C370.00,504.64 368.88,503.93 367.50,503.59 C366.12,503.24 365.00,502.56 365.00,502.06 C365.00,501.57 363.35,500.14 361.33,498.89 C355.54,495.32 350.01,489.98 288.92,429.00 C257.23,397.38 230.56,370.06 229.65,368.30 C226.67,362.52 227.81,354.42 232.33,349.28 C235.34,345.87 243.22,343.59 247.31,344.94 C252.24,346.56 262.37,356.05 306.50,400.37 C328.50,422.46 348.13,441.54 350.12,442.77 C354.05,445.19 359.82,445.68 363.32,443.88 C364.52,443.26 366.74,441.35 368.25,439.63 C370.41,437.16 371.00,435.50 371.00,431.79 C371.00,426.28 372.37,427.80 336.08,393.00 C323.76,381.17 310.26,367.90 306.08,363.51 C301.91,359.11 292.05,348.99 284.16,341.01 L 269.83 326.50 L 270.29 320.41 C271.01,310.76 275.88,305.36 284.71,304.39 C288.25,304.01 290.37,304.35 292.84,305.72 C296.68,307.84 313.81,324.13 348.87,359.00 C372.98,382.98 392.01,401.14 395.00,403.02 C399.04,405.57 406.15,403.44 411.00,398.23 C413.75,395.27 414.72,386.30 412.71,382.40 C411.87,380.78 404.76,373.39 396.91,365.98 C379.72,349.76 357.19,327.46 346.93,316.50 C342.80,312.10 335.71,305.19 331.16,301.13 C320.62,291.75 315.00,284.28 315.00,279.67 C315.00,272.95 316.29,269.65 320.64,265.31 C324.27,261.67 325.57,261.00 328.93,261.00 C331.12,261.00 334.14,261.56 335.66,262.25 C337.17,262.94 349.96,274.98 364.08,289.00 C378.21,303.02 394.83,319.23 401.02,325.00 C407.21,330.77 414.59,337.75 417.42,340.50 C420.25,343.25 427.46,350.00 433.45,355.50 C450.71,371.36 464.00,385.05 464.00,386.97 C464.00,387.57 464.67,388.32 465.50,388.64 C466.33,388.95 467.00,389.79 467.00,390.50 C467.00,391.21 467.70,392.06 468.56,392.39 C469.42,392.72 469.85,393.44 469.50,393.99 C469.16,394.55 469.36,395.00 469.94,395.00 C470.52,395.00 471.00,395.67 471.00,396.50 C471.00,397.33 471.48,398.00 472.06,398.00 C472.64,398.00 472.84,398.45 472.50,399.00 C472.16,399.55 472.30,400.00 472.82,400.00 C473.82,400.00 476.64,405.99 476.24,407.25 C476.11,407.66 476.52,408.00 477.17,408.00 C477.81,408.00 478.05,408.28 477.70,408.63 C477.35,408.98 477.60,410.22 478.25,411.38 C478.90,412.55 479.50,413.84 479.59,414.25 C479.68,414.66 479.86,415.23 480.00,415.50 C480.14,415.77 480.36,416.45 480.50,417.00 C480.64,417.55 480.86,418.23 481.00,418.50 C481.14,418.77 481.36,419.45 481.50,420.00 C481.64,420.55 481.84,421.11 481.95,421.25 C482.15,421.50 482.53,423.04 483.61,428.00 C483.91,429.38 484.26,440.85 484.38,453.50 C484.60,475.51 484.71,476.67 486.92,480.50 C489.41,484.81 500.16,495.75 508.84,502.82 L 514.21 507.19 L 524.89 496.35 C545.98,474.92 545.79,475.33 546.99,448.86 C548.10,424.52 549.72,417.20 557.33,402.24 C561.45,394.14 569.71,384.43 589.07,364.92 C599.76,354.14 613.45,339.98 619.50,333.45 C638.47,312.96 684.50,267.31 688.02,265.49 C693.54,262.63 697.11,261.95 701.03,263.01 C705.01,264.08 710.00,267.85 710.00,269.78 C710.00,270.45 710.48,271.00 711.06,271.00 C711.64,271.00 711.84,271.45 711.50,272.00 C711.16,272.55 711.28,273.00 711.76,273.00 C712.24,273.00 712.66,275.48 712.69,278.50 C712.72,281.67 712.31,284.00 711.71,284.00 C711.13,284.00 710.91,284.25 711.21,284.55 C711.52,284.85 698.88,298.03 683.13,313.85 C634.19,363.00 619.55,378.22 618.15,381.42 C616.58,385.02 615.99,391.88 617.20,392.62 C617.66,392.91 617.77,393.56 617.46,394.07 C617.14,394.58 617.31,395.00 617.82,395.00 C618.34,395.00 619.00,395.88 619.28,396.95 C620.00,399.71 625.85,402.99 630.05,403.00 C634.76,403.00 642.85,397.07 654.03,385.40 C658.73,380.51 671.77,367.73 683.03,357.00 C694.28,346.27 710.69,330.49 719.49,321.91 C733.63,308.15 735.98,306.25 739.62,305.67 C741.93,305.31 745.17,305.51 746.95,306.13 C750.26,307.29 755.65,311.92 755.23,313.25 C755.11,313.66 755.48,314.00 756.06,314.00 C756.64,314.00 756.86,314.42 756.54,314.93 C756.23,315.44 756.42,316.14 756.98,316.49 C758.40,317.36 758.26,324.34 756.80,325.80 C756.14,326.46 755.95,327.00 756.37,327.00 C757.39,327.00 760.97,323.33 707.13,377.46 C655.63,429.25 657.27,427.22 660.06,435.68 C662.15,442.01 666.75,445.00 674.39,445.00 L 678.69 445.00 L 706.72 416.75 C742.54,380.65 774.97,349.13 778.08,347.41 C779.41,346.67 782.59,346.05 785.14,346.04 C788.92,346.01 790.53,346.61 793.80,349.25 C797.42,352.17 799.41,355.17 799.11,357.25 C799.05,357.66 799.45,358.00 800.00,358.00 C800.55,358.00 801.00,359.58 801.00,361.50 C801.00,363.42 800.50,365.00 799.89,365.00 C799.28,365.00 799.05,365.67 799.36,366.50 C799.68,367.33 799.50,368.00 798.97,368.00 C798.44,368.00 798.00,368.36 798.00,368.80 C798.00,370.06 789.53,379.49 777.51,391.61 C771.46,397.72 757.95,411.65 747.50,422.56 C737.05,433.47 724.00,446.69 718.50,451.94 C713.00,457.18 703.23,466.65 696.80,472.99 C680.05,489.46 678.39,491.00 677.36,491.00 C676.86,491.00 675.70,491.79 674.79,492.75 C672.19,495.51 670.17,497.00 669.04,497.00 C668.47,497.00 668.00,497.45 668.00,498.00 C668.00,498.55 667.36,499.00 666.58,499.00 C665.80,499.00 665.02,499.34 664.83,499.75 C664.32,500.92 650.16,507.55 644.00,509.51 C640.97,510.48 638.01,511.65 637.41,512.12 C636.81,512.60 636.12,512.79 635.88,512.55 C635.64,512.31 633.66,512.57 631.47,513.12 C625.88,514.55 621.53,514.93 605.00,515.45 C586.96,516.02 582.00,516.81 582.00,519.11 C582.00,519.60 581.33,520.00 580.50,520.00 C579.67,520.00 578.10,520.90 577.00,522.00 C575.90,523.10 574.83,524.00 574.63,524.00 C573.61,524.00 554.00,543.50 554.00,544.52 C554.00,545.18 556.59,548.08 559.75,550.97 C573.66,563.71 586.82,576.02 593.44,582.50 C602.62,591.49 615.01,603.14 627.46,614.50 C632.88,619.45 640.09,626.20 643.47,629.50 C646.86,632.80 654.46,640.00 660.38,645.50 C679.27,663.07 691.00,674.65 691.00,675.73 C691.00,676.31 691.67,677.05 692.50,677.36 C693.33,677.68 694.00,678.63 694.00,679.47 C694.00,680.31 694.48,681.00 695.06,681.00 C695.64,681.00 695.84,681.45 695.50,682.00 C695.16,682.55 695.39,683.00 696.00,683.00 C696.61,683.00 696.84,683.45 696.50,684.00 C696.16,684.55 696.39,685.00 697.00,685.00 C697.61,685.00 697.86,685.41 697.55,685.91 C697.24,686.42 697.53,687.01 698.18,687.23 C699.61,687.70 700.35,705.67 698.98,706.51 C698.49,706.82 698.34,707.72 698.65,708.53 C698.96,709.34 698.72,710.00 698.11,710.00 C697.50,710.00 697.09,710.34 697.21,710.75 C697.58,712.12 694.12,717.70 690.78,721.12 C684.35,727.69 664.66,734.50 662.45,730.91 C662.08,730.31 660.93,730.05 659.89,730.32 C658.85,730.59 658.00,730.36 658.00,729.80 C658.00,729.24 657.33,729.05 656.50,729.36 C655.67,729.68 655.00,729.45 655.00,728.86 C655.00,728.27 654.33,728.05 653.50,728.36 C652.67,728.68 652.00,728.47 652.00,727.91 C652.00,727.34 651.55,727.16 651.00,727.50 C650.45,727.84 650.00,727.61 650.00,727.00 C650.00,726.39 649.55,726.16 649.00,726.50 C648.45,726.84 648.00,726.64 648.00,726.06 C648.00,725.48 647.53,725.00 646.96,725.00 C646.38,725.00 645.19,724.44 644.31,723.75 C640.83,721.04 617.45,696.75 609.34,687.43 C606.51,684.17 600.91,677.90 596.90,673.50 C592.89,669.10 588.23,663.94 586.55,662.03 C584.87,660.13 580.98,655.85 577.89,652.53 C574.81,649.22 569.58,643.58 566.29,640.00 C562.99,636.42 557.59,630.58 554.28,627.00 C550.97,623.42 545.84,617.83 542.88,614.56 C539.92,611.30 532.33,603.58 526.01,597.41 C516.82,588.43 514.18,586.37 512.83,587.09 C511.90,587.59 507.85,591.66 503.82,596.15 C499.79,600.63 493.35,607.52 489.50,611.44 C485.65,615.37 479.35,622.12 475.50,626.45 C471.65,630.77 466.02,636.86 463.00,639.97 C459.98,643.08 454.35,649.13 450.50,653.41 C446.65,657.69 441.48,663.37 439.00,666.04 C433.63,671.83 425.82,680.44 419.09,688.00 C410.79,697.33 384.23,724.00 383.24,724.00 C382.73,724.00 381.27,724.90 380.00,726.00 C378.73,727.10 377.12,728.00 376.41,728.00 C375.71,728.00 373.86,728.51 372.32,729.14 C366.34,731.56 355.00,732.77 355.00,730.98 Z" fill="rgb(254,254,254)"/>
</g>
</svg>